<?xml version="1.0" encoding="utf-8" standalone="no"?>
<!DOCTYPE svg PUBLIC "-//W3C//DTD SVG 1.1//EN"
  "http://www.w3.org/Graphics/SVG/1.1/DTD/svg11.dtd">
<svg xmlns:xlink="http://www.w3.org/1999/xlink" width="864pt" height="864pt" viewBox="0 0 864 864" xmlns="http://www.w3.org/2000/svg" version="1.1">
 <metadata>
  <rdf:RDF xmlns:dc="http://purl.org/dc/elements/1.1/" xmlns:cc="http://creativecommons.org/ns#" xmlns:rdf="http://www.w3.org/1999/02/22-rdf-syntax-ns#">
   <cc:Work>
    <dc:type rdf:resource="http://purl.org/dc/dcmitype/StillImage"/>
    <dc:date>2024-09-06T18:21:24.320060</dc:date>
    <dc:format>image/svg+xml</dc:format>
    <dc:creator>
     <cc:Agent>
      <dc:title>Matplotlib v3.9.1, https://matplotlib.org/</dc:title>
     </cc:Agent>
    </dc:creator>
   </cc:Work>
  </rdf:RDF>
 </metadata>
 <defs>
  <style type="text/css">*{stroke-linejoin: round; stroke-linecap: butt}</style>
 </defs>
 <g id="figure_1">
  <g id="patch_1">
   <path d="M 0 864 
L 864 864 
L 864 0 
L 0 0 
z
" style="fill: #ffffff"/>
  </g>
  <g id="axes_1">
   <g id="patch_2">
    <path d="M 86.4 777.6 
L 777.6 777.6 
L 777.6 86.4 
L 86.4 86.4 
z
" style="fill: #ffffff"/>
   </g>
   <g id="matplotlib.axis_1">
    <g id="xtick_1">
     <g id="line2d_1">
      <path d="M 117.818182 777.6 
L 117.818182 86.4 
" clip-path="url(#p492e898bd6)" style="fill: none; stroke: #b0b0b0; stroke-width: 0.8; stroke-linecap: square"/>
     </g>
     <g id="line2d_2">
      <defs>
       <path id="m487d4ee34f" d="M 0 0 
L 0 3.5 
" style="stroke: #000000; stroke-width: 0.8"/>
      </defs>
      <g>
       <use xlink:href="#m487d4ee34f" x="117.818182" y="777.6" style="stroke: #000000; stroke-width: 0.8"/>
      </g>
     </g>
     <g id="text_1">
      <!-- 1 -->
      <g transform="translate(114.636932 792.198438) scale(0.1 -0.1)">
       <defs>
        <path id="DejaVuSans-31" d="M 794 531 
L 1825 531 
L 1825 4091 
L 703 3866 
L 703 4441 
L 1819 4666 
L 2450 4666 
L 2450 531 
L 3481 531 
L 3481 0 
L 794 0 
L 794 531 
z
" transform="scale(0.015625)"/>
       </defs>
       <use xlink:href="#DejaVuSans-31"/>
      </g>
     </g>
    </g>
    <g id="xtick_2">
     <g id="line2d_3">
      <path d="M 151.783784 777.6 
L 151.783784 86.4 
" clip-path="url(#p492e898bd6)" style="fill: none; stroke: #b0b0b0; stroke-width: 0.8; stroke-linecap: square"/>
     </g>
     <g id="line2d_4">
      <g>
       <use xlink:href="#m487d4ee34f" x="151.783784" y="777.6" style="stroke: #000000; stroke-width: 0.8"/>
      </g>
     </g>
     <g id="text_2">
      <!-- 5 -->
      <g transform="translate(148.602534 792.198438) scale(0.1 -0.1)">
       <defs>
        <path id="DejaVuSans-35" d="M 691 4666 
L 3169 4666 
L 3169 4134 
L 1269 4134 
L 1269 2991 
Q 1406 3038 1543 3061 
Q 1681 3084 1819 3084 
Q 2600 3084 3056 2656 
Q 3513 2228 3513 1497 
Q 3513 744 3044 326 
Q 2575 -91 1722 -91 
Q 1428 -91 1123 -41 
Q 819 9 494 109 
L 494 744 
Q 775 591 1075 516 
Q 1375 441 1709 441 
Q 2250 441 2565 725 
Q 2881 1009 2881 1497 
Q 2881 1984 2565 2268 
Q 2250 2553 1709 2553 
Q 1456 2553 1204 2497 
Q 953 2441 691 2322 
L 691 4666 
z
" transform="scale(0.015625)"/>
       </defs>
       <use xlink:href="#DejaVuSans-35"/>
      </g>
     </g>
    </g>
    <g id="xtick_3">
     <g id="line2d_5">
      <path d="M 185.749386 777.6 
L 185.749386 86.4 
" clip-path="url(#p492e898bd6)" style="fill: none; stroke: #b0b0b0; stroke-width: 0.8; stroke-linecap: square"/>
     </g>
     <g id="line2d_6">
      <g>
       <use xlink:href="#m487d4ee34f" x="185.749386" y="777.6" style="stroke: #000000; stroke-width: 0.8"/>
      </g>
     </g>
     <g id="text_3">
      <!-- 9 -->
      <g transform="translate(182.568136 792.198438) scale(0.1 -0.1)">
       <defs>
        <path id="DejaVuSans-39" d="M 703 97 
L 703 672 
Q 941 559 1184 500 
Q 1428 441 1663 441 
Q 2288 441 2617 861 
Q 2947 1281 2994 2138 
Q 2813 1869 2534 1725 
Q 2256 1581 1919 1581 
Q 1219 1581 811 2004 
Q 403 2428 403 3163 
Q 403 3881 828 4315 
Q 1253 4750 1959 4750 
Q 2769 4750 3195 4129 
Q 3622 3509 3622 2328 
Q 3622 1225 3098 567 
Q 2575 -91 1691 -91 
Q 1453 -91 1209 -44 
Q 966 3 703 97 
z
M 1959 2075 
Q 2384 2075 2632 2365 
Q 2881 2656 2881 3163 
Q 2881 3666 2632 3958 
Q 2384 4250 1959 4250 
Q 1534 4250 1286 3958 
Q 1038 3666 1038 3163 
Q 1038 2656 1286 2365 
Q 1534 2075 1959 2075 
z
" transform="scale(0.015625)"/>
       </defs>
       <use xlink:href="#DejaVuSans-39"/>
      </g>
     </g>
    </g>
    <g id="xtick_4">
     <g id="line2d_7">
      <path d="M 219.714988 777.6 
L 219.714988 86.4 
" clip-path="url(#p492e898bd6)" style="fill: none; stroke: #b0b0b0; stroke-width: 0.8; stroke-linecap: square"/>
     </g>
     <g id="line2d_8">
      <g>
       <use xlink:href="#m487d4ee34f" x="219.714988" y="777.6" style="stroke: #000000; stroke-width: 0.8"/>
      </g>
     </g>
     <g id="text_4">
      <!-- 13 -->
      <g transform="translate(213.352488 792.198438) scale(0.1 -0.1)">
       <defs>
        <path id="DejaVuSans-33" d="M 2597 2516 
Q 3050 2419 3304 2112 
Q 3559 1806 3559 1356 
Q 3559 666 3084 287 
Q 2609 -91 1734 -91 
Q 1441 -91 1130 -33 
Q 819 25 488 141 
L 488 750 
Q 750 597 1062 519 
Q 1375 441 1716 441 
Q 2309 441 2620 675 
Q 2931 909 2931 1356 
Q 2931 1769 2642 2001 
Q 2353 2234 1838 2234 
L 1294 2234 
L 1294 2753 
L 1863 2753 
Q 2328 2753 2575 2939 
Q 2822 3125 2822 3475 
Q 2822 3834 2567 4026 
Q 2313 4219 1838 4219 
Q 1578 4219 1281 4162 
Q 984 4106 628 3988 
L 628 4550 
Q 988 4650 1302 4700 
Q 1616 4750 1894 4750 
Q 2613 4750 3031 4423 
Q 3450 4097 3450 3541 
Q 3450 3153 3228 2886 
Q 3006 2619 2597 2516 
z
" transform="scale(0.015625)"/>
       </defs>
       <use xlink:href="#DejaVuSans-31"/>
       <use xlink:href="#DejaVuSans-33" x="63.623047"/>
      </g>
     </g>
    </g>
    <g id="xtick_5">
     <g id="line2d_9">
      <path d="M 253.68059 777.6 
L 253.68059 86.4 
" clip-path="url(#p492e898bd6)" style="fill: none; stroke: #b0b0b0; stroke-width: 0.8; stroke-linecap: square"/>
     </g>
     <g id="line2d_10">
      <g>
       <use xlink:href="#m487d4ee34f" x="253.68059" y="777.6" style="stroke: #000000; stroke-width: 0.8"/>
      </g>
     </g>
     <g id="text_5">
      <!-- 17 -->
      <g transform="translate(247.31809 792.198438) scale(0.1 -0.1)">
       <defs>
        <path id="DejaVuSans-37" d="M 525 4666 
L 3525 4666 
L 3525 4397 
L 1831 0 
L 1172 0 
L 2766 4134 
L 525 4134 
L 525 4666 
z
" transform="scale(0.015625)"/>
       </defs>
       <use xlink:href="#DejaVuSans-31"/>
       <use xlink:href="#DejaVuSans-37" x="63.623047"/>
      </g>
     </g>
    </g>
    <g id="xtick_6">
     <g id="line2d_11">
      <path d="M 287.646192 777.6 
L 287.646192 86.4 
" clip-path="url(#p492e898bd6)" style="fill: none; stroke: #b0b0b0; stroke-width: 0.8; stroke-linecap: square"/>
     </g>
     <g id="line2d_12">
      <g>
       <use xlink:href="#m487d4ee34f" x="287.646192" y="777.6" style="stroke: #000000; stroke-width: 0.8"/>
      </g>
     </g>
     <g id="text_6">
      <!-- 21 -->
      <g transform="translate(281.283692 792.198438) scale(0.1 -0.1)">
       <defs>
        <path id="DejaVuSans-32" d="M 1228 531 
L 3431 531 
L 3431 0 
L 469 0 
L 469 531 
Q 828 903 1448 1529 
Q 2069 2156 2228 2338 
Q 2531 2678 2651 2914 
Q 2772 3150 2772 3378 
Q 2772 3750 2511 3984 
Q 2250 4219 1831 4219 
Q 1534 4219 1204 4116 
Q 875 4013 500 3803 
L 500 4441 
Q 881 4594 1212 4672 
Q 1544 4750 1819 4750 
Q 2544 4750 2975 4387 
Q 3406 4025 3406 3419 
Q 3406 3131 3298 2873 
Q 3191 2616 2906 2266 
Q 2828 2175 2409 1742 
Q 1991 1309 1228 531 
z
" transform="scale(0.015625)"/>
       </defs>
       <use xlink:href="#DejaVuSans-32"/>
       <use xlink:href="#DejaVuSans-31" x="63.623047"/>
      </g>
     </g>
    </g>
    <g id="xtick_7">
     <g id="line2d_13">
      <path d="M 321.611794 777.6 
L 321.611794 86.4 
" clip-path="url(#p492e898bd6)" style="fill: none; stroke: #b0b0b0; stroke-width: 0.8; stroke-linecap: square"/>
     </g>
     <g id="line2d_14">
      <g>
       <use xlink:href="#m487d4ee34f" x="321.611794" y="777.6" style="stroke: #000000; stroke-width: 0.8"/>
      </g>
     </g>
     <g id="text_7">
      <!-- 25 -->
      <g transform="translate(315.249294 792.198438) scale(0.1 -0.1)">
       <use xlink:href="#DejaVuSans-32"/>
       <use xlink:href="#DejaVuSans-35" x="63.623047"/>
      </g>
     </g>
    </g>
    <g id="xtick_8">
     <g id="line2d_15">
      <path d="M 355.577396 777.6 
L 355.577396 86.4 
" clip-path="url(#p492e898bd6)" style="fill: none; stroke: #b0b0b0; stroke-width: 0.8; stroke-linecap: square"/>
     </g>
     <g id="line2d_16">
      <g>
       <use xlink:href="#m487d4ee34f" x="355.577396" y="777.6" style="stroke: #000000; stroke-width: 0.8"/>
      </g>
     </g>
     <g id="text_8">
      <!-- 29 -->
      <g transform="translate(349.214896 792.198438) scale(0.1 -0.1)">
       <use xlink:href="#DejaVuSans-32"/>
       <use xlink:href="#DejaVuSans-39" x="63.623047"/>
      </g>
     </g>
    </g>
    <g id="xtick_9">
     <g id="line2d_17">
      <path d="M 389.542998 777.6 
L 389.542998 86.4 
" clip-path="url(#p492e898bd6)" style="fill: none; stroke: #b0b0b0; stroke-width: 0.8; stroke-linecap: square"/>
     </g>
     <g id="line2d_18">
      <g>
       <use xlink:href="#m487d4ee34f" x="389.542998" y="777.6" style="stroke: #000000; stroke-width: 0.8"/>
      </g>
     </g>
     <g id="text_9">
      <!-- 33 -->
      <g transform="translate(383.180498 792.198438) scale(0.1 -0.1)">
       <use xlink:href="#DejaVuSans-33"/>
       <use xlink:href="#DejaVuSans-33" x="63.623047"/>
      </g>
     </g>
    </g>
    <g id="xtick_10">
     <g id="line2d_19">
      <path d="M 423.5086 777.6 
L 423.5086 86.4 
" clip-path="url(#p492e898bd6)" style="fill: none; stroke: #b0b0b0; stroke-width: 0.8; stroke-linecap: square"/>
     </g>
     <g id="line2d_20">
      <g>
       <use xlink:href="#m487d4ee34f" x="423.5086" y="777.6" style="stroke: #000000; stroke-width: 0.8"/>
      </g>
     </g>
     <g id="text_10">
      <!-- 37 -->
      <g transform="translate(417.1461 792.198438) scale(0.1 -0.1)">
       <use xlink:href="#DejaVuSans-33"/>
       <use xlink:href="#DejaVuSans-37" x="63.623047"/>
      </g>
     </g>
    </g>
    <g id="xtick_11">
     <g id="line2d_21">
      <path d="M 457.474201 777.6 
L 457.474201 86.4 
" clip-path="url(#p492e898bd6)" style="fill: none; stroke: #b0b0b0; stroke-width: 0.8; stroke-linecap: square"/>
     </g>
     <g id="line2d_22">
      <g>
       <use xlink:href="#m487d4ee34f" x="457.474201" y="777.6" style="stroke: #000000; stroke-width: 0.8"/>
      </g>
     </g>
     <g id="text_11">
      <!-- 41 -->
      <g transform="translate(451.111701 792.198438) scale(0.1 -0.1)">
       <defs>
        <path id="DejaVuSans-34" d="M 2419 4116 
L 825 1625 
L 2419 1625 
L 2419 4116 
z
M 2253 4666 
L 3047 4666 
L 3047 1625 
L 3713 1625 
L 3713 1100 
L 3047 1100 
L 3047 0 
L 2419 0 
L 2419 1100 
L 313 1100 
L 313 1709 
L 2253 4666 
z
" transform="scale(0.015625)"/>
       </defs>
       <use xlink:href="#DejaVuSans-34"/>
       <use xlink:href="#DejaVuSans-31" x="63.623047"/>
      </g>
     </g>
    </g>
    <g id="xtick_12">
     <g id="line2d_23">
      <path d="M 491.439803 777.6 
L 491.439803 86.4 
" clip-path="url(#p492e898bd6)" style="fill: none; stroke: #b0b0b0; stroke-width: 0.8; stroke-linecap: square"/>
     </g>
     <g id="line2d_24">
      <g>
       <use xlink:href="#m487d4ee34f" x="491.439803" y="777.6" style="stroke: #000000; stroke-width: 0.8"/>
      </g>
     </g>
     <g id="text_12">
      <!-- 45 -->
      <g transform="translate(485.077303 792.198438) scale(0.1 -0.1)">
       <use xlink:href="#DejaVuSans-34"/>
       <use xlink:href="#DejaVuSans-35" x="63.623047"/>
      </g>
     </g>
    </g>
    <g id="xtick_13">
     <g id="line2d_25">
      <path d="M 525.405405 777.6 
L 525.405405 86.4 
" clip-path="url(#p492e898bd6)" style="fill: none; stroke: #b0b0b0; stroke-width: 0.8; stroke-linecap: square"/>
     </g>
     <g id="line2d_26">
      <g>
       <use xlink:href="#m487d4ee34f" x="525.405405" y="777.6" style="stroke: #000000; stroke-width: 0.8"/>
      </g>
     </g>
     <g id="text_13">
      <!-- 49 -->
      <g transform="translate(519.042905 792.198438) scale(0.1 -0.1)">
       <use xlink:href="#DejaVuSans-34"/>
       <use xlink:href="#DejaVuSans-39" x="63.623047"/>
      </g>
     </g>
    </g>
    <g id="xtick_14">
     <g id="line2d_27">
      <path d="M 559.371007 777.6 
L 559.371007 86.4 
" clip-path="url(#p492e898bd6)" style="fill: none; stroke: #b0b0b0; stroke-width: 0.8; stroke-linecap: square"/>
     </g>
     <g id="line2d_28">
      <g>
       <use xlink:href="#m487d4ee34f" x="559.371007" y="777.6" style="stroke: #000000; stroke-width: 0.8"/>
      </g>
     </g>
     <g id="text_14">
      <!-- 53 -->
      <g transform="translate(553.008507 792.198438) scale(0.1 -0.1)">
       <use xlink:href="#DejaVuSans-35"/>
       <use xlink:href="#DejaVuSans-33" x="63.623047"/>
      </g>
     </g>
    </g>
    <g id="xtick_15">
     <g id="line2d_29">
      <path d="M 593.336609 777.6 
L 593.336609 86.4 
" clip-path="url(#p492e898bd6)" style="fill: none; stroke: #b0b0b0; stroke-width: 0.8; stroke-linecap: square"/>
     </g>
     <g id="line2d_30">
      <g>
       <use xlink:href="#m487d4ee34f" x="593.336609" y="777.6" style="stroke: #000000; stroke-width: 0.8"/>
      </g>
     </g>
     <g id="text_15">
      <!-- 57 -->
      <g transform="translate(586.974109 792.198438) scale(0.1 -0.1)">
       <use xlink:href="#DejaVuSans-35"/>
       <use xlink:href="#DejaVuSans-37" x="63.623047"/>
      </g>
     </g>
    </g>
    <g id="xtick_16">
     <g id="line2d_31">
      <path d="M 627.302211 777.6 
L 627.302211 86.4 
" clip-path="url(#p492e898bd6)" style="fill: none; stroke: #b0b0b0; stroke-width: 0.8; stroke-linecap: square"/>
     </g>
     <g id="line2d_32">
      <g>
       <use xlink:href="#m487d4ee34f" x="627.302211" y="777.6" style="stroke: #000000; stroke-width: 0.8"/>
      </g>
     </g>
     <g id="text_16">
      <!-- 61 -->
      <g transform="translate(620.939711 792.198438) scale(0.1 -0.1)">
       <defs>
        <path id="DejaVuSans-36" d="M 2113 2584 
Q 1688 2584 1439 2293 
Q 1191 2003 1191 1497 
Q 1191 994 1439 701 
Q 1688 409 2113 409 
Q 2538 409 2786 701 
Q 3034 994 3034 1497 
Q 3034 2003 2786 2293 
Q 2538 2584 2113 2584 
z
M 3366 4563 
L 3366 3988 
Q 3128 4100 2886 4159 
Q 2644 4219 2406 4219 
Q 1781 4219 1451 3797 
Q 1122 3375 1075 2522 
Q 1259 2794 1537 2939 
Q 1816 3084 2150 3084 
Q 2853 3084 3261 2657 
Q 3669 2231 3669 1497 
Q 3669 778 3244 343 
Q 2819 -91 2113 -91 
Q 1303 -91 875 529 
Q 447 1150 447 2328 
Q 447 3434 972 4092 
Q 1497 4750 2381 4750 
Q 2619 4750 2861 4703 
Q 3103 4656 3366 4563 
z
" transform="scale(0.015625)"/>
       </defs>
       <use xlink:href="#DejaVuSans-36"/>
       <use xlink:href="#DejaVuSans-31" x="63.623047"/>
      </g>
     </g>
    </g>
    <g id="xtick_17">
     <g id="line2d_33">
      <path d="M 661.267813 777.6 
L 661.267813 86.4 
" clip-path="url(#p492e898bd6)" style="fill: none; stroke: #b0b0b0; stroke-width: 0.8; stroke-linecap: square"/>
     </g>
     <g id="line2d_34">
      <g>
       <use xlink:href="#m487d4ee34f" x="661.267813" y="777.6" style="stroke: #000000; stroke-width: 0.8"/>
      </g>
     </g>
     <g id="text_17">
      <!-- 65 -->
      <g transform="translate(654.905313 792.198438) scale(0.1 -0.1)">
       <use xlink:href="#DejaVuSans-36"/>
       <use xlink:href="#DejaVuSans-35" x="63.623047"/>
      </g>
     </g>
    </g>
    <g id="xtick_18">
     <g id="line2d_35">
      <path d="M 695.233415 777.6 
L 695.233415 86.4 
" clip-path="url(#p492e898bd6)" style="fill: none; stroke: #b0b0b0; stroke-width: 0.8; stroke-linecap: square"/>
     </g>
     <g id="line2d_36">
      <g>
       <use xlink:href="#m487d4ee34f" x="695.233415" y="777.6" style="stroke: #000000; stroke-width: 0.8"/>
      </g>
     </g>
     <g id="text_18">
      <!-- 69 -->
      <g transform="translate(688.870915 792.198438) scale(0.1 -0.1)">
       <use xlink:href="#DejaVuSans-36"/>
       <use xlink:href="#DejaVuSans-39" x="63.623047"/>
      </g>
     </g>
    </g>
    <g id="xtick_19">
     <g id="line2d_37">
      <path d="M 729.199017 777.6 
L 729.199017 86.4 
" clip-path="url(#p492e898bd6)" style="fill: none; stroke: #b0b0b0; stroke-width: 0.8; stroke-linecap: square"/>
     </g>
     <g id="line2d_38">
      <g>
       <use xlink:href="#m487d4ee34f" x="729.199017" y="777.6" style="stroke: #000000; stroke-width: 0.8"/>
      </g>
     </g>
     <g id="text_19">
      <!-- 73 -->
      <g transform="translate(722.836517 792.198438) scale(0.1 -0.1)">
       <use xlink:href="#DejaVuSans-37"/>
       <use xlink:href="#DejaVuSans-33" x="63.623047"/>
      </g>
     </g>
    </g>
    <g id="xtick_20">
     <g id="line2d_39">
      <path d="M 746.181818 777.6 
L 746.181818 86.4 
" clip-path="url(#p492e898bd6)" style="fill: none; stroke: #b0b0b0; stroke-width: 0.8; stroke-linecap: square"/>
     </g>
     <g id="line2d_40">
      <g>
       <use xlink:href="#m487d4ee34f" x="746.181818" y="777.6" style="stroke: #000000; stroke-width: 0.8"/>
      </g>
     </g>
     <g id="text_20">
      <!-- 75 -->
      <g transform="translate(739.819318 792.198438) scale(0.1 -0.1)">
       <use xlink:href="#DejaVuSans-37"/>
       <use xlink:href="#DejaVuSans-35" x="63.623047"/>
      </g>
     </g>
    </g>
    <g id="text_21">
     <!-- Número de Atributos Usados -->
     <g transform="translate(360.252344 805.876562) scale(0.1 -0.1)">
      <defs>
       <path id="DejaVuSans-4e" d="M 628 4666 
L 1478 4666 
L 3547 763 
L 3547 4666 
L 4159 4666 
L 4159 0 
L 3309 0 
L 1241 3903 
L 1241 0 
L 628 0 
L 628 4666 
z
" transform="scale(0.015625)"/>
       <path id="DejaVuSans-fa" d="M 544 1381 
L 544 3500 
L 1119 3500 
L 1119 1403 
Q 1119 906 1312 657 
Q 1506 409 1894 409 
Q 2359 409 2629 706 
Q 2900 1003 2900 1516 
L 2900 3500 
L 3475 3500 
L 3475 0 
L 2900 0 
L 2900 538 
Q 2691 219 2414 64 
Q 2138 -91 1772 -91 
Q 1169 -91 856 284 
Q 544 659 544 1381 
z
M 1991 3584 
L 1991 3584 
z
M 2418 5119 
L 3040 5119 
L 2022 3944 
L 1543 3944 
L 2418 5119 
z
" transform="scale(0.015625)"/>
       <path id="DejaVuSans-6d" d="M 3328 2828 
Q 3544 3216 3844 3400 
Q 4144 3584 4550 3584 
Q 5097 3584 5394 3201 
Q 5691 2819 5691 2113 
L 5691 0 
L 5113 0 
L 5113 2094 
Q 5113 2597 4934 2840 
Q 4756 3084 4391 3084 
Q 3944 3084 3684 2787 
Q 3425 2491 3425 1978 
L 3425 0 
L 2847 0 
L 2847 2094 
Q 2847 2600 2669 2842 
Q 2491 3084 2119 3084 
Q 1678 3084 1418 2786 
Q 1159 2488 1159 1978 
L 1159 0 
L 581 0 
L 581 3500 
L 1159 3500 
L 1159 2956 
Q 1356 3278 1631 3431 
Q 1906 3584 2284 3584 
Q 2666 3584 2933 3390 
Q 3200 3197 3328 2828 
z
" transform="scale(0.015625)"/>
       <path id="DejaVuSans-65" d="M 3597 1894 
L 3597 1613 
L 953 1613 
Q 991 1019 1311 708 
Q 1631 397 2203 397 
Q 2534 397 2845 478 
Q 3156 559 3463 722 
L 3463 178 
Q 3153 47 2828 -22 
Q 2503 -91 2169 -91 
Q 1331 -91 842 396 
Q 353 884 353 1716 
Q 353 2575 817 3079 
Q 1281 3584 2069 3584 
Q 2775 3584 3186 3129 
Q 3597 2675 3597 1894 
z
M 3022 2063 
Q 3016 2534 2758 2815 
Q 2500 3097 2075 3097 
Q 1594 3097 1305 2825 
Q 1016 2553 972 2059 
L 3022 2063 
z
" transform="scale(0.015625)"/>
       <path id="DejaVuSans-72" d="M 2631 2963 
Q 2534 3019 2420 3045 
Q 2306 3072 2169 3072 
Q 1681 3072 1420 2755 
Q 1159 2438 1159 1844 
L 1159 0 
L 581 0 
L 581 3500 
L 1159 3500 
L 1159 2956 
Q 1341 3275 1631 3429 
Q 1922 3584 2338 3584 
Q 2397 3584 2469 3576 
Q 2541 3569 2628 3553 
L 2631 2963 
z
" transform="scale(0.015625)"/>
       <path id="DejaVuSans-6f" d="M 1959 3097 
Q 1497 3097 1228 2736 
Q 959 2375 959 1747 
Q 959 1119 1226 758 
Q 1494 397 1959 397 
Q 2419 397 2687 759 
Q 2956 1122 2956 1747 
Q 2956 2369 2687 2733 
Q 2419 3097 1959 3097 
z
M 1959 3584 
Q 2709 3584 3137 3096 
Q 3566 2609 3566 1747 
Q 3566 888 3137 398 
Q 2709 -91 1959 -91 
Q 1206 -91 779 398 
Q 353 888 353 1747 
Q 353 2609 779 3096 
Q 1206 3584 1959 3584 
z
" transform="scale(0.015625)"/>
       <path id="DejaVuSans-20" transform="scale(0.015625)"/>
       <path id="DejaVuSans-64" d="M 2906 2969 
L 2906 4863 
L 3481 4863 
L 3481 0 
L 2906 0 
L 2906 525 
Q 2725 213 2448 61 
Q 2172 -91 1784 -91 
Q 1150 -91 751 415 
Q 353 922 353 1747 
Q 353 2572 751 3078 
Q 1150 3584 1784 3584 
Q 2172 3584 2448 3432 
Q 2725 3281 2906 2969 
z
M 947 1747 
Q 947 1113 1208 752 
Q 1469 391 1925 391 
Q 2381 391 2643 752 
Q 2906 1113 2906 1747 
Q 2906 2381 2643 2742 
Q 2381 3103 1925 3103 
Q 1469 3103 1208 2742 
Q 947 2381 947 1747 
z
" transform="scale(0.015625)"/>
       <path id="DejaVuSans-41" d="M 2188 4044 
L 1331 1722 
L 3047 1722 
L 2188 4044 
z
M 1831 4666 
L 2547 4666 
L 4325 0 
L 3669 0 
L 3244 1197 
L 1141 1197 
L 716 0 
L 50 0 
L 1831 4666 
z
" transform="scale(0.015625)"/>
       <path id="DejaVuSans-74" d="M 1172 4494 
L 1172 3500 
L 2356 3500 
L 2356 3053 
L 1172 3053 
L 1172 1153 
Q 1172 725 1289 603 
Q 1406 481 1766 481 
L 2356 481 
L 2356 0 
L 1766 0 
Q 1100 0 847 248 
Q 594 497 594 1153 
L 594 3053 
L 172 3053 
L 172 3500 
L 594 3500 
L 594 4494 
L 1172 4494 
z
" transform="scale(0.015625)"/>
       <path id="DejaVuSans-69" d="M 603 3500 
L 1178 3500 
L 1178 0 
L 603 0 
L 603 3500 
z
M 603 4863 
L 1178 4863 
L 1178 4134 
L 603 4134 
L 603 4863 
z
" transform="scale(0.015625)"/>
       <path id="DejaVuSans-62" d="M 3116 1747 
Q 3116 2381 2855 2742 
Q 2594 3103 2138 3103 
Q 1681 3103 1420 2742 
Q 1159 2381 1159 1747 
Q 1159 1113 1420 752 
Q 1681 391 2138 391 
Q 2594 391 2855 752 
Q 3116 1113 3116 1747 
z
M 1159 2969 
Q 1341 3281 1617 3432 
Q 1894 3584 2278 3584 
Q 2916 3584 3314 3078 
Q 3713 2572 3713 1747 
Q 3713 922 3314 415 
Q 2916 -91 2278 -91 
Q 1894 -91 1617 61 
Q 1341 213 1159 525 
L 1159 0 
L 581 0 
L 581 4863 
L 1159 4863 
L 1159 2969 
z
" transform="scale(0.015625)"/>
       <path id="DejaVuSans-75" d="M 544 1381 
L 544 3500 
L 1119 3500 
L 1119 1403 
Q 1119 906 1312 657 
Q 1506 409 1894 409 
Q 2359 409 2629 706 
Q 2900 1003 2900 1516 
L 2900 3500 
L 3475 3500 
L 3475 0 
L 2900 0 
L 2900 538 
Q 2691 219 2414 64 
Q 2138 -91 1772 -91 
Q 1169 -91 856 284 
Q 544 659 544 1381 
z
M 1991 3584 
L 1991 3584 
z
" transform="scale(0.015625)"/>
       <path id="DejaVuSans-73" d="M 2834 3397 
L 2834 2853 
Q 2591 2978 2328 3040 
Q 2066 3103 1784 3103 
Q 1356 3103 1142 2972 
Q 928 2841 928 2578 
Q 928 2378 1081 2264 
Q 1234 2150 1697 2047 
L 1894 2003 
Q 2506 1872 2764 1633 
Q 3022 1394 3022 966 
Q 3022 478 2636 193 
Q 2250 -91 1575 -91 
Q 1294 -91 989 -36 
Q 684 19 347 128 
L 347 722 
Q 666 556 975 473 
Q 1284 391 1588 391 
Q 1994 391 2212 530 
Q 2431 669 2431 922 
Q 2431 1156 2273 1281 
Q 2116 1406 1581 1522 
L 1381 1569 
Q 847 1681 609 1914 
Q 372 2147 372 2553 
Q 372 3047 722 3315 
Q 1072 3584 1716 3584 
Q 2034 3584 2315 3537 
Q 2597 3491 2834 3397 
z
" transform="scale(0.015625)"/>
       <path id="DejaVuSans-55" d="M 556 4666 
L 1191 4666 
L 1191 1831 
Q 1191 1081 1462 751 
Q 1734 422 2344 422 
Q 2950 422 3222 751 
Q 3494 1081 3494 1831 
L 3494 4666 
L 4128 4666 
L 4128 1753 
Q 4128 841 3676 375 
Q 3225 -91 2344 -91 
Q 1459 -91 1007 375 
Q 556 841 556 1753 
L 556 4666 
z
" transform="scale(0.015625)"/>
       <path id="DejaVuSans-61" d="M 2194 1759 
Q 1497 1759 1228 1600 
Q 959 1441 959 1056 
Q 959 750 1161 570 
Q 1363 391 1709 391 
Q 2188 391 2477 730 
Q 2766 1069 2766 1631 
L 2766 1759 
L 2194 1759 
z
M 3341 1997 
L 3341 0 
L 2766 0 
L 2766 531 
Q 2569 213 2275 61 
Q 1981 -91 1556 -91 
Q 1019 -91 701 211 
Q 384 513 384 1019 
Q 384 1609 779 1909 
Q 1175 2209 1959 2209 
L 2766 2209 
L 2766 2266 
Q 2766 2663 2505 2880 
Q 2244 3097 1772 3097 
Q 1472 3097 1187 3025 
Q 903 2953 641 2809 
L 641 3341 
Q 956 3463 1253 3523 
Q 1550 3584 1831 3584 
Q 2591 3584 2966 3190 
Q 3341 2797 3341 1997 
z
" transform="scale(0.015625)"/>
      </defs>
      <use xlink:href="#DejaVuSans-4e"/>
      <use xlink:href="#DejaVuSans-fa" x="74.804688"/>
      <use xlink:href="#DejaVuSans-6d" x="138.183594"/>
      <use xlink:href="#DejaVuSans-65" x="235.595703"/>
      <use xlink:href="#DejaVuSans-72" x="297.119141"/>
      <use xlink:href="#DejaVuSans-6f" x="335.982422"/>
      <use xlink:href="#DejaVuSans-20" x="397.164062"/>
      <use xlink:href="#DejaVuSans-64" x="428.951172"/>
      <use xlink:href="#DejaVuSans-65" x="492.427734"/>
      <use xlink:href="#DejaVuSans-20" x="553.951172"/>
      <use xlink:href="#DejaVuSans-41" x="585.738281"/>
      <use xlink:href="#DejaVuSans-74" x="652.396484"/>
      <use xlink:href="#DejaVuSans-72" x="691.605469"/>
      <use xlink:href="#DejaVuSans-69" x="732.71875"/>
      <use xlink:href="#DejaVuSans-62" x="760.501953"/>
      <use xlink:href="#DejaVuSans-75" x="823.978516"/>
      <use xlink:href="#DejaVuSans-74" x="887.357422"/>
      <use xlink:href="#DejaVuSans-6f" x="926.566406"/>
      <use xlink:href="#DejaVuSans-73" x="987.748047"/>
      <use xlink:href="#DejaVuSans-20" x="1039.847656"/>
      <use xlink:href="#DejaVuSans-55" x="1071.634766"/>
      <use xlink:href="#DejaVuSans-73" x="1144.828125"/>
      <use xlink:href="#DejaVuSans-61" x="1196.927734"/>
      <use xlink:href="#DejaVuSans-64" x="1258.207031"/>
      <use xlink:href="#DejaVuSans-6f" x="1321.683594"/>
      <use xlink:href="#DejaVuSans-73" x="1382.865234"/>
     </g>
    </g>
   </g>
   <g id="matplotlib.axis_2">
    <g id="ytick_1">
     <g id="line2d_41">
      <path d="M 86.4 756.82863 
L 777.6 756.82863 
" clip-path="url(#p492e898bd6)" style="fill: none; stroke: #b0b0b0; stroke-width: 0.8; stroke-linecap: square"/>
     </g>
     <g id="line2d_42">
      <defs>
       <path id="m7bbaaa3975" d="M 0 0 
L -3.5 0 
" style="stroke: #000000; stroke-width: 0.8"/>
      </defs>
      <g>
       <use xlink:href="#m7bbaaa3975" x="86.4" y="756.82863" style="stroke: #000000; stroke-width: 0.8"/>
      </g>
     </g>
     <g id="text_22">
      <!-- 0.61 -->
      <g transform="translate(57.134375 760.627849) scale(0.1 -0.1)">
       <defs>
        <path id="DejaVuSans-30" d="M 2034 4250 
Q 1547 4250 1301 3770 
Q 1056 3291 1056 2328 
Q 1056 1369 1301 889 
Q 1547 409 2034 409 
Q 2525 409 2770 889 
Q 3016 1369 3016 2328 
Q 3016 3291 2770 3770 
Q 2525 4250 2034 4250 
z
M 2034 4750 
Q 2819 4750 3233 4129 
Q 3647 3509 3647 2328 
Q 3647 1150 3233 529 
Q 2819 -91 2034 -91 
Q 1250 -91 836 529 
Q 422 1150 422 2328 
Q 422 3509 836 4129 
Q 1250 4750 2034 4750 
z
" transform="scale(0.015625)"/>
        <path id="DejaVuSans-2e" d="M 684 794 
L 1344 794 
L 1344 0 
L 684 0 
L 684 794 
z
" transform="scale(0.015625)"/>
       </defs>
       <use xlink:href="#DejaVuSans-30"/>
       <use xlink:href="#DejaVuSans-2e" x="63.623047"/>
       <use xlink:href="#DejaVuSans-36" x="95.410156"/>
       <use xlink:href="#DejaVuSans-31" x="159.033203"/>
      </g>
     </g>
    </g>
    <g id="ytick_2">
     <g id="line2d_43">
      <path d="M 86.4 717.912119 
L 777.6 717.912119 
" clip-path="url(#p492e898bd6)" style="fill: none; stroke: #b0b0b0; stroke-width: 0.8; stroke-linecap: square"/>
     </g>
     <g id="line2d_44">
      <g>
       <use xlink:href="#m7bbaaa3975" x="86.4" y="717.912119" style="stroke: #000000; stroke-width: 0.8"/>
      </g>
     </g>
     <g id="text_23">
      <!-- 0.63 -->
      <g transform="translate(57.134375 721.711338) scale(0.1 -0.1)">
       <use xlink:href="#DejaVuSans-30"/>
       <use xlink:href="#DejaVuSans-2e" x="63.623047"/>
       <use xlink:href="#DejaVuSans-36" x="95.410156"/>
       <use xlink:href="#DejaVuSans-33" x="159.033203"/>
      </g>
     </g>
    </g>
    <g id="ytick_3">
     <g id="line2d_45">
      <path d="M 86.4 678.995609 
L 777.6 678.995609 
" clip-path="url(#p492e898bd6)" style="fill: none; stroke: #b0b0b0; stroke-width: 0.8; stroke-linecap: square"/>
     </g>
     <g id="line2d_46">
      <g>
       <use xlink:href="#m7bbaaa3975" x="86.4" y="678.995609" style="stroke: #000000; stroke-width: 0.8"/>
      </g>
     </g>
     <g id="text_24">
      <!-- 0.65 -->
      <g transform="translate(57.134375 682.794827) scale(0.1 -0.1)">
       <use xlink:href="#DejaVuSans-30"/>
       <use xlink:href="#DejaVuSans-2e" x="63.623047"/>
       <use xlink:href="#DejaVuSans-36" x="95.410156"/>
       <use xlink:href="#DejaVuSans-35" x="159.033203"/>
      </g>
     </g>
    </g>
    <g id="ytick_4">
     <g id="line2d_47">
      <path d="M 86.4 640.079098 
L 777.6 640.079098 
" clip-path="url(#p492e898bd6)" style="fill: none; stroke: #b0b0b0; stroke-width: 0.8; stroke-linecap: square"/>
     </g>
     <g id="line2d_48">
      <g>
       <use xlink:href="#m7bbaaa3975" x="86.4" y="640.079098" style="stroke: #000000; stroke-width: 0.8"/>
      </g>
     </g>
     <g id="text_25">
      <!-- 0.67 -->
      <g transform="translate(57.134375 643.878317) scale(0.1 -0.1)">
       <use xlink:href="#DejaVuSans-30"/>
       <use xlink:href="#DejaVuSans-2e" x="63.623047"/>
       <use xlink:href="#DejaVuSans-36" x="95.410156"/>
       <use xlink:href="#DejaVuSans-37" x="159.033203"/>
      </g>
     </g>
    </g>
    <g id="ytick_5">
     <g id="line2d_49">
      <path d="M 86.4 601.162587 
L 777.6 601.162587 
" clip-path="url(#p492e898bd6)" style="fill: none; stroke: #b0b0b0; stroke-width: 0.8; stroke-linecap: square"/>
     </g>
     <g id="line2d_50">
      <g>
       <use xlink:href="#m7bbaaa3975" x="86.4" y="601.162587" style="stroke: #000000; stroke-width: 0.8"/>
      </g>
     </g>
     <g id="text_26">
      <!-- 0.69 -->
      <g transform="translate(57.134375 604.961806) scale(0.1 -0.1)">
       <use xlink:href="#DejaVuSans-30"/>
       <use xlink:href="#DejaVuSans-2e" x="63.623047"/>
       <use xlink:href="#DejaVuSans-36" x="95.410156"/>
       <use xlink:href="#DejaVuSans-39" x="159.033203"/>
      </g>
     </g>
    </g>
    <g id="ytick_6">
     <g id="line2d_51">
      <path d="M 86.4 562.246077 
L 777.6 562.246077 
" clip-path="url(#p492e898bd6)" style="fill: none; stroke: #b0b0b0; stroke-width: 0.8; stroke-linecap: square"/>
     </g>
     <g id="line2d_52">
      <g>
       <use xlink:href="#m7bbaaa3975" x="86.4" y="562.246077" style="stroke: #000000; stroke-width: 0.8"/>
      </g>
     </g>
     <g id="text_27">
      <!-- 0.71 -->
      <g transform="translate(57.134375 566.045295) scale(0.1 -0.1)">
       <use xlink:href="#DejaVuSans-30"/>
       <use xlink:href="#DejaVuSans-2e" x="63.623047"/>
       <use xlink:href="#DejaVuSans-37" x="95.410156"/>
       <use xlink:href="#DejaVuSans-31" x="159.033203"/>
      </g>
     </g>
    </g>
    <g id="ytick_7">
     <g id="line2d_53">
      <path d="M 86.4 523.329566 
L 777.6 523.329566 
" clip-path="url(#p492e898bd6)" style="fill: none; stroke: #b0b0b0; stroke-width: 0.8; stroke-linecap: square"/>
     </g>
     <g id="line2d_54">
      <g>
       <use xlink:href="#m7bbaaa3975" x="86.4" y="523.329566" style="stroke: #000000; stroke-width: 0.8"/>
      </g>
     </g>
     <g id="text_28">
      <!-- 0.73 -->
      <g transform="translate(57.134375 527.128785) scale(0.1 -0.1)">
       <use xlink:href="#DejaVuSans-30"/>
       <use xlink:href="#DejaVuSans-2e" x="63.623047"/>
       <use xlink:href="#DejaVuSans-37" x="95.410156"/>
       <use xlink:href="#DejaVuSans-33" x="159.033203"/>
      </g>
     </g>
    </g>
    <g id="ytick_8">
     <g id="line2d_55">
      <path d="M 86.4 484.413055 
L 777.6 484.413055 
" clip-path="url(#p492e898bd6)" style="fill: none; stroke: #b0b0b0; stroke-width: 0.8; stroke-linecap: square"/>
     </g>
     <g id="line2d_56">
      <g>
       <use xlink:href="#m7bbaaa3975" x="86.4" y="484.413055" style="stroke: #000000; stroke-width: 0.8"/>
      </g>
     </g>
     <g id="text_29">
      <!-- 0.75 -->
      <g transform="translate(57.134375 488.212274) scale(0.1 -0.1)">
       <use xlink:href="#DejaVuSans-30"/>
       <use xlink:href="#DejaVuSans-2e" x="63.623047"/>
       <use xlink:href="#DejaVuSans-37" x="95.410156"/>
       <use xlink:href="#DejaVuSans-35" x="159.033203"/>
      </g>
     </g>
    </g>
    <g id="ytick_9">
     <g id="line2d_57">
      <path d="M 86.4 445.496544 
L 777.6 445.496544 
" clip-path="url(#p492e898bd6)" style="fill: none; stroke: #b0b0b0; stroke-width: 0.8; stroke-linecap: square"/>
     </g>
     <g id="line2d_58">
      <g>
       <use xlink:href="#m7bbaaa3975" x="86.4" y="445.496544" style="stroke: #000000; stroke-width: 0.8"/>
      </g>
     </g>
     <g id="text_30">
      <!-- 0.77 -->
      <g transform="translate(57.134375 449.295763) scale(0.1 -0.1)">
       <use xlink:href="#DejaVuSans-30"/>
       <use xlink:href="#DejaVuSans-2e" x="63.623047"/>
       <use xlink:href="#DejaVuSans-37" x="95.410156"/>
       <use xlink:href="#DejaVuSans-37" x="159.033203"/>
      </g>
     </g>
    </g>
    <g id="ytick_10">
     <g id="line2d_59">
      <path d="M 86.4 406.580034 
L 777.6 406.580034 
" clip-path="url(#p492e898bd6)" style="fill: none; stroke: #b0b0b0; stroke-width: 0.8; stroke-linecap: square"/>
     </g>
     <g id="line2d_60">
      <g>
       <use xlink:href="#m7bbaaa3975" x="86.4" y="406.580034" style="stroke: #000000; stroke-width: 0.8"/>
      </g>
     </g>
     <g id="text_31">
      <!-- 0.79 -->
      <g transform="translate(57.134375 410.379253) scale(0.1 -0.1)">
       <use xlink:href="#DejaVuSans-30"/>
       <use xlink:href="#DejaVuSans-2e" x="63.623047"/>
       <use xlink:href="#DejaVuSans-37" x="95.410156"/>
       <use xlink:href="#DejaVuSans-39" x="159.033203"/>
      </g>
     </g>
    </g>
    <g id="ytick_11">
     <g id="line2d_61">
      <path d="M 86.4 367.663523 
L 777.6 367.663523 
" clip-path="url(#p492e898bd6)" style="fill: none; stroke: #b0b0b0; stroke-width: 0.8; stroke-linecap: square"/>
     </g>
     <g id="line2d_62">
      <g>
       <use xlink:href="#m7bbaaa3975" x="86.4" y="367.663523" style="stroke: #000000; stroke-width: 0.8"/>
      </g>
     </g>
     <g id="text_32">
      <!-- 0.81 -->
      <g transform="translate(57.134375 371.462742) scale(0.1 -0.1)">
       <defs>
        <path id="DejaVuSans-38" d="M 2034 2216 
Q 1584 2216 1326 1975 
Q 1069 1734 1069 1313 
Q 1069 891 1326 650 
Q 1584 409 2034 409 
Q 2484 409 2743 651 
Q 3003 894 3003 1313 
Q 3003 1734 2745 1975 
Q 2488 2216 2034 2216 
z
M 1403 2484 
Q 997 2584 770 2862 
Q 544 3141 544 3541 
Q 544 4100 942 4425 
Q 1341 4750 2034 4750 
Q 2731 4750 3128 4425 
Q 3525 4100 3525 3541 
Q 3525 3141 3298 2862 
Q 3072 2584 2669 2484 
Q 3125 2378 3379 2068 
Q 3634 1759 3634 1313 
Q 3634 634 3220 271 
Q 2806 -91 2034 -91 
Q 1263 -91 848 271 
Q 434 634 434 1313 
Q 434 1759 690 2068 
Q 947 2378 1403 2484 
z
M 1172 3481 
Q 1172 3119 1398 2916 
Q 1625 2713 2034 2713 
Q 2441 2713 2670 2916 
Q 2900 3119 2900 3481 
Q 2900 3844 2670 4047 
Q 2441 4250 2034 4250 
Q 1625 4250 1398 4047 
Q 1172 3844 1172 3481 
z
" transform="scale(0.015625)"/>
       </defs>
       <use xlink:href="#DejaVuSans-30"/>
       <use xlink:href="#DejaVuSans-2e" x="63.623047"/>
       <use xlink:href="#DejaVuSans-38" x="95.410156"/>
       <use xlink:href="#DejaVuSans-31" x="159.033203"/>
      </g>
     </g>
    </g>
    <g id="ytick_12">
     <g id="line2d_63">
      <path d="M 86.4 328.747012 
L 777.6 328.747012 
" clip-path="url(#p492e898bd6)" style="fill: none; stroke: #b0b0b0; stroke-width: 0.8; stroke-linecap: square"/>
     </g>
     <g id="line2d_64">
      <g>
       <use xlink:href="#m7bbaaa3975" x="86.4" y="328.747012" style="stroke: #000000; stroke-width: 0.8"/>
      </g>
     </g>
     <g id="text_33">
      <!-- 0.83 -->
      <g transform="translate(57.134375 332.546231) scale(0.1 -0.1)">
       <use xlink:href="#DejaVuSans-30"/>
       <use xlink:href="#DejaVuSans-2e" x="63.623047"/>
       <use xlink:href="#DejaVuSans-38" x="95.410156"/>
       <use xlink:href="#DejaVuSans-33" x="159.033203"/>
      </g>
     </g>
    </g>
    <g id="ytick_13">
     <g id="line2d_65">
      <path d="M 86.4 289.830502 
L 777.6 289.830502 
" clip-path="url(#p492e898bd6)" style="fill: none; stroke: #b0b0b0; stroke-width: 0.8; stroke-linecap: square"/>
     </g>
     <g id="line2d_66">
      <g>
       <use xlink:href="#m7bbaaa3975" x="86.4" y="289.830502" style="stroke: #000000; stroke-width: 0.8"/>
      </g>
     </g>
     <g id="text_34">
      <!-- 0.85 -->
      <g transform="translate(57.134375 293.629721) scale(0.1 -0.1)">
       <use xlink:href="#DejaVuSans-30"/>
       <use xlink:href="#DejaVuSans-2e" x="63.623047"/>
       <use xlink:href="#DejaVuSans-38" x="95.410156"/>
       <use xlink:href="#DejaVuSans-35" x="159.033203"/>
      </g>
     </g>
    </g>
    <g id="ytick_14">
     <g id="line2d_67">
      <path d="M 86.4 250.913991 
L 777.6 250.913991 
" clip-path="url(#p492e898bd6)" style="fill: none; stroke: #b0b0b0; stroke-width: 0.8; stroke-linecap: square"/>
     </g>
     <g id="line2d_68">
      <g>
       <use xlink:href="#m7bbaaa3975" x="86.4" y="250.913991" style="stroke: #000000; stroke-width: 0.8"/>
      </g>
     </g>
     <g id="text_35">
      <!-- 0.87 -->
      <g transform="translate(57.134375 254.71321) scale(0.1 -0.1)">
       <use xlink:href="#DejaVuSans-30"/>
       <use xlink:href="#DejaVuSans-2e" x="63.623047"/>
       <use xlink:href="#DejaVuSans-38" x="95.410156"/>
       <use xlink:href="#DejaVuSans-37" x="159.033203"/>
      </g>
     </g>
    </g>
    <g id="ytick_15">
     <g id="line2d_69">
      <path d="M 86.4 211.99748 
L 777.6 211.99748 
" clip-path="url(#p492e898bd6)" style="fill: none; stroke: #b0b0b0; stroke-width: 0.8; stroke-linecap: square"/>
     </g>
     <g id="line2d_70">
      <g>
       <use xlink:href="#m7bbaaa3975" x="86.4" y="211.99748" style="stroke: #000000; stroke-width: 0.8"/>
      </g>
     </g>
     <g id="text_36">
      <!-- 0.89 -->
      <g transform="translate(57.134375 215.796699) scale(0.1 -0.1)">
       <use xlink:href="#DejaVuSans-30"/>
       <use xlink:href="#DejaVuSans-2e" x="63.623047"/>
       <use xlink:href="#DejaVuSans-38" x="95.410156"/>
       <use xlink:href="#DejaVuSans-39" x="159.033203"/>
      </g>
     </g>
    </g>
    <g id="ytick_16">
     <g id="line2d_71">
      <path d="M 86.4 173.08097 
L 777.6 173.08097 
" clip-path="url(#p492e898bd6)" style="fill: none; stroke: #b0b0b0; stroke-width: 0.8; stroke-linecap: square"/>
     </g>
     <g id="line2d_72">
      <g>
       <use xlink:href="#m7bbaaa3975" x="86.4" y="173.08097" style="stroke: #000000; stroke-width: 0.8"/>
      </g>
     </g>
     <g id="text_37">
      <!-- 0.91 -->
      <g transform="translate(57.134375 176.880188) scale(0.1 -0.1)">
       <use xlink:href="#DejaVuSans-30"/>
       <use xlink:href="#DejaVuSans-2e" x="63.623047"/>
       <use xlink:href="#DejaVuSans-39" x="95.410156"/>
       <use xlink:href="#DejaVuSans-31" x="159.033203"/>
      </g>
     </g>
    </g>
    <g id="ytick_17">
     <g id="line2d_73">
      <path d="M 86.4 134.164459 
L 777.6 134.164459 
" clip-path="url(#p492e898bd6)" style="fill: none; stroke: #b0b0b0; stroke-width: 0.8; stroke-linecap: square"/>
     </g>
     <g id="line2d_74">
      <g>
       <use xlink:href="#m7bbaaa3975" x="86.4" y="134.164459" style="stroke: #000000; stroke-width: 0.8"/>
      </g>
     </g>
     <g id="text_38">
      <!-- 0.93 -->
      <g transform="translate(57.134375 137.963678) scale(0.1 -0.1)">
       <use xlink:href="#DejaVuSans-30"/>
       <use xlink:href="#DejaVuSans-2e" x="63.623047"/>
       <use xlink:href="#DejaVuSans-39" x="95.410156"/>
       <use xlink:href="#DejaVuSans-33" x="159.033203"/>
      </g>
     </g>
    </g>
    <g id="ytick_18">
     <g id="line2d_75">
      <path d="M 86.4 95.247948 
L 777.6 95.247948 
" clip-path="url(#p492e898bd6)" style="fill: none; stroke: #b0b0b0; stroke-width: 0.8; stroke-linecap: square"/>
     </g>
     <g id="line2d_76">
      <g>
       <use xlink:href="#m7bbaaa3975" x="86.4" y="95.247948" style="stroke: #000000; stroke-width: 0.8"/>
      </g>
     </g>
     <g id="text_39">
      <!-- 0.95 -->
      <g transform="translate(57.134375 99.047167) scale(0.1 -0.1)">
       <use xlink:href="#DejaVuSans-30"/>
       <use xlink:href="#DejaVuSans-2e" x="63.623047"/>
       <use xlink:href="#DejaVuSans-39" x="95.410156"/>
       <use xlink:href="#DejaVuSans-35" x="159.033203"/>
      </g>
     </g>
    </g>
    <g id="text_40">
     <!-- R2 -->
     <g transform="translate(51.054688 438.655469) rotate(-90) scale(0.1 -0.1)">
      <defs>
       <path id="DejaVuSans-52" d="M 2841 2188 
Q 3044 2119 3236 1894 
Q 3428 1669 3622 1275 
L 4263 0 
L 3584 0 
L 2988 1197 
Q 2756 1666 2539 1819 
Q 2322 1972 1947 1972 
L 1259 1972 
L 1259 0 
L 628 0 
L 628 4666 
L 2053 4666 
Q 2853 4666 3247 4331 
Q 3641 3997 3641 3322 
Q 3641 2881 3436 2590 
Q 3231 2300 2841 2188 
z
M 1259 4147 
L 1259 2491 
L 2053 2491 
Q 2509 2491 2742 2702 
Q 2975 2913 2975 3322 
Q 2975 3731 2742 3939 
Q 2509 4147 2053 4147 
L 1259 4147 
z
" transform="scale(0.015625)"/>
      </defs>
      <use xlink:href="#DejaVuSans-52"/>
      <use xlink:href="#DejaVuSans-32" x="69.482422"/>
     </g>
    </g>
   </g>
   <g id="line2d_77">
    <path d="M 117.818182 731.103854 
L 126.309582 584.636498 
L 134.800983 441.918609 
L 143.292383 378.94732 
L 151.783784 359.989229 
L 160.275184 335.643743 
L 168.766585 330.054838 
L 177.257985 320.596399 
L 185.749386 274.720122 
L 194.240786 275.311957 
L 202.732187 275.389915 
L 211.223587 275.105545 
L 219.714988 275.859758 
L 228.206388 275.748921 
L 236.697789 279.120467 
L 245.189189 278.854334 
L 253.68059 279.301799 
L 262.17199 281.947279 
L 270.663391 282.052161 
L 279.154791 281.094365 
L 287.646192 280.380176 
L 296.137592 280.90993 
L 304.628993 275.03433 
L 313.120393 277.280633 
L 321.611794 276.18159 
L 330.103194 276.204022 
L 338.594595 262.490776 
L 347.085995 253.603485 
L 355.577396 245.95401 
L 364.068796 244.184505 
L 372.560197 243.678461 
L 381.051597 234.983582 
L 389.542998 234.57369 
L 398.034398 236.677228 
L 406.525799 236.628406 
L 415.017199 236.485156 
L 423.5086 236.658796 
L 432 237.237568 
L 440.4914 237.225143 
L 448.982801 237.292299 
L 457.474201 234.647061 
L 465.965602 234.649588 
L 474.457002 234.736734 
L 482.948403 234.669539 
L 491.439803 234.157503 
L 499.931204 234.121573 
L 508.422604 232.985542 
L 516.914005 230.466684 
L 525.405405 230.388691 
L 533.896806 229.847139 
L 542.388206 230.839217 
L 550.879607 226.704972 
L 559.371007 225.72255 
L 567.862408 225.632926 
L 576.353808 226.458069 
L 584.845209 224.419475 
L 593.336609 224.949971 
L 601.82801 225.00528 
L 610.31941 209.330541 
L 618.810811 206.088217 
L 627.302211 203.479328 
L 635.793612 201.611359 
L 644.285012 197.892861 
L 652.776413 198.111241 
L 661.267813 197.899916 
L 669.759214 197.901394 
L 678.250614 197.857307 
L 686.742015 197.244118 
L 695.233415 197.126524 
L 703.724816 197.075097 
L 712.216216 197.066737 
L 720.707617 197.100971 
L 729.199017 197.104023 
L 737.690418 197.130463 
L 746.181818 197.121 
" clip-path="url(#p492e898bd6)" style="fill: none; stroke: #1f77b4; stroke-width: 1.5; stroke-linecap: square"/>
   </g>
   <g id="line2d_78">
    <path d="M 117.818182 731.027508 
L 126.309582 584.168649 
L 134.800983 441.664798 
L 143.292383 378.775827 
L 151.783784 359.726925 
L 160.275184 335.602858 
L 168.766585 329.934907 
L 177.257985 320.834156 
L 185.749386 275.34809 
L 194.240786 275.830681 
L 202.732187 275.834876 
L 211.223587 275.495397 
L 219.714988 275.845736 
L 228.206388 274.469543 
L 236.697789 278.163862 
L 245.189189 278.162772 
L 253.68059 278.074136 
L 262.17199 278.959654 
L 270.663391 278.831741 
L 279.154791 277.853731 
L 287.646192 277.151127 
L 296.137592 277.373195 
L 304.628993 271.342079 
L 313.120393 272.613193 
L 321.611794 271.404474 
L 330.103194 271.404484 
L 338.594595 259.137436 
L 347.085995 250.909295 
L 355.577396 242.87019 
L 364.068796 241.207031 
L 372.560197 240.89425 
L 381.051597 231.291821 
L 389.542998 230.901929 
L 398.034398 232.396403 
L 406.525799 232.388927 
L 415.017199 232.387762 
L 423.5086 232.387658 
L 432 232.47852 
L 440.4914 232.478556 
L 448.982801 232.621843 
L 457.474201 230.085857 
L 465.965602 230.085897 
L 474.457002 230.062126 
L 482.948403 229.876996 
L 491.439803 229.72335 
L 499.931204 229.723268 
L 508.422604 228.678764 
L 516.914005 226.285153 
L 525.405405 226.207509 
L 533.896806 225.198646 
L 542.388206 226.130459 
L 550.879607 222.903265 
L 559.371007 221.881163 
L 567.862408 221.881142 
L 576.353808 222.395392 
L 584.845209 221.822483 
L 593.336609 222.155595 
L 601.82801 222.155649 
L 610.31941 206.354018 
L 618.810811 203.706619 
L 627.302211 201.306905 
L 635.793612 199.763591 
L 644.285012 196.425387 
L 652.776413 196.635107 
L 661.267813 196.635119 
L 669.759214 196.676172 
L 678.250614 196.676172 
L 686.742015 196.556286 
L 695.233415 196.176999 
L 703.724816 196.176999 
L 712.216216 196.176999 
L 720.707617 196.177001 
L 729.199017 196.408197 
L 737.690418 196.406131 
L 746.181818 196.406132 
" clip-path="url(#p492e898bd6)" style="fill: none; stroke: #aec7e8; stroke-width: 1.5; stroke-linecap: square"/>
   </g>
   <g id="line2d_79">
    <path d="M 117.818182 730.825936 
L 126.309582 582.786682 
L 134.800983 441.167307 
L 143.292383 378.261381 
L 151.783784 359.215301 
L 160.275184 335.141741 
L 168.766585 329.605338 
L 177.257985 320.259199 
L 185.749386 275.137366 
L 194.240786 275.764202 
L 202.732187 275.756492 
L 211.223587 275.485605 
L 219.714988 275.954245 
L 228.206388 275.037321 
L 236.697789 279.191779 
L 245.189189 279.045909 
L 253.68059 279.193358 
L 262.17199 279.541014 
L 270.663391 279.21829 
L 279.154791 278.60816 
L 287.646192 277.799212 
L 296.137592 278.290514 
L 304.628993 272.47513 
L 313.120393 274.525187 
L 321.611794 273.370313 
L 330.103194 273.375258 
L 338.594595 259.096503 
L 347.085995 250.787141 
L 355.577396 243.161536 
L 364.068796 241.491328 
L 372.560197 240.968494 
L 381.051597 232.562481 
L 389.542998 232.103019 
L 398.034398 234.344246 
L 406.525799 234.299126 
L 415.017199 234.173597 
L 423.5086 234.008721 
L 432 234.414235 
L 440.4914 234.431346 
L 448.982801 234.496626 
L 457.474201 231.989162 
L 465.965602 231.932446 
L 474.457002 231.592624 
L 482.948403 231.456798 
L 491.439803 230.948255 
L 499.931204 230.899965 
L 508.422604 229.731074 
L 516.914005 227.237411 
L 525.405405 227.478738 
L 533.896806 226.869035 
L 542.388206 227.738077 
L 550.879607 223.626093 
L 559.371007 222.798854 
L 567.862408 222.668515 
L 576.353808 223.391775 
L 584.845209 221.7212 
L 593.336609 222.330606 
L 601.82801 222.338526 
L 610.31941 207.047905 
L 618.810811 203.850541 
L 627.302211 201.398653 
L 635.793612 199.407703 
L 644.285012 195.906925 
L 652.776413 196.232311 
L 661.267813 196.044535 
L 669.759214 196.181768 
L 678.250614 196.146993 
L 686.742015 195.613114 
L 695.233415 195.299574 
L 703.724816 195.267547 
L 712.216216 195.252032 
L 720.707617 195.280112 
L 729.199017 195.27005 
L 737.690418 195.299699 
L 746.181818 195.287979 
" clip-path="url(#p492e898bd6)" style="fill: none; stroke: #ff7f0e; stroke-width: 1.5; stroke-linecap: square"/>
   </g>
   <g id="line2d_80">
    <path d="M 117.818182 731.157032 
L 126.309582 582.220277 
L 134.800983 441.020092 
L 143.292383 378.103099 
L 151.783784 358.990007 
L 160.275184 335.059632 
L 168.766585 329.52043 
L 177.257985 320.391325 
L 185.749386 275.51085 
L 194.240786 276.089809 
L 202.732187 276.045205 
L 211.223587 275.797536 
L 219.714988 276.175224 
L 228.206388 275.021371 
L 236.697789 279.521183 
L 245.189189 279.438044 
L 253.68059 279.494198 
L 262.17199 279.120184 
L 270.663391 278.676242 
L 279.154791 278.151741 
L 287.646192 277.272475 
L 296.137592 277.748297 
L 304.628993 271.981055 
L 313.120393 273.874 
L 321.611794 272.70164 
L 330.103194 272.703043 
L 338.594595 258.113289 
L 347.085995 250.015136 
L 355.577396 242.41061 
L 364.068796 240.770374 
L 372.560197 240.246622 
L 381.051597 232.004286 
L 389.542998 231.519832 
L 398.034398 233.815047 
L 406.525799 233.775504 
L 415.017199 233.656978 
L 423.5086 233.443001 
L 432 233.781561 
L 440.4914 233.801536 
L 448.982801 233.853238 
L 457.474201 231.387365 
L 465.965602 231.317229 
L 474.457002 230.584971 
L 482.948403 230.409697 
L 491.439803 229.91991 
L 499.931204 229.871664 
L 508.422604 228.703197 
L 516.914005 226.224536 
L 525.405405 226.536228 
L 533.896806 225.890343 
L 542.388206 226.713468 
L 550.879607 222.624043 
L 559.371007 221.861856 
L 567.862408 221.719144 
L 576.353808 222.411541 
L 584.845209 220.889481 
L 593.336609 221.525154 
L 601.82801 221.516839 
L 610.31941 206.449633 
L 618.810811 203.283065 
L 627.302211 200.903629 
L 635.793612 198.862364 
L 644.285012 195.474627 
L 652.776413 195.84517 
L 661.267813 195.669716 
L 669.759214 195.798997 
L 678.250614 195.761536 
L 686.742015 195.268685 
L 695.233415 194.927585 
L 703.724816 194.900809 
L 712.216216 194.884304 
L 720.707617 194.910431 
L 729.199017 194.891043 
L 737.690418 194.916411 
L 746.181818 194.905948 
" clip-path="url(#p492e898bd6)" style="fill: none; stroke: #9467bd; stroke-width: 1.5; stroke-linecap: square"/>
   </g>
   <g id="line2d_81">
    <path d="M 117.818182 746.181818 
L 126.309582 502.785666 
L 134.800983 380.445603 
L 143.292383 325.65299 
L 151.783784 320.548508 
L 160.275184 297.534216 
L 168.766585 275.429465 
L 177.257985 257.598595 
L 185.749386 232.351765 
L 194.240786 226.401934 
L 202.732187 232.253531 
L 211.223587 229.651992 
L 219.714988 234.436946 
L 228.206388 226.198972 
L 236.697789 223.100376 
L 245.189189 231.467539 
L 253.68059 230.761351 
L 262.17199 215.223906 
L 270.663391 223.04894 
L 279.154791 232.61811 
L 287.646192 240.830941 
L 296.137592 237.527011 
L 304.628993 241.762668 
L 313.120393 244.368777 
L 321.611794 244.042438 
L 330.103194 248.573373 
L 338.594595 247.781158 
L 347.085995 237.94373 
L 355.577396 234.366903 
L 364.068796 229.944528 
L 372.560197 238.287219 
L 381.051597 238.130364 
L 389.542998 233.040038 
L 398.034398 233.41037 
L 406.525799 252.998024 
L 415.017199 259.690939 
L 423.5086 242.421824 
L 432 241.243627 
L 440.4914 240.68879 
L 448.982801 241.100395 
L 457.474201 227.013821 
L 465.965602 235.945203 
L 474.457002 224.285239 
L 482.948403 226.613135 
L 491.439803 227.996949 
L 499.931204 225.247288 
L 508.422604 228.656887 
L 516.914005 234.110448 
L 525.405405 244.258409 
L 533.896806 242.610277 
L 542.388206 244.393978 
L 550.879607 245.634209 
L 559.371007 246.382924 
L 567.862408 249.275759 
L 576.353808 248.03396 
L 584.845209 245.235707 
L 593.336609 247.293687 
L 601.82801 249.98761 
L 610.31941 245.534991 
L 618.810811 244.209742 
L 627.302211 243.61472 
L 635.793612 247.659296 
L 644.285012 244.1367 
L 652.776413 246.641225 
L 661.267813 246.521918 
L 669.759214 246.907477 
L 678.250614 247.767523 
L 686.742015 248.354688 
L 695.233415 248.950291 
L 703.724816 248.978839 
L 712.216216 248.995684 
L 720.707617 251.136509 
L 729.199017 256.214833 
L 737.690418 255.896652 
L 746.181818 258.634984 
" clip-path="url(#p492e898bd6)" style="fill: none; stroke: #2ca02c; stroke-width: 1.5; stroke-linecap: square"/>
   </g>
   <g id="line2d_82">
    <path d="M 117.818182 617.071927 
L 126.309582 476.503492 
L 134.800983 374.745269 
L 143.292383 366.871461 
L 151.783784 348.297878 
L 160.275184 329.80991 
L 168.766585 327.374429 
L 177.257985 342.044664 
L 185.749386 341.417133 
L 194.240786 343.398752 
L 202.732187 344.861954 
L 211.223587 353.313307 
L 219.714988 354.562271 
L 228.206388 355.460481 
L 236.697789 357.866347 
L 245.189189 351.750117 
L 253.68059 355.598981 
L 262.17199 353.999057 
L 270.663391 357.306349 
L 279.154791 348.486015 
L 287.646192 351.6501 
L 296.137592 359.074442 
L 304.628993 355.468553 
L 313.120393 357.26558 
L 321.611794 360.128368 
L 330.103194 355.439566 
L 338.594595 320.334122 
L 347.085995 322.540033 
L 355.577396 320.633744 
L 364.068796 322.411665 
L 372.560197 317.67304 
L 381.051597 302.250663 
L 389.542998 311.643546 
L 398.034398 314.228676 
L 406.525799 314.228676 
L 415.017199 306.018325 
L 423.5086 312.506155 
L 432 305.718768 
L 440.4914 304.295805 
L 448.982801 298.628569 
L 457.474201 306.345913 
L 465.965602 306.846219 
L 474.457002 311.393303 
L 482.948403 307.371787 
L 491.439803 307.371787 
L 499.931204 311.258467 
L 508.422604 306.251635 
L 516.914005 306.251635 
L 525.405405 283.6708 
L 533.896806 288.12131 
L 542.388206 288.12131 
L 550.879607 289.241461 
L 559.371007 288.12131 
L 567.862408 288.12131 
L 576.353808 288.12131 
L 584.845209 291.316574 
L 593.336609 292.436725 
L 601.82801 291.316574 
L 610.31941 294.984216 
L 618.810811 296.104367 
L 627.302211 294.984216 
L 635.793612 296.104367 
L 644.285012 299.822939 
L 652.776413 300.94309 
L 661.267813 299.822939 
L 669.759214 299.822939 
L 678.250614 299.822939 
L 686.742015 300.94309 
L 695.233415 299.822939 
L 703.724816 300.94309 
L 712.216216 299.822939 
L 720.707617 302.293172 
L 729.199017 302.293172 
L 737.690418 302.293172 
L 746.181818 299.90416 
" clip-path="url(#p492e898bd6)" style="fill: none; stroke: #d62728; stroke-width: 1.5; stroke-linecap: square"/>
   </g>
   <g id="line2d_83">
    <path d="M 117.818182 617.074542 
L 126.309582 470.365966 
L 134.800983 393.45317 
L 143.292383 330.693297 
L 151.783784 324.423912 
L 160.275184 317.369794 
L 168.766585 294.898557 
L 177.257985 256.510281 
L 185.749386 229.487145 
L 194.240786 236.845622 
L 202.732187 227.914656 
L 211.223587 221.245228 
L 219.714988 218.038668 
L 228.206388 210.574817 
L 236.697789 211.17359 
L 245.189189 209.02853 
L 253.68059 201.14285 
L 262.17199 202.778242 
L 270.663391 203.34617 
L 279.154791 205.42016 
L 287.646192 203.199996 
L 296.137592 198.019892 
L 304.628993 196.465255 
L 313.120393 195.524673 
L 321.611794 194.51943 
L 330.103194 197.458166 
L 338.594595 182.974998 
L 347.085995 177.615145 
L 355.577396 176.911043 
L 364.068796 173.453245 
L 372.560197 175.607497 
L 381.051597 172.818528 
L 389.542998 169.585558 
L 398.034398 170.413639 
L 406.525799 173.310731 
L 415.017199 169.463715 
L 423.5086 171.712727 
L 432 170.496163 
L 440.4914 169.25415 
L 448.982801 167.89994 
L 457.474201 170.137679 
L 465.965602 168.795264 
L 474.457002 170.005771 
L 482.948403 168.727769 
L 491.439803 171.37912 
L 499.931204 164.831524 
L 508.422604 170.413187 
L 516.914005 168.506479 
L 525.405405 171.680209 
L 533.896806 170.968452 
L 542.388206 167.51394 
L 550.879607 169.875756 
L 559.371007 167.930917 
L 567.862408 168.619718 
L 576.353808 166.408195 
L 584.845209 169.779353 
L 593.336609 170.362922 
L 601.82801 168.564467 
L 610.31941 166.876348 
L 618.810811 164.291001 
L 627.302211 164.20339 
L 635.793612 164.941038 
L 644.285012 166.660809 
L 652.776413 168.272129 
L 661.267813 165.455166 
L 669.759214 165.184898 
L 678.250614 163.748642 
L 686.742015 164.525924 
L 695.233415 164.844191 
L 703.724816 166.880353 
L 712.216216 166.261766 
L 720.707617 166.242693 
L 729.199017 164.838932 
L 737.690418 164.870151 
L 746.181818 165.998432 
" clip-path="url(#p492e898bd6)" style="fill: none; stroke: #7f7f7f; stroke-width: 1.5; stroke-linecap: square"/>
   </g>
   <g id="line2d_84">
    <path d="M 117.818182 617.310571 
L 126.309582 470.421974 
L 134.800983 384.92193 
L 143.292383 334.466806 
L 151.783784 327.011906 
L 160.275184 328.443851 
L 168.766585 308.180055 
L 177.257985 273.533993 
L 185.749386 242.780298 
L 194.240786 248.9758 
L 202.732187 242.964954 
L 211.223587 238.269003 
L 219.714988 239.10484 
L 228.206388 238.014006 
L 236.697789 232.84096 
L 245.189189 230.472676 
L 253.68059 227.818651 
L 262.17199 225.772594 
L 270.663391 225.572083 
L 279.154791 229.859378 
L 287.646192 228.808322 
L 296.137592 226.918932 
L 304.628993 224.977276 
L 313.120393 222.034237 
L 321.611794 222.821705 
L 330.103194 219.912493 
L 338.594595 211.5077 
L 347.085995 210.649944 
L 355.577396 209.141751 
L 364.068796 208.94414 
L 372.560197 207.571612 
L 381.051597 205.879448 
L 389.542998 203.553004 
L 398.034398 208.485373 
L 406.525799 207.132835 
L 415.017199 206.344502 
L 423.5086 206.424844 
L 432 207.681562 
L 440.4914 206.050905 
L 448.982801 207.067342 
L 457.474201 205.495038 
L 465.965602 206.578863 
L 474.457002 205.093462 
L 482.948403 204.070109 
L 491.439803 204.732196 
L 499.931204 204.5921 
L 508.422604 205.029576 
L 516.914005 204.479881 
L 525.405405 203.805619 
L 533.896806 204.975446 
L 542.388206 204.315764 
L 550.879607 203.930937 
L 559.371007 202.536642 
L 567.862408 203.910157 
L 576.353808 205.770401 
L 584.845209 205.349398 
L 593.336609 204.18298 
L 601.82801 203.772528 
L 610.31941 201.300389 
L 618.810811 199.826286 
L 627.302211 200.866011 
L 635.793612 200.187812 
L 644.285012 198.699559 
L 652.776413 199.749468 
L 661.267813 199.459762 
L 669.759214 199.87045 
L 678.250614 200.67898 
L 686.742015 199.955979 
L 695.233415 200.003078 
L 703.724816 199.676921 
L 712.216216 200.570365 
L 720.707617 200.884015 
L 729.199017 199.020728 
L 737.690418 198.131303 
L 746.181818 200.556043 
" clip-path="url(#p492e898bd6)" style="fill: none; stroke: #e59d93; stroke-width: 1.5; stroke-linecap: square"/>
   </g>
   <g id="line2d_85">
    <path d="M 117.818182 617.071927 
L 126.309582 481.548646 
L 134.800983 330.615573 
L 143.292383 299.754492 
L 151.783784 300.731968 
L 160.275184 279.896115 
L 168.766585 273.727463 
L 177.257985 285.052317 
L 185.749386 220.180194 
L 194.240786 219.384009 
L 202.732187 206.493693 
L 211.223587 218.617628 
L 219.714988 214.141753 
L 228.206388 208.501131 
L 236.697789 200.556808 
L 245.189189 205.589043 
L 253.68059 198.636316 
L 262.17199 198.434085 
L 270.663391 201.497467 
L 279.154791 206.312896 
L 287.646192 194.892397 
L 296.137592 199.947754 
L 304.628993 182.053388 
L 313.120393 184.582069 
L 321.611794 186.025333 
L 330.103194 192.133237 
L 338.594595 181.017662 
L 347.085995 170.486879 
L 355.577396 166.293856 
L 364.068796 171.866812 
L 372.560197 171.26073 
L 381.051597 164.196541 
L 389.542998 158.004377 
L 398.034398 162.483535 
L 406.525799 161.814842 
L 415.017199 161.597664 
L 423.5086 162.468248 
L 432 163.261551 
L 440.4914 160.746313 
L 448.982801 164.601219 
L 457.474201 166.010133 
L 465.965602 160.174866 
L 474.457002 169.009446 
L 482.948403 172.681543 
L 491.439803 170.025795 
L 499.931204 166.774866 
L 508.422604 166.443944 
L 516.914005 154.54739 
L 525.405405 163.915426 
L 533.896806 159.343204 
L 542.388206 162.383028 
L 550.879607 156.624248 
L 559.371007 163.898924 
L 567.862408 156.608576 
L 576.353808 157.150928 
L 584.845209 156.822764 
L 593.336609 169.438894 
L 601.82801 163.933733 
L 610.31941 150.669841 
L 618.810811 150.36643 
L 627.302211 152.731201 
L 635.793612 144.066476 
L 644.285012 142.973312 
L 652.776413 141.83053 
L 661.267813 141.754404 
L 669.759214 145.514215 
L 678.250614 147.686097 
L 686.742015 145.206569 
L 695.233415 148.322181 
L 703.724816 149.313284 
L 712.216216 147.384294 
L 720.707617 145.409375 
L 729.199017 144.652662 
L 737.690418 146.724328 
L 746.181818 144.650587 
" clip-path="url(#p492e898bd6)" style="fill: none; stroke: #8c564b; stroke-width: 1.5; stroke-linecap: square"/>
   </g>
   <g id="line2d_86">
    <path d="M 117.818182 616.808352 
L 126.309582 498.498178 
L 134.800983 371.056278 
L 143.292383 286.970968 
L 151.783784 280.30591 
L 160.275184 267.282043 
L 168.766585 251.600099 
L 177.257985 250.137582 
L 185.749386 201.342678 
L 194.240786 193.752581 
L 202.732187 195.449333 
L 211.223587 192.517657 
L 219.714988 188.540895 
L 228.206388 188.637627 
L 236.697789 186.616536 
L 245.189189 189.482502 
L 253.68059 189.523718 
L 262.17199 188.627806 
L 270.663391 174.682621 
L 279.154791 191.326385 
L 287.646192 175.875221 
L 296.137592 183.134666 
L 304.628993 174.908701 
L 313.120393 174.973929 
L 321.611794 170.650795 
L 330.103194 165.955511 
L 338.594595 165.976418 
L 347.085995 154.493848 
L 355.577396 152.662116 
L 364.068796 149.330364 
L 372.560197 149.611919 
L 381.051597 141.843225 
L 389.542998 141.097401 
L 398.034398 146.635683 
L 406.525799 136.470725 
L 415.017199 144.939732 
L 423.5086 137.544964 
L 432 141.984788 
L 440.4914 148.133635 
L 448.982801 146.148643 
L 457.474201 144.801222 
L 465.965602 143.245691 
L 474.457002 146.127599 
L 482.948403 139.552811 
L 491.439803 144.603817 
L 499.931204 140.610936 
L 508.422604 144.328213 
L 516.914005 137.793304 
L 525.405405 139.029804 
L 533.896806 141.151378 
L 542.388206 140.616826 
L 550.879607 142.481467 
L 559.371007 140.47054 
L 567.862408 145.855803 
L 576.353808 140.645524 
L 584.845209 146.335166 
L 593.336609 140.490056 
L 601.82801 149.197808 
L 610.31941 130.147745 
L 618.810811 128.936975 
L 627.302211 129.53882 
L 635.793612 131.661597 
L 644.285012 117.818182 
L 652.776413 141.259707 
L 661.267813 125.626666 
L 669.759214 127.043884 
L 678.250614 121.580643 
L 686.742015 127.964146 
L 695.233415 127.529972 
L 703.724816 124.966864 
L 712.216216 132.040098 
L 720.707617 129.832546 
L 729.199017 126.793594 
L 737.690418 126.660961 
L 746.181818 132.205963 
" clip-path="url(#p492e898bd6)" style="fill: none; stroke: #e377c2; stroke-width: 1.5; stroke-linecap: square"/>
   </g>
   <g id="line2d_87">
    <path d="M 117.818182 617.071919 
L 126.309582 470.514333 
L 134.800983 338.850231 
L 143.292383 305.892606 
L 151.783784 288.440453 
L 160.275184 278.796773 
L 168.766585 269.455819 
L 177.257985 255.873703 
L 185.749386 229.729108 
L 194.240786 225.700246 
L 202.732187 216.855393 
L 211.223587 216.711347 
L 219.714988 217.671902 
L 228.206388 215.009921 
L 236.697789 212.055637 
L 245.189189 215.408133 
L 253.68059 207.516538 
L 262.17199 211.517653 
L 270.663391 210.378079 
L 279.154791 214.607352 
L 287.646192 211.985536 
L 296.137592 211.498335 
L 304.628993 202.850102 
L 313.120393 198.323693 
L 321.611794 201.878926 
L 330.103194 199.039838 
L 338.594595 191.409859 
L 347.085995 186.983198 
L 355.577396 185.190346 
L 364.068796 180.406094 
L 372.560197 185.610336 
L 381.051597 167.335516 
L 389.542998 167.597611 
L 398.034398 174.403567 
L 406.525799 172.036074 
L 415.017199 164.905207 
L 423.5086 167.315465 
L 432 168.646885 
L 440.4914 171.203312 
L 448.982801 169.428901 
L 457.474201 167.119873 
L 465.965602 164.487243 
L 474.457002 172.73803 
L 482.948403 172.183449 
L 491.439803 168.522466 
L 499.931204 173.355328 
L 508.422604 173.475226 
L 516.914005 171.691432 
L 525.405405 172.190089 
L 533.896806 171.425946 
L 542.388206 173.208403 
L 550.879607 171.328257 
L 559.371007 168.983538 
L 567.862408 175.117373 
L 576.353808 174.289967 
L 584.845209 168.610477 
L 593.336609 168.596367 
L 601.82801 165.884338 
L 610.31941 156.730994 
L 618.810811 158.300871 
L 627.302211 155.825415 
L 635.793612 155.565283 
L 644.285012 152.668514 
L 652.776413 148.894834 
L 661.267813 150.48745 
L 669.759214 152.479596 
L 678.250614 152.12474 
L 686.742015 152.294813 
L 695.233415 151.794902 
L 703.724816 151.794902 
L 712.216216 151.030503 
L 720.707617 151.079752 
L 729.199017 150.496902 
L 737.690418 150.742818 
L 746.181818 152.257699 
" clip-path="url(#p492e898bd6)" style="fill: none; stroke: #17becf; stroke-width: 1.5; stroke-linecap: square"/>
   </g>
   <g id="line2d_88">
    <path d="M 117.818182 617.074531 
L 126.309582 479.677424 
L 134.800983 342.559107 
L 143.292383 308.847764 
L 151.783784 296.09701 
L 160.275184 281.582418 
L 168.766585 270.836275 
L 177.257985 258.161652 
L 185.749386 204.516033 
L 194.240786 207.318489 
L 202.732187 199.369204 
L 211.223587 201.774764 
L 219.714988 205.69948 
L 228.206388 200.384064 
L 236.697789 204.376052 
L 245.189189 194.863123 
L 253.68059 203.087877 
L 262.17199 192.277624 
L 270.663391 188.165177 
L 279.154791 190.011073 
L 287.646192 176.804809 
L 296.137592 169.259088 
L 304.628993 176.891618 
L 313.120393 172.407302 
L 321.611794 173.630884 
L 330.103194 171.824809 
L 338.594595 163.334926 
L 347.085995 161.586828 
L 355.577396 168.227136 
L 364.068796 162.057026 
L 372.560197 155.590163 
L 381.051597 159.482074 
L 389.542998 158.420607 
L 398.034398 147.353005 
L 406.525799 150.186176 
L 415.017199 149.659513 
L 423.5086 153.93035 
L 432 154.617512 
L 440.4914 147.939546 
L 448.982801 150.152449 
L 457.474201 155.465373 
L 465.965602 148.829986 
L 474.457002 160.515379 
L 482.948403 153.594713 
L 491.439803 158.065328 
L 499.931204 156.654437 
L 508.422604 158.735254 
L 516.914005 154.902622 
L 525.405405 154.74149 
L 533.896806 151.608951 
L 542.388206 148.152256 
L 550.879607 151.587558 
L 559.371007 149.426823 
L 567.862408 163.591092 
L 576.353808 157.813836 
L 584.845209 155.008773 
L 593.336609 153.630495 
L 601.82801 153.136091 
L 610.31941 140.906579 
L 618.810811 139.100454 
L 627.302211 131.889895 
L 635.793612 137.710226 
L 644.285012 133.008477 
L 652.776413 131.78848 
L 661.267813 134.768215 
L 669.759214 131.236671 
L 678.250614 127.883941 
L 686.742015 135.075513 
L 695.233415 138.690238 
L 703.724816 133.200224 
L 712.216216 127.792135 
L 720.707617 134.027626 
L 729.199017 127.270128 
L 737.690418 122.194359 
L 746.181818 133.959491 
" clip-path="url(#p492e898bd6)" style="fill: none; stroke: #bcbd22; stroke-width: 1.5; stroke-linecap: square"/>
   </g>
   <g id="patch_3">
    <path d="M 86.4 777.6 
L 86.4 86.4 
" style="fill: none; stroke: #000000; stroke-width: 0.8; stroke-linejoin: miter; stroke-linecap: square"/>
   </g>
   <g id="patch_4">
    <path d="M 777.6 777.6 
L 777.6 86.4 
" style="fill: none; stroke: #000000; stroke-width: 0.8; stroke-linejoin: miter; stroke-linecap: square"/>
   </g>
   <g id="patch_5">
    <path d="M 86.4 777.6 
L 777.6 777.6 
" style="fill: none; stroke: #000000; stroke-width: 0.8; stroke-linejoin: miter; stroke-linecap: square"/>
   </g>
   <g id="patch_6">
    <path d="M 86.4 86.4 
L 777.6 86.4 
" style="fill: none; stroke: #000000; stroke-width: 0.8; stroke-linejoin: miter; stroke-linecap: square"/>
   </g>
   <g id="legend_1">
    <g id="patch_7">
     <path d="M 597.0125 772.6 
L 770.6 772.6 
Q 772.6 772.6 772.6 770.6 
L 772.6 594.951563 
Q 772.6 592.951563 770.6 592.951563 
L 597.0125 592.951563 
Q 595.0125 592.951563 595.0125 594.951563 
L 595.0125 770.6 
Q 595.0125 772.6 597.0125 772.6 
z
" style="fill: #ffffff; opacity: 0.8; stroke: #cccccc; stroke-linejoin: miter"/>
    </g>
    <g id="line2d_89">
     <path d="M 599.0125 601.220313 
L 609.0125 601.220313 
L 619.0125 601.220313 
" style="fill: none; stroke: #1f77b4; stroke-width: 1.5; stroke-linecap: square"/>
    </g>
    <g id="text_41">
     <!-- Regressão Linear -->
     <g transform="translate(627.0125 604.720313) scale(0.1 -0.1)">
      <defs>
       <path id="DejaVuSans-67" d="M 2906 1791 
Q 2906 2416 2648 2759 
Q 2391 3103 1925 3103 
Q 1463 3103 1205 2759 
Q 947 2416 947 1791 
Q 947 1169 1205 825 
Q 1463 481 1925 481 
Q 2391 481 2648 825 
Q 2906 1169 2906 1791 
z
M 3481 434 
Q 3481 -459 3084 -895 
Q 2688 -1331 1869 -1331 
Q 1566 -1331 1297 -1286 
Q 1028 -1241 775 -1147 
L 775 -588 
Q 1028 -725 1275 -790 
Q 1522 -856 1778 -856 
Q 2344 -856 2625 -561 
Q 2906 -266 2906 331 
L 2906 616 
Q 2728 306 2450 153 
Q 2172 0 1784 0 
Q 1141 0 747 490 
Q 353 981 353 1791 
Q 353 2603 747 3093 
Q 1141 3584 1784 3584 
Q 2172 3584 2450 3431 
Q 2728 3278 2906 2969 
L 2906 3500 
L 3481 3500 
L 3481 434 
z
" transform="scale(0.015625)"/>
       <path id="DejaVuSans-e3" d="M 2194 1759 
Q 1497 1759 1228 1600 
Q 959 1441 959 1056 
Q 959 750 1161 570 
Q 1363 391 1709 391 
Q 2188 391 2477 730 
Q 2766 1069 2766 1631 
L 2766 1759 
L 2194 1759 
z
M 3341 1997 
L 3341 0 
L 2766 0 
L 2766 531 
Q 2569 213 2275 61 
Q 1981 -91 1556 -91 
Q 1019 -91 701 211 
Q 384 513 384 1019 
Q 384 1609 779 1909 
Q 1175 2209 1959 2209 
L 2766 2209 
L 2766 2266 
Q 2766 2663 2505 2880 
Q 2244 3097 1772 3097 
Q 1472 3097 1187 3025 
Q 903 2953 641 2809 
L 641 3341 
Q 956 3463 1253 3523 
Q 1550 3584 1831 3584 
Q 2591 3584 2966 3190 
Q 3341 2797 3341 1997 
z
M 1844 4281 
L 1665 4453 
Q 1597 4516 1545 4545 
Q 1494 4575 1453 4575 
Q 1334 4575 1278 4461 
Q 1222 4347 1215 4091 
L 825 4091 
Q 831 4513 990 4742 
Q 1150 4972 1434 4972 
Q 1553 4972 1653 4928 
Q 1753 4884 1869 4781 
L 2047 4609 
Q 2115 4547 2167 4517 
Q 2219 4488 2259 4488 
Q 2378 4488 2434 4602 
Q 2490 4716 2497 4972 
L 2887 4972 
Q 2881 4550 2721 4320 
Q 2562 4091 2278 4091 
Q 2159 4091 2059 4134 
Q 1959 4178 1844 4281 
z
" transform="scale(0.015625)"/>
       <path id="DejaVuSans-4c" d="M 628 4666 
L 1259 4666 
L 1259 531 
L 3531 531 
L 3531 0 
L 628 0 
L 628 4666 
z
" transform="scale(0.015625)"/>
       <path id="DejaVuSans-6e" d="M 3513 2113 
L 3513 0 
L 2938 0 
L 2938 2094 
Q 2938 2591 2744 2837 
Q 2550 3084 2163 3084 
Q 1697 3084 1428 2787 
Q 1159 2491 1159 1978 
L 1159 0 
L 581 0 
L 581 3500 
L 1159 3500 
L 1159 2956 
Q 1366 3272 1645 3428 
Q 1925 3584 2291 3584 
Q 2894 3584 3203 3211 
Q 3513 2838 3513 2113 
z
" transform="scale(0.015625)"/>
      </defs>
      <use xlink:href="#DejaVuSans-52"/>
      <use xlink:href="#DejaVuSans-65" x="64.982422"/>
      <use xlink:href="#DejaVuSans-67" x="126.505859"/>
      <use xlink:href="#DejaVuSans-72" x="189.982422"/>
      <use xlink:href="#DejaVuSans-65" x="228.845703"/>
      <use xlink:href="#DejaVuSans-73" x="290.369141"/>
      <use xlink:href="#DejaVuSans-73" x="342.46875"/>
      <use xlink:href="#DejaVuSans-e3" x="394.568359"/>
      <use xlink:href="#DejaVuSans-6f" x="455.847656"/>
      <use xlink:href="#DejaVuSans-20" x="517.029297"/>
      <use xlink:href="#DejaVuSans-4c" x="548.816406"/>
      <use xlink:href="#DejaVuSans-69" x="604.529297"/>
      <use xlink:href="#DejaVuSans-6e" x="632.3125"/>
      <use xlink:href="#DejaVuSans-65" x="695.691406"/>
      <use xlink:href="#DejaVuSans-61" x="757.214844"/>
      <use xlink:href="#DejaVuSans-72" x="818.494141"/>
     </g>
    </g>
    <g id="line2d_90">
     <path d="M 599.0125 616.06875 
L 609.0125 616.06875 
L 619.0125 616.06875 
" style="fill: none; stroke: #aec7e8; stroke-width: 1.5; stroke-linecap: square"/>
    </g>
    <g id="text_42">
     <!-- Regressão LASSO -->
     <g transform="translate(627.0125 619.56875) scale(0.1 -0.1)">
      <defs>
       <path id="DejaVuSans-53" d="M 3425 4513 
L 3425 3897 
Q 3066 4069 2747 4153 
Q 2428 4238 2131 4238 
Q 1616 4238 1336 4038 
Q 1056 3838 1056 3469 
Q 1056 3159 1242 3001 
Q 1428 2844 1947 2747 
L 2328 2669 
Q 3034 2534 3370 2195 
Q 3706 1856 3706 1288 
Q 3706 609 3251 259 
Q 2797 -91 1919 -91 
Q 1588 -91 1214 -16 
Q 841 59 441 206 
L 441 856 
Q 825 641 1194 531 
Q 1563 422 1919 422 
Q 2459 422 2753 634 
Q 3047 847 3047 1241 
Q 3047 1584 2836 1778 
Q 2625 1972 2144 2069 
L 1759 2144 
Q 1053 2284 737 2584 
Q 422 2884 422 3419 
Q 422 4038 858 4394 
Q 1294 4750 2059 4750 
Q 2388 4750 2728 4690 
Q 3069 4631 3425 4513 
z
" transform="scale(0.015625)"/>
       <path id="DejaVuSans-4f" d="M 2522 4238 
Q 1834 4238 1429 3725 
Q 1025 3213 1025 2328 
Q 1025 1447 1429 934 
Q 1834 422 2522 422 
Q 3209 422 3611 934 
Q 4013 1447 4013 2328 
Q 4013 3213 3611 3725 
Q 3209 4238 2522 4238 
z
M 2522 4750 
Q 3503 4750 4090 4092 
Q 4678 3434 4678 2328 
Q 4678 1225 4090 567 
Q 3503 -91 2522 -91 
Q 1538 -91 948 565 
Q 359 1222 359 2328 
Q 359 3434 948 4092 
Q 1538 4750 2522 4750 
z
" transform="scale(0.015625)"/>
      </defs>
      <use xlink:href="#DejaVuSans-52"/>
      <use xlink:href="#DejaVuSans-65" x="64.982422"/>
      <use xlink:href="#DejaVuSans-67" x="126.505859"/>
      <use xlink:href="#DejaVuSans-72" x="189.982422"/>
      <use xlink:href="#DejaVuSans-65" x="228.845703"/>
      <use xlink:href="#DejaVuSans-73" x="290.369141"/>
      <use xlink:href="#DejaVuSans-73" x="342.46875"/>
      <use xlink:href="#DejaVuSans-e3" x="394.568359"/>
      <use xlink:href="#DejaVuSans-6f" x="455.847656"/>
      <use xlink:href="#DejaVuSans-20" x="517.029297"/>
      <use xlink:href="#DejaVuSans-4c" x="548.816406"/>
      <use xlink:href="#DejaVuSans-41" x="606.779297"/>
      <use xlink:href="#DejaVuSans-53" x="675.1875"/>
      <use xlink:href="#DejaVuSans-53" x="738.664062"/>
      <use xlink:href="#DejaVuSans-4f" x="802.140625"/>
     </g>
    </g>
    <g id="line2d_91">
     <path d="M 599.0125 630.917188 
L 609.0125 630.917188 
L 619.0125 630.917188 
" style="fill: none; stroke: #ff7f0e; stroke-width: 1.5; stroke-linecap: square"/>
    </g>
    <g id="text_43">
     <!-- Regressão Ridge -->
     <g transform="translate(627.0125 634.417188) scale(0.1 -0.1)">
      <use xlink:href="#DejaVuSans-52"/>
      <use xlink:href="#DejaVuSans-65" x="64.982422"/>
      <use xlink:href="#DejaVuSans-67" x="126.505859"/>
      <use xlink:href="#DejaVuSans-72" x="189.982422"/>
      <use xlink:href="#DejaVuSans-65" x="228.845703"/>
      <use xlink:href="#DejaVuSans-73" x="290.369141"/>
      <use xlink:href="#DejaVuSans-73" x="342.46875"/>
      <use xlink:href="#DejaVuSans-e3" x="394.568359"/>
      <use xlink:href="#DejaVuSans-6f" x="455.847656"/>
      <use xlink:href="#DejaVuSans-20" x="517.029297"/>
      <use xlink:href="#DejaVuSans-52" x="548.816406"/>
      <use xlink:href="#DejaVuSans-69" x="618.298828"/>
      <use xlink:href="#DejaVuSans-64" x="646.082031"/>
      <use xlink:href="#DejaVuSans-67" x="709.558594"/>
      <use xlink:href="#DejaVuSans-65" x="773.035156"/>
     </g>
    </g>
    <g id="line2d_92">
     <path d="M 599.0125 645.595313 
L 609.0125 645.595313 
L 619.0125 645.595313 
" style="fill: none; stroke: #9467bd; stroke-width: 1.5; stroke-linecap: square"/>
    </g>
    <g id="text_44">
     <!-- Rede Elástica -->
     <g transform="translate(627.0125 649.095313) scale(0.1 -0.1)">
      <defs>
       <path id="DejaVuSans-45" d="M 628 4666 
L 3578 4666 
L 3578 4134 
L 1259 4134 
L 1259 2753 
L 3481 2753 
L 3481 2222 
L 1259 2222 
L 1259 531 
L 3634 531 
L 3634 0 
L 628 0 
L 628 4666 
z
" transform="scale(0.015625)"/>
       <path id="DejaVuSans-6c" d="M 603 4863 
L 1178 4863 
L 1178 0 
L 603 0 
L 603 4863 
z
" transform="scale(0.015625)"/>
       <path id="DejaVuSans-e1" d="M 2194 1759 
Q 1497 1759 1228 1600 
Q 959 1441 959 1056 
Q 959 750 1161 570 
Q 1363 391 1709 391 
Q 2188 391 2477 730 
Q 2766 1069 2766 1631 
L 2766 1759 
L 2194 1759 
z
M 3341 1997 
L 3341 0 
L 2766 0 
L 2766 531 
Q 2569 213 2275 61 
Q 1981 -91 1556 -91 
Q 1019 -91 701 211 
Q 384 513 384 1019 
Q 384 1609 779 1909 
Q 1175 2209 1959 2209 
L 2766 2209 
L 2766 2266 
Q 2766 2663 2505 2880 
Q 2244 3097 1772 3097 
Q 1472 3097 1187 3025 
Q 903 2953 641 2809 
L 641 3341 
Q 956 3463 1253 3523 
Q 1550 3584 1831 3584 
Q 2591 3584 2966 3190 
Q 3341 2797 3341 1997 
z
M 2290 5119 
L 2912 5119 
L 1894 3944 
L 1415 3944 
L 2290 5119 
z
" transform="scale(0.015625)"/>
       <path id="DejaVuSans-63" d="M 3122 3366 
L 3122 2828 
Q 2878 2963 2633 3030 
Q 2388 3097 2138 3097 
Q 1578 3097 1268 2742 
Q 959 2388 959 1747 
Q 959 1106 1268 751 
Q 1578 397 2138 397 
Q 2388 397 2633 464 
Q 2878 531 3122 666 
L 3122 134 
Q 2881 22 2623 -34 
Q 2366 -91 2075 -91 
Q 1284 -91 818 406 
Q 353 903 353 1747 
Q 353 2603 823 3093 
Q 1294 3584 2113 3584 
Q 2378 3584 2631 3529 
Q 2884 3475 3122 3366 
z
" transform="scale(0.015625)"/>
      </defs>
      <use xlink:href="#DejaVuSans-52"/>
      <use xlink:href="#DejaVuSans-65" x="64.982422"/>
      <use xlink:href="#DejaVuSans-64" x="126.505859"/>
      <use xlink:href="#DejaVuSans-65" x="189.982422"/>
      <use xlink:href="#DejaVuSans-20" x="251.505859"/>
      <use xlink:href="#DejaVuSans-45" x="283.292969"/>
      <use xlink:href="#DejaVuSans-6c" x="346.476562"/>
      <use xlink:href="#DejaVuSans-e1" x="374.259766"/>
      <use xlink:href="#DejaVuSans-73" x="435.539062"/>
      <use xlink:href="#DejaVuSans-74" x="487.638672"/>
      <use xlink:href="#DejaVuSans-69" x="526.847656"/>
      <use xlink:href="#DejaVuSans-63" x="554.630859"/>
      <use xlink:href="#DejaVuSans-61" x="609.611328"/>
     </g>
    </g>
    <g id="line2d_93">
     <path d="M 599.0125 660.273438 
L 609.0125 660.273438 
L 619.0125 660.273438 
" style="fill: none; stroke: #2ca02c; stroke-width: 1.5; stroke-linecap: square"/>
    </g>
    <g id="text_45">
     <!-- K-Vizinhos Mais Próximos -->
     <g transform="translate(627.0125 663.773438) scale(0.1 -0.1)">
      <defs>
       <path id="DejaVuSans-4b" d="M 628 4666 
L 1259 4666 
L 1259 2694 
L 3353 4666 
L 4166 4666 
L 1850 2491 
L 4331 0 
L 3500 0 
L 1259 2247 
L 1259 0 
L 628 0 
L 628 4666 
z
" transform="scale(0.015625)"/>
       <path id="DejaVuSans-2d" d="M 313 2009 
L 1997 2009 
L 1997 1497 
L 313 1497 
L 313 2009 
z
" transform="scale(0.015625)"/>
       <path id="DejaVuSans-56" d="M 1831 0 
L 50 4666 
L 709 4666 
L 2188 738 
L 3669 4666 
L 4325 4666 
L 2547 0 
L 1831 0 
z
" transform="scale(0.015625)"/>
       <path id="DejaVuSans-7a" d="M 353 3500 
L 3084 3500 
L 3084 2975 
L 922 459 
L 3084 459 
L 3084 0 
L 275 0 
L 275 525 
L 2438 3041 
L 353 3041 
L 353 3500 
z
" transform="scale(0.015625)"/>
       <path id="DejaVuSans-68" d="M 3513 2113 
L 3513 0 
L 2938 0 
L 2938 2094 
Q 2938 2591 2744 2837 
Q 2550 3084 2163 3084 
Q 1697 3084 1428 2787 
Q 1159 2491 1159 1978 
L 1159 0 
L 581 0 
L 581 4863 
L 1159 4863 
L 1159 2956 
Q 1366 3272 1645 3428 
Q 1925 3584 2291 3584 
Q 2894 3584 3203 3211 
Q 3513 2838 3513 2113 
z
" transform="scale(0.015625)"/>
       <path id="DejaVuSans-4d" d="M 628 4666 
L 1569 4666 
L 2759 1491 
L 3956 4666 
L 4897 4666 
L 4897 0 
L 4281 0 
L 4281 4097 
L 3078 897 
L 2444 897 
L 1241 4097 
L 1241 0 
L 628 0 
L 628 4666 
z
" transform="scale(0.015625)"/>
       <path id="DejaVuSans-50" d="M 1259 4147 
L 1259 2394 
L 2053 2394 
Q 2494 2394 2734 2622 
Q 2975 2850 2975 3272 
Q 2975 3691 2734 3919 
Q 2494 4147 2053 4147 
L 1259 4147 
z
M 628 4666 
L 2053 4666 
Q 2838 4666 3239 4311 
Q 3641 3956 3641 3272 
Q 3641 2581 3239 2228 
Q 2838 1875 2053 1875 
L 1259 1875 
L 1259 0 
L 628 0 
L 628 4666 
z
" transform="scale(0.015625)"/>
       <path id="DejaVuSans-f3" d="M 1959 3097 
Q 1497 3097 1228 2736 
Q 959 2375 959 1747 
Q 959 1119 1226 758 
Q 1494 397 1959 397 
Q 2419 397 2687 759 
Q 2956 1122 2956 1747 
Q 2956 2369 2687 2733 
Q 2419 3097 1959 3097 
z
M 1959 3584 
Q 2709 3584 3137 3096 
Q 3566 2609 3566 1747 
Q 3566 888 3137 398 
Q 2709 -91 1959 -91 
Q 1206 -91 779 398 
Q 353 888 353 1747 
Q 353 2609 779 3096 
Q 1206 3584 1959 3584 
z
M 2394 5119 
L 3016 5119 
L 1998 3944 
L 1519 3944 
L 2394 5119 
z
" transform="scale(0.015625)"/>
       <path id="DejaVuSans-78" d="M 3513 3500 
L 2247 1797 
L 3578 0 
L 2900 0 
L 1881 1375 
L 863 0 
L 184 0 
L 1544 1831 
L 300 3500 
L 978 3500 
L 1906 2253 
L 2834 3500 
L 3513 3500 
z
" transform="scale(0.015625)"/>
      </defs>
      <use xlink:href="#DejaVuSans-4b"/>
      <use xlink:href="#DejaVuSans-2d" x="55.076172"/>
      <use xlink:href="#DejaVuSans-56" x="85.285156"/>
      <use xlink:href="#DejaVuSans-69" x="151.443359"/>
      <use xlink:href="#DejaVuSans-7a" x="179.226562"/>
      <use xlink:href="#DejaVuSans-69" x="231.716797"/>
      <use xlink:href="#DejaVuSans-6e" x="259.5"/>
      <use xlink:href="#DejaVuSans-68" x="322.878906"/>
      <use xlink:href="#DejaVuSans-6f" x="386.257812"/>
      <use xlink:href="#DejaVuSans-73" x="447.439453"/>
      <use xlink:href="#DejaVuSans-20" x="499.539062"/>
      <use xlink:href="#DejaVuSans-4d" x="531.326172"/>
      <use xlink:href="#DejaVuSans-61" x="617.605469"/>
      <use xlink:href="#DejaVuSans-69" x="678.884766"/>
      <use xlink:href="#DejaVuSans-73" x="706.667969"/>
      <use xlink:href="#DejaVuSans-20" x="758.767578"/>
      <use xlink:href="#DejaVuSans-50" x="790.554688"/>
      <use xlink:href="#DejaVuSans-72" x="849.107422"/>
      <use xlink:href="#DejaVuSans-f3" x="887.970703"/>
      <use xlink:href="#DejaVuSans-78" x="946.027344"/>
      <use xlink:href="#DejaVuSans-69" x="1005.207031"/>
      <use xlink:href="#DejaVuSans-6d" x="1032.990234"/>
      <use xlink:href="#DejaVuSans-6f" x="1130.402344"/>
      <use xlink:href="#DejaVuSans-73" x="1191.583984"/>
     </g>
    </g>
    <g id="line2d_94">
     <path d="M 599.0125 674.951563 
L 609.0125 674.951563 
L 619.0125 674.951563 
" style="fill: none; stroke: #d62728; stroke-width: 1.5; stroke-linecap: square"/>
    </g>
    <g id="text_46">
     <!-- Árvore de Decisão -->
     <g transform="translate(627.0125 678.451563) scale(0.1 -0.1)">
      <defs>
       <path id="DejaVuSans-c1" d="M 2188 4044 
L 1331 1722 
L 3047 1722 
L 2188 4044 
z
M 1831 4666 
L 2547 4666 
L 4325 0 
L 3669 0 
L 3244 1197 
L 1141 1197 
L 716 0 
L 50 0 
L 1831 4666 
z
M 2356 5921 
L 2934 5921 
L 2222 5096 
L 1743 5096 
L 2356 5921 
z
" transform="scale(0.015625)"/>
       <path id="DejaVuSans-76" d="M 191 3500 
L 800 3500 
L 1894 563 
L 2988 3500 
L 3597 3500 
L 2284 0 
L 1503 0 
L 191 3500 
z
" transform="scale(0.015625)"/>
       <path id="DejaVuSans-44" d="M 1259 4147 
L 1259 519 
L 2022 519 
Q 2988 519 3436 956 
Q 3884 1394 3884 2338 
Q 3884 3275 3436 3711 
Q 2988 4147 2022 4147 
L 1259 4147 
z
M 628 4666 
L 1925 4666 
Q 3281 4666 3915 4102 
Q 4550 3538 4550 2338 
Q 4550 1131 3912 565 
Q 3275 0 1925 0 
L 628 0 
L 628 4666 
z
" transform="scale(0.015625)"/>
      </defs>
      <use xlink:href="#DejaVuSans-c1"/>
      <use xlink:href="#DejaVuSans-72" x="68.408203"/>
      <use xlink:href="#DejaVuSans-76" x="109.521484"/>
      <use xlink:href="#DejaVuSans-6f" x="168.701172"/>
      <use xlink:href="#DejaVuSans-72" x="229.882812"/>
      <use xlink:href="#DejaVuSans-65" x="268.746094"/>
      <use xlink:href="#DejaVuSans-20" x="330.269531"/>
      <use xlink:href="#DejaVuSans-64" x="362.056641"/>
      <use xlink:href="#DejaVuSans-65" x="425.533203"/>
      <use xlink:href="#DejaVuSans-20" x="487.056641"/>
      <use xlink:href="#DejaVuSans-44" x="518.84375"/>
      <use xlink:href="#DejaVuSans-65" x="595.845703"/>
      <use xlink:href="#DejaVuSans-63" x="657.369141"/>
      <use xlink:href="#DejaVuSans-69" x="712.349609"/>
      <use xlink:href="#DejaVuSans-73" x="740.132812"/>
      <use xlink:href="#DejaVuSans-e3" x="792.232422"/>
      <use xlink:href="#DejaVuSans-6f" x="853.511719"/>
     </g>
    </g>
    <g id="line2d_95">
     <path d="M 599.0125 689.629688 
L 609.0125 689.629688 
L 619.0125 689.629688 
" style="fill: none; stroke: #7f7f7f; stroke-width: 1.5; stroke-linecap: square"/>
    </g>
    <g id="text_47">
     <!-- Árvores Extras -->
     <g transform="translate(627.0125 693.129688) scale(0.1 -0.1)">
      <use xlink:href="#DejaVuSans-c1"/>
      <use xlink:href="#DejaVuSans-72" x="68.408203"/>
      <use xlink:href="#DejaVuSans-76" x="109.521484"/>
      <use xlink:href="#DejaVuSans-6f" x="168.701172"/>
      <use xlink:href="#DejaVuSans-72" x="229.882812"/>
      <use xlink:href="#DejaVuSans-65" x="268.746094"/>
      <use xlink:href="#DejaVuSans-73" x="330.269531"/>
      <use xlink:href="#DejaVuSans-20" x="382.369141"/>
      <use xlink:href="#DejaVuSans-45" x="414.15625"/>
      <use xlink:href="#DejaVuSans-78" x="477.339844"/>
      <use xlink:href="#DejaVuSans-74" x="536.519531"/>
      <use xlink:href="#DejaVuSans-72" x="575.728516"/>
      <use xlink:href="#DejaVuSans-61" x="616.841797"/>
      <use xlink:href="#DejaVuSans-73" x="678.121094"/>
     </g>
    </g>
    <g id="line2d_96">
     <path d="M 599.0125 704.307813 
L 609.0125 704.307813 
L 619.0125 704.307813 
" style="fill: none; stroke: #e59d93; stroke-width: 1.5; stroke-linecap: square"/>
    </g>
    <g id="text_48">
     <!-- Floresta Aleatória -->
     <g transform="translate(627.0125 707.807813) scale(0.1 -0.1)">
      <defs>
       <path id="DejaVuSans-46" d="M 628 4666 
L 3309 4666 
L 3309 4134 
L 1259 4134 
L 1259 2759 
L 3109 2759 
L 3109 2228 
L 1259 2228 
L 1259 0 
L 628 0 
L 628 4666 
z
" transform="scale(0.015625)"/>
      </defs>
      <use xlink:href="#DejaVuSans-46"/>
      <use xlink:href="#DejaVuSans-6c" x="57.519531"/>
      <use xlink:href="#DejaVuSans-6f" x="85.302734"/>
      <use xlink:href="#DejaVuSans-72" x="146.484375"/>
      <use xlink:href="#DejaVuSans-65" x="185.347656"/>
      <use xlink:href="#DejaVuSans-73" x="246.871094"/>
      <use xlink:href="#DejaVuSans-74" x="298.970703"/>
      <use xlink:href="#DejaVuSans-61" x="338.179688"/>
      <use xlink:href="#DejaVuSans-20" x="399.458984"/>
      <use xlink:href="#DejaVuSans-41" x="431.246094"/>
      <use xlink:href="#DejaVuSans-6c" x="499.654297"/>
      <use xlink:href="#DejaVuSans-65" x="527.4375"/>
      <use xlink:href="#DejaVuSans-61" x="588.960938"/>
      <use xlink:href="#DejaVuSans-74" x="650.240234"/>
      <use xlink:href="#DejaVuSans-f3" x="689.449219"/>
      <use xlink:href="#DejaVuSans-72" x="750.630859"/>
      <use xlink:href="#DejaVuSans-69" x="791.744141"/>
      <use xlink:href="#DejaVuSans-61" x="819.527344"/>
     </g>
    </g>
    <g id="line2d_97">
     <path d="M 599.0125 718.985938 
L 609.0125 718.985938 
L 619.0125 718.985938 
" style="fill: none; stroke: #8c564b; stroke-width: 1.5; stroke-linecap: square"/>
    </g>
    <g id="text_49">
     <!-- Gradiente Boosting Machine -->
     <g transform="translate(627.0125 722.485938) scale(0.1 -0.1)">
      <defs>
       <path id="DejaVuSans-47" d="M 3809 666 
L 3809 1919 
L 2778 1919 
L 2778 2438 
L 4434 2438 
L 4434 434 
Q 4069 175 3628 42 
Q 3188 -91 2688 -91 
Q 1594 -91 976 548 
Q 359 1188 359 2328 
Q 359 3472 976 4111 
Q 1594 4750 2688 4750 
Q 3144 4750 3555 4637 
Q 3966 4525 4313 4306 
L 4313 3634 
Q 3963 3931 3569 4081 
Q 3175 4231 2741 4231 
Q 1884 4231 1454 3753 
Q 1025 3275 1025 2328 
Q 1025 1384 1454 906 
Q 1884 428 2741 428 
Q 3075 428 3337 486 
Q 3600 544 3809 666 
z
" transform="scale(0.015625)"/>
       <path id="DejaVuSans-42" d="M 1259 2228 
L 1259 519 
L 2272 519 
Q 2781 519 3026 730 
Q 3272 941 3272 1375 
Q 3272 1813 3026 2020 
Q 2781 2228 2272 2228 
L 1259 2228 
z
M 1259 4147 
L 1259 2741 
L 2194 2741 
Q 2656 2741 2882 2914 
Q 3109 3088 3109 3444 
Q 3109 3797 2882 3972 
Q 2656 4147 2194 4147 
L 1259 4147 
z
M 628 4666 
L 2241 4666 
Q 2963 4666 3353 4366 
Q 3744 4066 3744 3513 
Q 3744 3084 3544 2831 
Q 3344 2578 2956 2516 
Q 3422 2416 3680 2098 
Q 3938 1781 3938 1306 
Q 3938 681 3513 340 
Q 3088 0 2303 0 
L 628 0 
L 628 4666 
z
" transform="scale(0.015625)"/>
      </defs>
      <use xlink:href="#DejaVuSans-47"/>
      <use xlink:href="#DejaVuSans-72" x="77.490234"/>
      <use xlink:href="#DejaVuSans-61" x="118.603516"/>
      <use xlink:href="#DejaVuSans-64" x="179.882812"/>
      <use xlink:href="#DejaVuSans-69" x="243.359375"/>
      <use xlink:href="#DejaVuSans-65" x="271.142578"/>
      <use xlink:href="#DejaVuSans-6e" x="332.666016"/>
      <use xlink:href="#DejaVuSans-74" x="396.044922"/>
      <use xlink:href="#DejaVuSans-65" x="435.253906"/>
      <use xlink:href="#DejaVuSans-20" x="496.777344"/>
      <use xlink:href="#DejaVuSans-42" x="528.564453"/>
      <use xlink:href="#DejaVuSans-6f" x="597.167969"/>
      <use xlink:href="#DejaVuSans-6f" x="658.349609"/>
      <use xlink:href="#DejaVuSans-73" x="719.53125"/>
      <use xlink:href="#DejaVuSans-74" x="771.630859"/>
      <use xlink:href="#DejaVuSans-69" x="810.839844"/>
      <use xlink:href="#DejaVuSans-6e" x="838.623047"/>
      <use xlink:href="#DejaVuSans-67" x="902.001953"/>
      <use xlink:href="#DejaVuSans-20" x="965.478516"/>
      <use xlink:href="#DejaVuSans-4d" x="997.265625"/>
      <use xlink:href="#DejaVuSans-61" x="1083.544922"/>
      <use xlink:href="#DejaVuSans-63" x="1144.824219"/>
      <use xlink:href="#DejaVuSans-68" x="1199.804688"/>
      <use xlink:href="#DejaVuSans-69" x="1263.183594"/>
      <use xlink:href="#DejaVuSans-6e" x="1290.966797"/>
      <use xlink:href="#DejaVuSans-65" x="1354.345703"/>
     </g>
    </g>
    <g id="line2d_98">
     <path d="M 599.0125 733.664062 
L 609.0125 733.664062 
L 619.0125 733.664062 
" style="fill: none; stroke: #e377c2; stroke-width: 1.5; stroke-linecap: square"/>
    </g>
    <g id="text_50">
     <!-- eXtreme Gradient Boosting -->
     <g transform="translate(627.0125 737.164062) scale(0.1 -0.1)">
      <defs>
       <path id="DejaVuSans-58" d="M 403 4666 
L 1081 4666 
L 2241 2931 
L 3406 4666 
L 4084 4666 
L 2584 2425 
L 4184 0 
L 3506 0 
L 2194 1984 
L 872 0 
L 191 0 
L 1856 2491 
L 403 4666 
z
" transform="scale(0.015625)"/>
      </defs>
      <use xlink:href="#DejaVuSans-65"/>
      <use xlink:href="#DejaVuSans-58" x="61.523438"/>
      <use xlink:href="#DejaVuSans-74" x="130.029297"/>
      <use xlink:href="#DejaVuSans-72" x="169.238281"/>
      <use xlink:href="#DejaVuSans-65" x="208.101562"/>
      <use xlink:href="#DejaVuSans-6d" x="269.625"/>
      <use xlink:href="#DejaVuSans-65" x="367.037109"/>
      <use xlink:href="#DejaVuSans-20" x="428.560547"/>
      <use xlink:href="#DejaVuSans-47" x="460.347656"/>
      <use xlink:href="#DejaVuSans-72" x="537.837891"/>
      <use xlink:href="#DejaVuSans-61" x="578.951172"/>
      <use xlink:href="#DejaVuSans-64" x="640.230469"/>
      <use xlink:href="#DejaVuSans-69" x="703.707031"/>
      <use xlink:href="#DejaVuSans-65" x="731.490234"/>
      <use xlink:href="#DejaVuSans-6e" x="793.013672"/>
      <use xlink:href="#DejaVuSans-74" x="856.392578"/>
      <use xlink:href="#DejaVuSans-20" x="895.601562"/>
      <use xlink:href="#DejaVuSans-42" x="927.388672"/>
      <use xlink:href="#DejaVuSans-6f" x="995.992188"/>
      <use xlink:href="#DejaVuSans-6f" x="1057.173828"/>
      <use xlink:href="#DejaVuSans-73" x="1118.355469"/>
      <use xlink:href="#DejaVuSans-74" x="1170.455078"/>
      <use xlink:href="#DejaVuSans-69" x="1209.664062"/>
      <use xlink:href="#DejaVuSans-6e" x="1237.447266"/>
      <use xlink:href="#DejaVuSans-67" x="1300.826172"/>
     </g>
    </g>
    <g id="line2d_99">
     <path d="M 599.0125 748.342188 
L 609.0125 748.342188 
L 619.0125 748.342188 
" style="fill: none; stroke: #17becf; stroke-width: 1.5; stroke-linecap: square"/>
    </g>
    <g id="text_51">
     <!-- Light Gradient Boosting -->
     <g transform="translate(627.0125 751.842188) scale(0.1 -0.1)">
      <use xlink:href="#DejaVuSans-4c"/>
      <use xlink:href="#DejaVuSans-69" x="55.712891"/>
      <use xlink:href="#DejaVuSans-67" x="83.496094"/>
      <use xlink:href="#DejaVuSans-68" x="146.972656"/>
      <use xlink:href="#DejaVuSans-74" x="210.351562"/>
      <use xlink:href="#DejaVuSans-20" x="249.560547"/>
      <use xlink:href="#DejaVuSans-47" x="281.347656"/>
      <use xlink:href="#DejaVuSans-72" x="358.837891"/>
      <use xlink:href="#DejaVuSans-61" x="399.951172"/>
      <use xlink:href="#DejaVuSans-64" x="461.230469"/>
      <use xlink:href="#DejaVuSans-69" x="524.707031"/>
      <use xlink:href="#DejaVuSans-65" x="552.490234"/>
      <use xlink:href="#DejaVuSans-6e" x="614.013672"/>
      <use xlink:href="#DejaVuSans-74" x="677.392578"/>
      <use xlink:href="#DejaVuSans-20" x="716.601562"/>
      <use xlink:href="#DejaVuSans-42" x="748.388672"/>
      <use xlink:href="#DejaVuSans-6f" x="816.992188"/>
      <use xlink:href="#DejaVuSans-6f" x="878.173828"/>
      <use xlink:href="#DejaVuSans-73" x="939.355469"/>
      <use xlink:href="#DejaVuSans-74" x="991.455078"/>
      <use xlink:href="#DejaVuSans-69" x="1030.664062"/>
      <use xlink:href="#DejaVuSans-6e" x="1058.447266"/>
      <use xlink:href="#DejaVuSans-67" x="1121.826172"/>
     </g>
    </g>
    <g id="line2d_100">
     <path d="M 599.0125 763.020313 
L 609.0125 763.020313 
L 619.0125 763.020313 
" style="fill: none; stroke: #bcbd22; stroke-width: 1.5; stroke-linecap: square"/>
    </g>
    <g id="text_52">
     <!-- Categorical Boosting -->
     <g transform="translate(627.0125 766.520313) scale(0.1 -0.1)">
      <defs>
       <path id="DejaVuSans-43" d="M 4122 4306 
L 4122 3641 
Q 3803 3938 3442 4084 
Q 3081 4231 2675 4231 
Q 1875 4231 1450 3742 
Q 1025 3253 1025 2328 
Q 1025 1406 1450 917 
Q 1875 428 2675 428 
Q 3081 428 3442 575 
Q 3803 722 4122 1019 
L 4122 359 
Q 3791 134 3420 21 
Q 3050 -91 2638 -91 
Q 1578 -91 968 557 
Q 359 1206 359 2328 
Q 359 3453 968 4101 
Q 1578 4750 2638 4750 
Q 3056 4750 3426 4639 
Q 3797 4528 4122 4306 
z
" transform="scale(0.015625)"/>
      </defs>
      <use xlink:href="#DejaVuSans-43"/>
      <use xlink:href="#DejaVuSans-61" x="69.824219"/>
      <use xlink:href="#DejaVuSans-74" x="131.103516"/>
      <use xlink:href="#DejaVuSans-65" x="170.3125"/>
      <use xlink:href="#DejaVuSans-67" x="231.835938"/>
      <use xlink:href="#DejaVuSans-6f" x="295.3125"/>
      <use xlink:href="#DejaVuSans-72" x="356.494141"/>
      <use xlink:href="#DejaVuSans-69" x="397.607422"/>
      <use xlink:href="#DejaVuSans-63" x="425.390625"/>
      <use xlink:href="#DejaVuSans-61" x="480.371094"/>
      <use xlink:href="#DejaVuSans-6c" x="541.650391"/>
      <use xlink:href="#DejaVuSans-20" x="569.433594"/>
      <use xlink:href="#DejaVuSans-42" x="601.220703"/>
      <use xlink:href="#DejaVuSans-6f" x="669.824219"/>
      <use xlink:href="#DejaVuSans-6f" x="731.005859"/>
      <use xlink:href="#DejaVuSans-73" x="792.1875"/>
      <use xlink:href="#DejaVuSans-74" x="844.287109"/>
      <use xlink:href="#DejaVuSans-69" x="883.496094"/>
      <use xlink:href="#DejaVuSans-6e" x="911.279297"/>
      <use xlink:href="#DejaVuSans-67" x="974.658203"/>
     </g>
    </g>
   </g>
  </g>
 </g>
 <defs>
  <clipPath id="p492e898bd6">
   <rect x="86.4" y="86.4" width="691.2" height="691.2"/>
  </clipPath>
 </defs>
</svg>
