<?xml version="1.0" encoding="utf-8" standalone="no"?>
<!DOCTYPE svg PUBLIC "-//W3C//DTD SVG 1.1//EN"
  "http://www.w3.org/Graphics/SVG/1.1/DTD/svg11.dtd">
<svg xmlns:xlink="http://www.w3.org/1999/xlink" width="864pt" height="864pt" viewBox="0 0 864 864" xmlns="http://www.w3.org/2000/svg" version="1.1">
 <metadata>
  <rdf:RDF xmlns:dc="http://purl.org/dc/elements/1.1/" xmlns:cc="http://creativecommons.org/ns#" xmlns:rdf="http://www.w3.org/1999/02/22-rdf-syntax-ns#">
   <cc:Work>
    <dc:type rdf:resource="http://purl.org/dc/dcmitype/StillImage"/>
    <dc:date>2024-09-05T18:05:53.033324</dc:date>
    <dc:format>image/svg+xml</dc:format>
    <dc:creator>
     <cc:Agent>
      <dc:title>Matplotlib v3.9.1, https://matplotlib.org/</dc:title>
     </cc:Agent>
    </dc:creator>
   </cc:Work>
  </rdf:RDF>
 </metadata>
 <defs>
  <style type="text/css">*{stroke-linejoin: round; stroke-linecap: butt}</style>
 </defs>
 <g id="figure_1">
  <g id="patch_1">
   <path d="M 0 864 
L 864 864 
L 864 0 
L 0 0 
z
" style="fill: #ffffff"/>
  </g>
  <g id="axes_1">
   <g id="patch_2">
    <path d="M 86.4 777.6 
L 777.6 777.6 
L 777.6 86.4 
L 86.4 86.4 
z
" style="fill: #ffffff"/>
   </g>
   <g id="matplotlib.axis_1">
    <g id="xtick_1">
     <g id="line2d_1">
      <path d="M 117.818182 777.6 
L 117.818182 86.4 
" clip-path="url(#paff75db8b0)" style="fill: none; stroke: #b0b0b0; stroke-width: 0.8; stroke-linecap: square"/>
     </g>
     <g id="line2d_2">
      <defs>
       <path id="m62fb8d5b82" d="M 0 0 
L 0 3.5 
" style="stroke: #000000; stroke-width: 0.8"/>
      </defs>
      <g>
       <use xlink:href="#m62fb8d5b82" x="117.818182" y="777.6" style="stroke: #000000; stroke-width: 0.8"/>
      </g>
     </g>
     <g id="text_1">
      <!-- 1 -->
      <g transform="translate(114.636932 792.198438) scale(0.1 -0.1)">
       <defs>
        <path id="DejaVuSans-31" d="M 794 531 
L 1825 531 
L 1825 4091 
L 703 3866 
L 703 4441 
L 1819 4666 
L 2450 4666 
L 2450 531 
L 3481 531 
L 3481 0 
L 794 0 
L 794 531 
z
" transform="scale(0.015625)"/>
       </defs>
       <use xlink:href="#DejaVuSans-31"/>
      </g>
     </g>
    </g>
    <g id="xtick_2">
     <g id="line2d_3">
      <path d="M 151.783784 777.6 
L 151.783784 86.4 
" clip-path="url(#paff75db8b0)" style="fill: none; stroke: #b0b0b0; stroke-width: 0.8; stroke-linecap: square"/>
     </g>
     <g id="line2d_4">
      <g>
       <use xlink:href="#m62fb8d5b82" x="151.783784" y="777.6" style="stroke: #000000; stroke-width: 0.8"/>
      </g>
     </g>
     <g id="text_2">
      <!-- 5 -->
      <g transform="translate(148.602534 792.198438) scale(0.1 -0.1)">
       <defs>
        <path id="DejaVuSans-35" d="M 691 4666 
L 3169 4666 
L 3169 4134 
L 1269 4134 
L 1269 2991 
Q 1406 3038 1543 3061 
Q 1681 3084 1819 3084 
Q 2600 3084 3056 2656 
Q 3513 2228 3513 1497 
Q 3513 744 3044 326 
Q 2575 -91 1722 -91 
Q 1428 -91 1123 -41 
Q 819 9 494 109 
L 494 744 
Q 775 591 1075 516 
Q 1375 441 1709 441 
Q 2250 441 2565 725 
Q 2881 1009 2881 1497 
Q 2881 1984 2565 2268 
Q 2250 2553 1709 2553 
Q 1456 2553 1204 2497 
Q 953 2441 691 2322 
L 691 4666 
z
" transform="scale(0.015625)"/>
       </defs>
       <use xlink:href="#DejaVuSans-35"/>
      </g>
     </g>
    </g>
    <g id="xtick_3">
     <g id="line2d_5">
      <path d="M 185.749386 777.6 
L 185.749386 86.4 
" clip-path="url(#paff75db8b0)" style="fill: none; stroke: #b0b0b0; stroke-width: 0.8; stroke-linecap: square"/>
     </g>
     <g id="line2d_6">
      <g>
       <use xlink:href="#m62fb8d5b82" x="185.749386" y="777.6" style="stroke: #000000; stroke-width: 0.8"/>
      </g>
     </g>
     <g id="text_3">
      <!-- 9 -->
      <g transform="translate(182.568136 792.198438) scale(0.1 -0.1)">
       <defs>
        <path id="DejaVuSans-39" d="M 703 97 
L 703 672 
Q 941 559 1184 500 
Q 1428 441 1663 441 
Q 2288 441 2617 861 
Q 2947 1281 2994 2138 
Q 2813 1869 2534 1725 
Q 2256 1581 1919 1581 
Q 1219 1581 811 2004 
Q 403 2428 403 3163 
Q 403 3881 828 4315 
Q 1253 4750 1959 4750 
Q 2769 4750 3195 4129 
Q 3622 3509 3622 2328 
Q 3622 1225 3098 567 
Q 2575 -91 1691 -91 
Q 1453 -91 1209 -44 
Q 966 3 703 97 
z
M 1959 2075 
Q 2384 2075 2632 2365 
Q 2881 2656 2881 3163 
Q 2881 3666 2632 3958 
Q 2384 4250 1959 4250 
Q 1534 4250 1286 3958 
Q 1038 3666 1038 3163 
Q 1038 2656 1286 2365 
Q 1534 2075 1959 2075 
z
" transform="scale(0.015625)"/>
       </defs>
       <use xlink:href="#DejaVuSans-39"/>
      </g>
     </g>
    </g>
    <g id="xtick_4">
     <g id="line2d_7">
      <path d="M 219.714988 777.6 
L 219.714988 86.4 
" clip-path="url(#paff75db8b0)" style="fill: none; stroke: #b0b0b0; stroke-width: 0.8; stroke-linecap: square"/>
     </g>
     <g id="line2d_8">
      <g>
       <use xlink:href="#m62fb8d5b82" x="219.714988" y="777.6" style="stroke: #000000; stroke-width: 0.8"/>
      </g>
     </g>
     <g id="text_4">
      <!-- 13 -->
      <g transform="translate(213.352488 792.198438) scale(0.1 -0.1)">
       <defs>
        <path id="DejaVuSans-33" d="M 2597 2516 
Q 3050 2419 3304 2112 
Q 3559 1806 3559 1356 
Q 3559 666 3084 287 
Q 2609 -91 1734 -91 
Q 1441 -91 1130 -33 
Q 819 25 488 141 
L 488 750 
Q 750 597 1062 519 
Q 1375 441 1716 441 
Q 2309 441 2620 675 
Q 2931 909 2931 1356 
Q 2931 1769 2642 2001 
Q 2353 2234 1838 2234 
L 1294 2234 
L 1294 2753 
L 1863 2753 
Q 2328 2753 2575 2939 
Q 2822 3125 2822 3475 
Q 2822 3834 2567 4026 
Q 2313 4219 1838 4219 
Q 1578 4219 1281 4162 
Q 984 4106 628 3988 
L 628 4550 
Q 988 4650 1302 4700 
Q 1616 4750 1894 4750 
Q 2613 4750 3031 4423 
Q 3450 4097 3450 3541 
Q 3450 3153 3228 2886 
Q 3006 2619 2597 2516 
z
" transform="scale(0.015625)"/>
       </defs>
       <use xlink:href="#DejaVuSans-31"/>
       <use xlink:href="#DejaVuSans-33" x="63.623047"/>
      </g>
     </g>
    </g>
    <g id="xtick_5">
     <g id="line2d_9">
      <path d="M 253.68059 777.6 
L 253.68059 86.4 
" clip-path="url(#paff75db8b0)" style="fill: none; stroke: #b0b0b0; stroke-width: 0.8; stroke-linecap: square"/>
     </g>
     <g id="line2d_10">
      <g>
       <use xlink:href="#m62fb8d5b82" x="253.68059" y="777.6" style="stroke: #000000; stroke-width: 0.8"/>
      </g>
     </g>
     <g id="text_5">
      <!-- 17 -->
      <g transform="translate(247.31809 792.198438) scale(0.1 -0.1)">
       <defs>
        <path id="DejaVuSans-37" d="M 525 4666 
L 3525 4666 
L 3525 4397 
L 1831 0 
L 1172 0 
L 2766 4134 
L 525 4134 
L 525 4666 
z
" transform="scale(0.015625)"/>
       </defs>
       <use xlink:href="#DejaVuSans-31"/>
       <use xlink:href="#DejaVuSans-37" x="63.623047"/>
      </g>
     </g>
    </g>
    <g id="xtick_6">
     <g id="line2d_11">
      <path d="M 287.646192 777.6 
L 287.646192 86.4 
" clip-path="url(#paff75db8b0)" style="fill: none; stroke: #b0b0b0; stroke-width: 0.8; stroke-linecap: square"/>
     </g>
     <g id="line2d_12">
      <g>
       <use xlink:href="#m62fb8d5b82" x="287.646192" y="777.6" style="stroke: #000000; stroke-width: 0.8"/>
      </g>
     </g>
     <g id="text_6">
      <!-- 21 -->
      <g transform="translate(281.283692 792.198438) scale(0.1 -0.1)">
       <defs>
        <path id="DejaVuSans-32" d="M 1228 531 
L 3431 531 
L 3431 0 
L 469 0 
L 469 531 
Q 828 903 1448 1529 
Q 2069 2156 2228 2338 
Q 2531 2678 2651 2914 
Q 2772 3150 2772 3378 
Q 2772 3750 2511 3984 
Q 2250 4219 1831 4219 
Q 1534 4219 1204 4116 
Q 875 4013 500 3803 
L 500 4441 
Q 881 4594 1212 4672 
Q 1544 4750 1819 4750 
Q 2544 4750 2975 4387 
Q 3406 4025 3406 3419 
Q 3406 3131 3298 2873 
Q 3191 2616 2906 2266 
Q 2828 2175 2409 1742 
Q 1991 1309 1228 531 
z
" transform="scale(0.015625)"/>
       </defs>
       <use xlink:href="#DejaVuSans-32"/>
       <use xlink:href="#DejaVuSans-31" x="63.623047"/>
      </g>
     </g>
    </g>
    <g id="xtick_7">
     <g id="line2d_13">
      <path d="M 321.611794 777.6 
L 321.611794 86.4 
" clip-path="url(#paff75db8b0)" style="fill: none; stroke: #b0b0b0; stroke-width: 0.8; stroke-linecap: square"/>
     </g>
     <g id="line2d_14">
      <g>
       <use xlink:href="#m62fb8d5b82" x="321.611794" y="777.6" style="stroke: #000000; stroke-width: 0.8"/>
      </g>
     </g>
     <g id="text_7">
      <!-- 25 -->
      <g transform="translate(315.249294 792.198438) scale(0.1 -0.1)">
       <use xlink:href="#DejaVuSans-32"/>
       <use xlink:href="#DejaVuSans-35" x="63.623047"/>
      </g>
     </g>
    </g>
    <g id="xtick_8">
     <g id="line2d_15">
      <path d="M 355.577396 777.6 
L 355.577396 86.4 
" clip-path="url(#paff75db8b0)" style="fill: none; stroke: #b0b0b0; stroke-width: 0.8; stroke-linecap: square"/>
     </g>
     <g id="line2d_16">
      <g>
       <use xlink:href="#m62fb8d5b82" x="355.577396" y="777.6" style="stroke: #000000; stroke-width: 0.8"/>
      </g>
     </g>
     <g id="text_8">
      <!-- 29 -->
      <g transform="translate(349.214896 792.198438) scale(0.1 -0.1)">
       <use xlink:href="#DejaVuSans-32"/>
       <use xlink:href="#DejaVuSans-39" x="63.623047"/>
      </g>
     </g>
    </g>
    <g id="xtick_9">
     <g id="line2d_17">
      <path d="M 389.542998 777.6 
L 389.542998 86.4 
" clip-path="url(#paff75db8b0)" style="fill: none; stroke: #b0b0b0; stroke-width: 0.8; stroke-linecap: square"/>
     </g>
     <g id="line2d_18">
      <g>
       <use xlink:href="#m62fb8d5b82" x="389.542998" y="777.6" style="stroke: #000000; stroke-width: 0.8"/>
      </g>
     </g>
     <g id="text_9">
      <!-- 33 -->
      <g transform="translate(383.180498 792.198438) scale(0.1 -0.1)">
       <use xlink:href="#DejaVuSans-33"/>
       <use xlink:href="#DejaVuSans-33" x="63.623047"/>
      </g>
     </g>
    </g>
    <g id="xtick_10">
     <g id="line2d_19">
      <path d="M 423.5086 777.6 
L 423.5086 86.4 
" clip-path="url(#paff75db8b0)" style="fill: none; stroke: #b0b0b0; stroke-width: 0.8; stroke-linecap: square"/>
     </g>
     <g id="line2d_20">
      <g>
       <use xlink:href="#m62fb8d5b82" x="423.5086" y="777.6" style="stroke: #000000; stroke-width: 0.8"/>
      </g>
     </g>
     <g id="text_10">
      <!-- 37 -->
      <g transform="translate(417.1461 792.198438) scale(0.1 -0.1)">
       <use xlink:href="#DejaVuSans-33"/>
       <use xlink:href="#DejaVuSans-37" x="63.623047"/>
      </g>
     </g>
    </g>
    <g id="xtick_11">
     <g id="line2d_21">
      <path d="M 457.474201 777.6 
L 457.474201 86.4 
" clip-path="url(#paff75db8b0)" style="fill: none; stroke: #b0b0b0; stroke-width: 0.8; stroke-linecap: square"/>
     </g>
     <g id="line2d_22">
      <g>
       <use xlink:href="#m62fb8d5b82" x="457.474201" y="777.6" style="stroke: #000000; stroke-width: 0.8"/>
      </g>
     </g>
     <g id="text_11">
      <!-- 41 -->
      <g transform="translate(451.111701 792.198438) scale(0.1 -0.1)">
       <defs>
        <path id="DejaVuSans-34" d="M 2419 4116 
L 825 1625 
L 2419 1625 
L 2419 4116 
z
M 2253 4666 
L 3047 4666 
L 3047 1625 
L 3713 1625 
L 3713 1100 
L 3047 1100 
L 3047 0 
L 2419 0 
L 2419 1100 
L 313 1100 
L 313 1709 
L 2253 4666 
z
" transform="scale(0.015625)"/>
       </defs>
       <use xlink:href="#DejaVuSans-34"/>
       <use xlink:href="#DejaVuSans-31" x="63.623047"/>
      </g>
     </g>
    </g>
    <g id="xtick_12">
     <g id="line2d_23">
      <path d="M 491.439803 777.6 
L 491.439803 86.4 
" clip-path="url(#paff75db8b0)" style="fill: none; stroke: #b0b0b0; stroke-width: 0.8; stroke-linecap: square"/>
     </g>
     <g id="line2d_24">
      <g>
       <use xlink:href="#m62fb8d5b82" x="491.439803" y="777.6" style="stroke: #000000; stroke-width: 0.8"/>
      </g>
     </g>
     <g id="text_12">
      <!-- 45 -->
      <g transform="translate(485.077303 792.198438) scale(0.1 -0.1)">
       <use xlink:href="#DejaVuSans-34"/>
       <use xlink:href="#DejaVuSans-35" x="63.623047"/>
      </g>
     </g>
    </g>
    <g id="xtick_13">
     <g id="line2d_25">
      <path d="M 525.405405 777.6 
L 525.405405 86.4 
" clip-path="url(#paff75db8b0)" style="fill: none; stroke: #b0b0b0; stroke-width: 0.8; stroke-linecap: square"/>
     </g>
     <g id="line2d_26">
      <g>
       <use xlink:href="#m62fb8d5b82" x="525.405405" y="777.6" style="stroke: #000000; stroke-width: 0.8"/>
      </g>
     </g>
     <g id="text_13">
      <!-- 49 -->
      <g transform="translate(519.042905 792.198438) scale(0.1 -0.1)">
       <use xlink:href="#DejaVuSans-34"/>
       <use xlink:href="#DejaVuSans-39" x="63.623047"/>
      </g>
     </g>
    </g>
    <g id="xtick_14">
     <g id="line2d_27">
      <path d="M 559.371007 777.6 
L 559.371007 86.4 
" clip-path="url(#paff75db8b0)" style="fill: none; stroke: #b0b0b0; stroke-width: 0.8; stroke-linecap: square"/>
     </g>
     <g id="line2d_28">
      <g>
       <use xlink:href="#m62fb8d5b82" x="559.371007" y="777.6" style="stroke: #000000; stroke-width: 0.8"/>
      </g>
     </g>
     <g id="text_14">
      <!-- 53 -->
      <g transform="translate(553.008507 792.198438) scale(0.1 -0.1)">
       <use xlink:href="#DejaVuSans-35"/>
       <use xlink:href="#DejaVuSans-33" x="63.623047"/>
      </g>
     </g>
    </g>
    <g id="xtick_15">
     <g id="line2d_29">
      <path d="M 593.336609 777.6 
L 593.336609 86.4 
" clip-path="url(#paff75db8b0)" style="fill: none; stroke: #b0b0b0; stroke-width: 0.8; stroke-linecap: square"/>
     </g>
     <g id="line2d_30">
      <g>
       <use xlink:href="#m62fb8d5b82" x="593.336609" y="777.6" style="stroke: #000000; stroke-width: 0.8"/>
      </g>
     </g>
     <g id="text_15">
      <!-- 57 -->
      <g transform="translate(586.974109 792.198438) scale(0.1 -0.1)">
       <use xlink:href="#DejaVuSans-35"/>
       <use xlink:href="#DejaVuSans-37" x="63.623047"/>
      </g>
     </g>
    </g>
    <g id="xtick_16">
     <g id="line2d_31">
      <path d="M 627.302211 777.6 
L 627.302211 86.4 
" clip-path="url(#paff75db8b0)" style="fill: none; stroke: #b0b0b0; stroke-width: 0.8; stroke-linecap: square"/>
     </g>
     <g id="line2d_32">
      <g>
       <use xlink:href="#m62fb8d5b82" x="627.302211" y="777.6" style="stroke: #000000; stroke-width: 0.8"/>
      </g>
     </g>
     <g id="text_16">
      <!-- 61 -->
      <g transform="translate(620.939711 792.198438) scale(0.1 -0.1)">
       <defs>
        <path id="DejaVuSans-36" d="M 2113 2584 
Q 1688 2584 1439 2293 
Q 1191 2003 1191 1497 
Q 1191 994 1439 701 
Q 1688 409 2113 409 
Q 2538 409 2786 701 
Q 3034 994 3034 1497 
Q 3034 2003 2786 2293 
Q 2538 2584 2113 2584 
z
M 3366 4563 
L 3366 3988 
Q 3128 4100 2886 4159 
Q 2644 4219 2406 4219 
Q 1781 4219 1451 3797 
Q 1122 3375 1075 2522 
Q 1259 2794 1537 2939 
Q 1816 3084 2150 3084 
Q 2853 3084 3261 2657 
Q 3669 2231 3669 1497 
Q 3669 778 3244 343 
Q 2819 -91 2113 -91 
Q 1303 -91 875 529 
Q 447 1150 447 2328 
Q 447 3434 972 4092 
Q 1497 4750 2381 4750 
Q 2619 4750 2861 4703 
Q 3103 4656 3366 4563 
z
" transform="scale(0.015625)"/>
       </defs>
       <use xlink:href="#DejaVuSans-36"/>
       <use xlink:href="#DejaVuSans-31" x="63.623047"/>
      </g>
     </g>
    </g>
    <g id="xtick_17">
     <g id="line2d_33">
      <path d="M 661.267813 777.6 
L 661.267813 86.4 
" clip-path="url(#paff75db8b0)" style="fill: none; stroke: #b0b0b0; stroke-width: 0.8; stroke-linecap: square"/>
     </g>
     <g id="line2d_34">
      <g>
       <use xlink:href="#m62fb8d5b82" x="661.267813" y="777.6" style="stroke: #000000; stroke-width: 0.8"/>
      </g>
     </g>
     <g id="text_17">
      <!-- 65 -->
      <g transform="translate(654.905313 792.198438) scale(0.1 -0.1)">
       <use xlink:href="#DejaVuSans-36"/>
       <use xlink:href="#DejaVuSans-35" x="63.623047"/>
      </g>
     </g>
    </g>
    <g id="xtick_18">
     <g id="line2d_35">
      <path d="M 695.233415 777.6 
L 695.233415 86.4 
" clip-path="url(#paff75db8b0)" style="fill: none; stroke: #b0b0b0; stroke-width: 0.8; stroke-linecap: square"/>
     </g>
     <g id="line2d_36">
      <g>
       <use xlink:href="#m62fb8d5b82" x="695.233415" y="777.6" style="stroke: #000000; stroke-width: 0.8"/>
      </g>
     </g>
     <g id="text_18">
      <!-- 69 -->
      <g transform="translate(688.870915 792.198438) scale(0.1 -0.1)">
       <use xlink:href="#DejaVuSans-36"/>
       <use xlink:href="#DejaVuSans-39" x="63.623047"/>
      </g>
     </g>
    </g>
    <g id="xtick_19">
     <g id="line2d_37">
      <path d="M 729.199017 777.6 
L 729.199017 86.4 
" clip-path="url(#paff75db8b0)" style="fill: none; stroke: #b0b0b0; stroke-width: 0.8; stroke-linecap: square"/>
     </g>
     <g id="line2d_38">
      <g>
       <use xlink:href="#m62fb8d5b82" x="729.199017" y="777.6" style="stroke: #000000; stroke-width: 0.8"/>
      </g>
     </g>
     <g id="text_19">
      <!-- 73 -->
      <g transform="translate(722.836517 792.198438) scale(0.1 -0.1)">
       <use xlink:href="#DejaVuSans-37"/>
       <use xlink:href="#DejaVuSans-33" x="63.623047"/>
      </g>
     </g>
    </g>
    <g id="xtick_20">
     <g id="line2d_39">
      <path d="M 746.181818 777.6 
L 746.181818 86.4 
" clip-path="url(#paff75db8b0)" style="fill: none; stroke: #b0b0b0; stroke-width: 0.8; stroke-linecap: square"/>
     </g>
     <g id="line2d_40">
      <g>
       <use xlink:href="#m62fb8d5b82" x="746.181818" y="777.6" style="stroke: #000000; stroke-width: 0.8"/>
      </g>
     </g>
     <g id="text_20">
      <!-- 75 -->
      <g transform="translate(739.819318 792.198438) scale(0.1 -0.1)">
       <use xlink:href="#DejaVuSans-37"/>
       <use xlink:href="#DejaVuSans-35" x="63.623047"/>
      </g>
     </g>
    </g>
    <g id="text_21">
     <!-- Número de Atributos Usados -->
     <g transform="translate(360.252344 805.876562) scale(0.1 -0.1)">
      <defs>
       <path id="DejaVuSans-4e" d="M 628 4666 
L 1478 4666 
L 3547 763 
L 3547 4666 
L 4159 4666 
L 4159 0 
L 3309 0 
L 1241 3903 
L 1241 0 
L 628 0 
L 628 4666 
z
" transform="scale(0.015625)"/>
       <path id="DejaVuSans-fa" d="M 544 1381 
L 544 3500 
L 1119 3500 
L 1119 1403 
Q 1119 906 1312 657 
Q 1506 409 1894 409 
Q 2359 409 2629 706 
Q 2900 1003 2900 1516 
L 2900 3500 
L 3475 3500 
L 3475 0 
L 2900 0 
L 2900 538 
Q 2691 219 2414 64 
Q 2138 -91 1772 -91 
Q 1169 -91 856 284 
Q 544 659 544 1381 
z
M 1991 3584 
L 1991 3584 
z
M 2418 5119 
L 3040 5119 
L 2022 3944 
L 1543 3944 
L 2418 5119 
z
" transform="scale(0.015625)"/>
       <path id="DejaVuSans-6d" d="M 3328 2828 
Q 3544 3216 3844 3400 
Q 4144 3584 4550 3584 
Q 5097 3584 5394 3201 
Q 5691 2819 5691 2113 
L 5691 0 
L 5113 0 
L 5113 2094 
Q 5113 2597 4934 2840 
Q 4756 3084 4391 3084 
Q 3944 3084 3684 2787 
Q 3425 2491 3425 1978 
L 3425 0 
L 2847 0 
L 2847 2094 
Q 2847 2600 2669 2842 
Q 2491 3084 2119 3084 
Q 1678 3084 1418 2786 
Q 1159 2488 1159 1978 
L 1159 0 
L 581 0 
L 581 3500 
L 1159 3500 
L 1159 2956 
Q 1356 3278 1631 3431 
Q 1906 3584 2284 3584 
Q 2666 3584 2933 3390 
Q 3200 3197 3328 2828 
z
" transform="scale(0.015625)"/>
       <path id="DejaVuSans-65" d="M 3597 1894 
L 3597 1613 
L 953 1613 
Q 991 1019 1311 708 
Q 1631 397 2203 397 
Q 2534 397 2845 478 
Q 3156 559 3463 722 
L 3463 178 
Q 3153 47 2828 -22 
Q 2503 -91 2169 -91 
Q 1331 -91 842 396 
Q 353 884 353 1716 
Q 353 2575 817 3079 
Q 1281 3584 2069 3584 
Q 2775 3584 3186 3129 
Q 3597 2675 3597 1894 
z
M 3022 2063 
Q 3016 2534 2758 2815 
Q 2500 3097 2075 3097 
Q 1594 3097 1305 2825 
Q 1016 2553 972 2059 
L 3022 2063 
z
" transform="scale(0.015625)"/>
       <path id="DejaVuSans-72" d="M 2631 2963 
Q 2534 3019 2420 3045 
Q 2306 3072 2169 3072 
Q 1681 3072 1420 2755 
Q 1159 2438 1159 1844 
L 1159 0 
L 581 0 
L 581 3500 
L 1159 3500 
L 1159 2956 
Q 1341 3275 1631 3429 
Q 1922 3584 2338 3584 
Q 2397 3584 2469 3576 
Q 2541 3569 2628 3553 
L 2631 2963 
z
" transform="scale(0.015625)"/>
       <path id="DejaVuSans-6f" d="M 1959 3097 
Q 1497 3097 1228 2736 
Q 959 2375 959 1747 
Q 959 1119 1226 758 
Q 1494 397 1959 397 
Q 2419 397 2687 759 
Q 2956 1122 2956 1747 
Q 2956 2369 2687 2733 
Q 2419 3097 1959 3097 
z
M 1959 3584 
Q 2709 3584 3137 3096 
Q 3566 2609 3566 1747 
Q 3566 888 3137 398 
Q 2709 -91 1959 -91 
Q 1206 -91 779 398 
Q 353 888 353 1747 
Q 353 2609 779 3096 
Q 1206 3584 1959 3584 
z
" transform="scale(0.015625)"/>
       <path id="DejaVuSans-20" transform="scale(0.015625)"/>
       <path id="DejaVuSans-64" d="M 2906 2969 
L 2906 4863 
L 3481 4863 
L 3481 0 
L 2906 0 
L 2906 525 
Q 2725 213 2448 61 
Q 2172 -91 1784 -91 
Q 1150 -91 751 415 
Q 353 922 353 1747 
Q 353 2572 751 3078 
Q 1150 3584 1784 3584 
Q 2172 3584 2448 3432 
Q 2725 3281 2906 2969 
z
M 947 1747 
Q 947 1113 1208 752 
Q 1469 391 1925 391 
Q 2381 391 2643 752 
Q 2906 1113 2906 1747 
Q 2906 2381 2643 2742 
Q 2381 3103 1925 3103 
Q 1469 3103 1208 2742 
Q 947 2381 947 1747 
z
" transform="scale(0.015625)"/>
       <path id="DejaVuSans-41" d="M 2188 4044 
L 1331 1722 
L 3047 1722 
L 2188 4044 
z
M 1831 4666 
L 2547 4666 
L 4325 0 
L 3669 0 
L 3244 1197 
L 1141 1197 
L 716 0 
L 50 0 
L 1831 4666 
z
" transform="scale(0.015625)"/>
       <path id="DejaVuSans-74" d="M 1172 4494 
L 1172 3500 
L 2356 3500 
L 2356 3053 
L 1172 3053 
L 1172 1153 
Q 1172 725 1289 603 
Q 1406 481 1766 481 
L 2356 481 
L 2356 0 
L 1766 0 
Q 1100 0 847 248 
Q 594 497 594 1153 
L 594 3053 
L 172 3053 
L 172 3500 
L 594 3500 
L 594 4494 
L 1172 4494 
z
" transform="scale(0.015625)"/>
       <path id="DejaVuSans-69" d="M 603 3500 
L 1178 3500 
L 1178 0 
L 603 0 
L 603 3500 
z
M 603 4863 
L 1178 4863 
L 1178 4134 
L 603 4134 
L 603 4863 
z
" transform="scale(0.015625)"/>
       <path id="DejaVuSans-62" d="M 3116 1747 
Q 3116 2381 2855 2742 
Q 2594 3103 2138 3103 
Q 1681 3103 1420 2742 
Q 1159 2381 1159 1747 
Q 1159 1113 1420 752 
Q 1681 391 2138 391 
Q 2594 391 2855 752 
Q 3116 1113 3116 1747 
z
M 1159 2969 
Q 1341 3281 1617 3432 
Q 1894 3584 2278 3584 
Q 2916 3584 3314 3078 
Q 3713 2572 3713 1747 
Q 3713 922 3314 415 
Q 2916 -91 2278 -91 
Q 1894 -91 1617 61 
Q 1341 213 1159 525 
L 1159 0 
L 581 0 
L 581 4863 
L 1159 4863 
L 1159 2969 
z
" transform="scale(0.015625)"/>
       <path id="DejaVuSans-75" d="M 544 1381 
L 544 3500 
L 1119 3500 
L 1119 1403 
Q 1119 906 1312 657 
Q 1506 409 1894 409 
Q 2359 409 2629 706 
Q 2900 1003 2900 1516 
L 2900 3500 
L 3475 3500 
L 3475 0 
L 2900 0 
L 2900 538 
Q 2691 219 2414 64 
Q 2138 -91 1772 -91 
Q 1169 -91 856 284 
Q 544 659 544 1381 
z
M 1991 3584 
L 1991 3584 
z
" transform="scale(0.015625)"/>
       <path id="DejaVuSans-73" d="M 2834 3397 
L 2834 2853 
Q 2591 2978 2328 3040 
Q 2066 3103 1784 3103 
Q 1356 3103 1142 2972 
Q 928 2841 928 2578 
Q 928 2378 1081 2264 
Q 1234 2150 1697 2047 
L 1894 2003 
Q 2506 1872 2764 1633 
Q 3022 1394 3022 966 
Q 3022 478 2636 193 
Q 2250 -91 1575 -91 
Q 1294 -91 989 -36 
Q 684 19 347 128 
L 347 722 
Q 666 556 975 473 
Q 1284 391 1588 391 
Q 1994 391 2212 530 
Q 2431 669 2431 922 
Q 2431 1156 2273 1281 
Q 2116 1406 1581 1522 
L 1381 1569 
Q 847 1681 609 1914 
Q 372 2147 372 2553 
Q 372 3047 722 3315 
Q 1072 3584 1716 3584 
Q 2034 3584 2315 3537 
Q 2597 3491 2834 3397 
z
" transform="scale(0.015625)"/>
       <path id="DejaVuSans-55" d="M 556 4666 
L 1191 4666 
L 1191 1831 
Q 1191 1081 1462 751 
Q 1734 422 2344 422 
Q 2950 422 3222 751 
Q 3494 1081 3494 1831 
L 3494 4666 
L 4128 4666 
L 4128 1753 
Q 4128 841 3676 375 
Q 3225 -91 2344 -91 
Q 1459 -91 1007 375 
Q 556 841 556 1753 
L 556 4666 
z
" transform="scale(0.015625)"/>
       <path id="DejaVuSans-61" d="M 2194 1759 
Q 1497 1759 1228 1600 
Q 959 1441 959 1056 
Q 959 750 1161 570 
Q 1363 391 1709 391 
Q 2188 391 2477 730 
Q 2766 1069 2766 1631 
L 2766 1759 
L 2194 1759 
z
M 3341 1997 
L 3341 0 
L 2766 0 
L 2766 531 
Q 2569 213 2275 61 
Q 1981 -91 1556 -91 
Q 1019 -91 701 211 
Q 384 513 384 1019 
Q 384 1609 779 1909 
Q 1175 2209 1959 2209 
L 2766 2209 
L 2766 2266 
Q 2766 2663 2505 2880 
Q 2244 3097 1772 3097 
Q 1472 3097 1187 3025 
Q 903 2953 641 2809 
L 641 3341 
Q 956 3463 1253 3523 
Q 1550 3584 1831 3584 
Q 2591 3584 2966 3190 
Q 3341 2797 3341 1997 
z
" transform="scale(0.015625)"/>
      </defs>
      <use xlink:href="#DejaVuSans-4e"/>
      <use xlink:href="#DejaVuSans-fa" x="74.804688"/>
      <use xlink:href="#DejaVuSans-6d" x="138.183594"/>
      <use xlink:href="#DejaVuSans-65" x="235.595703"/>
      <use xlink:href="#DejaVuSans-72" x="297.119141"/>
      <use xlink:href="#DejaVuSans-6f" x="335.982422"/>
      <use xlink:href="#DejaVuSans-20" x="397.164062"/>
      <use xlink:href="#DejaVuSans-64" x="428.951172"/>
      <use xlink:href="#DejaVuSans-65" x="492.427734"/>
      <use xlink:href="#DejaVuSans-20" x="553.951172"/>
      <use xlink:href="#DejaVuSans-41" x="585.738281"/>
      <use xlink:href="#DejaVuSans-74" x="652.396484"/>
      <use xlink:href="#DejaVuSans-72" x="691.605469"/>
      <use xlink:href="#DejaVuSans-69" x="732.71875"/>
      <use xlink:href="#DejaVuSans-62" x="760.501953"/>
      <use xlink:href="#DejaVuSans-75" x="823.978516"/>
      <use xlink:href="#DejaVuSans-74" x="887.357422"/>
      <use xlink:href="#DejaVuSans-6f" x="926.566406"/>
      <use xlink:href="#DejaVuSans-73" x="987.748047"/>
      <use xlink:href="#DejaVuSans-20" x="1039.847656"/>
      <use xlink:href="#DejaVuSans-55" x="1071.634766"/>
      <use xlink:href="#DejaVuSans-73" x="1144.828125"/>
      <use xlink:href="#DejaVuSans-61" x="1196.927734"/>
      <use xlink:href="#DejaVuSans-64" x="1258.207031"/>
      <use xlink:href="#DejaVuSans-6f" x="1321.683594"/>
      <use xlink:href="#DejaVuSans-73" x="1382.865234"/>
     </g>
    </g>
   </g>
   <g id="matplotlib.axis_2">
    <g id="ytick_1">
     <g id="line2d_41">
      <path d="M 86.4 763.235352 
L 777.6 763.235352 
" clip-path="url(#paff75db8b0)" style="fill: none; stroke: #b0b0b0; stroke-width: 0.8; stroke-linecap: square"/>
     </g>
     <g id="line2d_42">
      <defs>
       <path id="m298e9fbfb7" d="M 0 0 
L -3.5 0 
" style="stroke: #000000; stroke-width: 0.8"/>
      </defs>
      <g>
       <use xlink:href="#m298e9fbfb7" x="86.4" y="763.235352" style="stroke: #000000; stroke-width: 0.8"/>
      </g>
     </g>
     <g id="text_22">
      <!-- 0.09 -->
      <g transform="translate(57.134375 767.034571) scale(0.1 -0.1)">
       <defs>
        <path id="DejaVuSans-30" d="M 2034 4250 
Q 1547 4250 1301 3770 
Q 1056 3291 1056 2328 
Q 1056 1369 1301 889 
Q 1547 409 2034 409 
Q 2525 409 2770 889 
Q 3016 1369 3016 2328 
Q 3016 3291 2770 3770 
Q 2525 4250 2034 4250 
z
M 2034 4750 
Q 2819 4750 3233 4129 
Q 3647 3509 3647 2328 
Q 3647 1150 3233 529 
Q 2819 -91 2034 -91 
Q 1250 -91 836 529 
Q 422 1150 422 2328 
Q 422 3509 836 4129 
Q 1250 4750 2034 4750 
z
" transform="scale(0.015625)"/>
        <path id="DejaVuSans-2e" d="M 684 794 
L 1344 794 
L 1344 0 
L 684 0 
L 684 794 
z
" transform="scale(0.015625)"/>
       </defs>
       <use xlink:href="#DejaVuSans-30"/>
       <use xlink:href="#DejaVuSans-2e" x="63.623047"/>
       <use xlink:href="#DejaVuSans-30" x="95.410156"/>
       <use xlink:href="#DejaVuSans-39" x="159.033203"/>
      </g>
     </g>
    </g>
    <g id="ytick_2">
     <g id="line2d_43">
      <path d="M 86.4 735.123997 
L 777.6 735.123997 
" clip-path="url(#paff75db8b0)" style="fill: none; stroke: #b0b0b0; stroke-width: 0.8; stroke-linecap: square"/>
     </g>
     <g id="line2d_44">
      <g>
       <use xlink:href="#m298e9fbfb7" x="86.4" y="735.123997" style="stroke: #000000; stroke-width: 0.8"/>
      </g>
     </g>
     <g id="text_23">
      <!-- 0.10 -->
      <g transform="translate(57.134375 738.923216) scale(0.1 -0.1)">
       <use xlink:href="#DejaVuSans-30"/>
       <use xlink:href="#DejaVuSans-2e" x="63.623047"/>
       <use xlink:href="#DejaVuSans-31" x="95.410156"/>
       <use xlink:href="#DejaVuSans-30" x="159.033203"/>
      </g>
     </g>
    </g>
    <g id="ytick_3">
     <g id="line2d_45">
      <path d="M 86.4 707.012642 
L 777.6 707.012642 
" clip-path="url(#paff75db8b0)" style="fill: none; stroke: #b0b0b0; stroke-width: 0.8; stroke-linecap: square"/>
     </g>
     <g id="line2d_46">
      <g>
       <use xlink:href="#m298e9fbfb7" x="86.4" y="707.012642" style="stroke: #000000; stroke-width: 0.8"/>
      </g>
     </g>
     <g id="text_24">
      <!-- 0.11 -->
      <g transform="translate(57.134375 710.811861) scale(0.1 -0.1)">
       <use xlink:href="#DejaVuSans-30"/>
       <use xlink:href="#DejaVuSans-2e" x="63.623047"/>
       <use xlink:href="#DejaVuSans-31" x="95.410156"/>
       <use xlink:href="#DejaVuSans-31" x="159.033203"/>
      </g>
     </g>
    </g>
    <g id="ytick_4">
     <g id="line2d_47">
      <path d="M 86.4 678.901287 
L 777.6 678.901287 
" clip-path="url(#paff75db8b0)" style="fill: none; stroke: #b0b0b0; stroke-width: 0.8; stroke-linecap: square"/>
     </g>
     <g id="line2d_48">
      <g>
       <use xlink:href="#m298e9fbfb7" x="86.4" y="678.901287" style="stroke: #000000; stroke-width: 0.8"/>
      </g>
     </g>
     <g id="text_25">
      <!-- 0.12 -->
      <g transform="translate(57.134375 682.700506) scale(0.1 -0.1)">
       <use xlink:href="#DejaVuSans-30"/>
       <use xlink:href="#DejaVuSans-2e" x="63.623047"/>
       <use xlink:href="#DejaVuSans-31" x="95.410156"/>
       <use xlink:href="#DejaVuSans-32" x="159.033203"/>
      </g>
     </g>
    </g>
    <g id="ytick_5">
     <g id="line2d_49">
      <path d="M 86.4 650.789932 
L 777.6 650.789932 
" clip-path="url(#paff75db8b0)" style="fill: none; stroke: #b0b0b0; stroke-width: 0.8; stroke-linecap: square"/>
     </g>
     <g id="line2d_50">
      <g>
       <use xlink:href="#m298e9fbfb7" x="86.4" y="650.789932" style="stroke: #000000; stroke-width: 0.8"/>
      </g>
     </g>
     <g id="text_26">
      <!-- 0.13 -->
      <g transform="translate(57.134375 654.589151) scale(0.1 -0.1)">
       <use xlink:href="#DejaVuSans-30"/>
       <use xlink:href="#DejaVuSans-2e" x="63.623047"/>
       <use xlink:href="#DejaVuSans-31" x="95.410156"/>
       <use xlink:href="#DejaVuSans-33" x="159.033203"/>
      </g>
     </g>
    </g>
    <g id="ytick_6">
     <g id="line2d_51">
      <path d="M 86.4 622.678577 
L 777.6 622.678577 
" clip-path="url(#paff75db8b0)" style="fill: none; stroke: #b0b0b0; stroke-width: 0.8; stroke-linecap: square"/>
     </g>
     <g id="line2d_52">
      <g>
       <use xlink:href="#m298e9fbfb7" x="86.4" y="622.678577" style="stroke: #000000; stroke-width: 0.8"/>
      </g>
     </g>
     <g id="text_27">
      <!-- 0.14 -->
      <g transform="translate(57.134375 626.477796) scale(0.1 -0.1)">
       <use xlink:href="#DejaVuSans-30"/>
       <use xlink:href="#DejaVuSans-2e" x="63.623047"/>
       <use xlink:href="#DejaVuSans-31" x="95.410156"/>
       <use xlink:href="#DejaVuSans-34" x="159.033203"/>
      </g>
     </g>
    </g>
    <g id="ytick_7">
     <g id="line2d_53">
      <path d="M 86.4 594.567222 
L 777.6 594.567222 
" clip-path="url(#paff75db8b0)" style="fill: none; stroke: #b0b0b0; stroke-width: 0.8; stroke-linecap: square"/>
     </g>
     <g id="line2d_54">
      <g>
       <use xlink:href="#m298e9fbfb7" x="86.4" y="594.567222" style="stroke: #000000; stroke-width: 0.8"/>
      </g>
     </g>
     <g id="text_28">
      <!-- 0.15 -->
      <g transform="translate(57.134375 598.366441) scale(0.1 -0.1)">
       <use xlink:href="#DejaVuSans-30"/>
       <use xlink:href="#DejaVuSans-2e" x="63.623047"/>
       <use xlink:href="#DejaVuSans-31" x="95.410156"/>
       <use xlink:href="#DejaVuSans-35" x="159.033203"/>
      </g>
     </g>
    </g>
    <g id="ytick_8">
     <g id="line2d_55">
      <path d="M 86.4 566.455867 
L 777.6 566.455867 
" clip-path="url(#paff75db8b0)" style="fill: none; stroke: #b0b0b0; stroke-width: 0.8; stroke-linecap: square"/>
     </g>
     <g id="line2d_56">
      <g>
       <use xlink:href="#m298e9fbfb7" x="86.4" y="566.455867" style="stroke: #000000; stroke-width: 0.8"/>
      </g>
     </g>
     <g id="text_29">
      <!-- 0.16 -->
      <g transform="translate(57.134375 570.255086) scale(0.1 -0.1)">
       <use xlink:href="#DejaVuSans-30"/>
       <use xlink:href="#DejaVuSans-2e" x="63.623047"/>
       <use xlink:href="#DejaVuSans-31" x="95.410156"/>
       <use xlink:href="#DejaVuSans-36" x="159.033203"/>
      </g>
     </g>
    </g>
    <g id="ytick_9">
     <g id="line2d_57">
      <path d="M 86.4 538.344513 
L 777.6 538.344513 
" clip-path="url(#paff75db8b0)" style="fill: none; stroke: #b0b0b0; stroke-width: 0.8; stroke-linecap: square"/>
     </g>
     <g id="line2d_58">
      <g>
       <use xlink:href="#m298e9fbfb7" x="86.4" y="538.344513" style="stroke: #000000; stroke-width: 0.8"/>
      </g>
     </g>
     <g id="text_30">
      <!-- 0.17 -->
      <g transform="translate(57.134375 542.143731) scale(0.1 -0.1)">
       <use xlink:href="#DejaVuSans-30"/>
       <use xlink:href="#DejaVuSans-2e" x="63.623047"/>
       <use xlink:href="#DejaVuSans-31" x="95.410156"/>
       <use xlink:href="#DejaVuSans-37" x="159.033203"/>
      </g>
     </g>
    </g>
    <g id="ytick_10">
     <g id="line2d_59">
      <path d="M 86.4 510.233158 
L 777.6 510.233158 
" clip-path="url(#paff75db8b0)" style="fill: none; stroke: #b0b0b0; stroke-width: 0.8; stroke-linecap: square"/>
     </g>
     <g id="line2d_60">
      <g>
       <use xlink:href="#m298e9fbfb7" x="86.4" y="510.233158" style="stroke: #000000; stroke-width: 0.8"/>
      </g>
     </g>
     <g id="text_31">
      <!-- 0.18 -->
      <g transform="translate(57.134375 514.032376) scale(0.1 -0.1)">
       <defs>
        <path id="DejaVuSans-38" d="M 2034 2216 
Q 1584 2216 1326 1975 
Q 1069 1734 1069 1313 
Q 1069 891 1326 650 
Q 1584 409 2034 409 
Q 2484 409 2743 651 
Q 3003 894 3003 1313 
Q 3003 1734 2745 1975 
Q 2488 2216 2034 2216 
z
M 1403 2484 
Q 997 2584 770 2862 
Q 544 3141 544 3541 
Q 544 4100 942 4425 
Q 1341 4750 2034 4750 
Q 2731 4750 3128 4425 
Q 3525 4100 3525 3541 
Q 3525 3141 3298 2862 
Q 3072 2584 2669 2484 
Q 3125 2378 3379 2068 
Q 3634 1759 3634 1313 
Q 3634 634 3220 271 
Q 2806 -91 2034 -91 
Q 1263 -91 848 271 
Q 434 634 434 1313 
Q 434 1759 690 2068 
Q 947 2378 1403 2484 
z
M 1172 3481 
Q 1172 3119 1398 2916 
Q 1625 2713 2034 2713 
Q 2441 2713 2670 2916 
Q 2900 3119 2900 3481 
Q 2900 3844 2670 4047 
Q 2441 4250 2034 4250 
Q 1625 4250 1398 4047 
Q 1172 3844 1172 3481 
z
" transform="scale(0.015625)"/>
       </defs>
       <use xlink:href="#DejaVuSans-30"/>
       <use xlink:href="#DejaVuSans-2e" x="63.623047"/>
       <use xlink:href="#DejaVuSans-31" x="95.410156"/>
       <use xlink:href="#DejaVuSans-38" x="159.033203"/>
      </g>
     </g>
    </g>
    <g id="ytick_11">
     <g id="line2d_61">
      <path d="M 86.4 482.121803 
L 777.6 482.121803 
" clip-path="url(#paff75db8b0)" style="fill: none; stroke: #b0b0b0; stroke-width: 0.8; stroke-linecap: square"/>
     </g>
     <g id="line2d_62">
      <g>
       <use xlink:href="#m298e9fbfb7" x="86.4" y="482.121803" style="stroke: #000000; stroke-width: 0.8"/>
      </g>
     </g>
     <g id="text_32">
      <!-- 0.19 -->
      <g transform="translate(57.134375 485.921021) scale(0.1 -0.1)">
       <use xlink:href="#DejaVuSans-30"/>
       <use xlink:href="#DejaVuSans-2e" x="63.623047"/>
       <use xlink:href="#DejaVuSans-31" x="95.410156"/>
       <use xlink:href="#DejaVuSans-39" x="159.033203"/>
      </g>
     </g>
    </g>
    <g id="ytick_12">
     <g id="line2d_63">
      <path d="M 86.4 454.010448 
L 777.6 454.010448 
" clip-path="url(#paff75db8b0)" style="fill: none; stroke: #b0b0b0; stroke-width: 0.8; stroke-linecap: square"/>
     </g>
     <g id="line2d_64">
      <g>
       <use xlink:href="#m298e9fbfb7" x="86.4" y="454.010448" style="stroke: #000000; stroke-width: 0.8"/>
      </g>
     </g>
     <g id="text_33">
      <!-- 0.20 -->
      <g transform="translate(57.134375 457.809666) scale(0.1 -0.1)">
       <use xlink:href="#DejaVuSans-30"/>
       <use xlink:href="#DejaVuSans-2e" x="63.623047"/>
       <use xlink:href="#DejaVuSans-32" x="95.410156"/>
       <use xlink:href="#DejaVuSans-30" x="159.033203"/>
      </g>
     </g>
    </g>
    <g id="ytick_13">
     <g id="line2d_65">
      <path d="M 86.4 425.899093 
L 777.6 425.899093 
" clip-path="url(#paff75db8b0)" style="fill: none; stroke: #b0b0b0; stroke-width: 0.8; stroke-linecap: square"/>
     </g>
     <g id="line2d_66">
      <g>
       <use xlink:href="#m298e9fbfb7" x="86.4" y="425.899093" style="stroke: #000000; stroke-width: 0.8"/>
      </g>
     </g>
     <g id="text_34">
      <!-- 0.21 -->
      <g transform="translate(57.134375 429.698311) scale(0.1 -0.1)">
       <use xlink:href="#DejaVuSans-30"/>
       <use xlink:href="#DejaVuSans-2e" x="63.623047"/>
       <use xlink:href="#DejaVuSans-32" x="95.410156"/>
       <use xlink:href="#DejaVuSans-31" x="159.033203"/>
      </g>
     </g>
    </g>
    <g id="ytick_14">
     <g id="line2d_67">
      <path d="M 86.4 397.787738 
L 777.6 397.787738 
" clip-path="url(#paff75db8b0)" style="fill: none; stroke: #b0b0b0; stroke-width: 0.8; stroke-linecap: square"/>
     </g>
     <g id="line2d_68">
      <g>
       <use xlink:href="#m298e9fbfb7" x="86.4" y="397.787738" style="stroke: #000000; stroke-width: 0.8"/>
      </g>
     </g>
     <g id="text_35">
      <!-- 0.22 -->
      <g transform="translate(57.134375 401.586957) scale(0.1 -0.1)">
       <use xlink:href="#DejaVuSans-30"/>
       <use xlink:href="#DejaVuSans-2e" x="63.623047"/>
       <use xlink:href="#DejaVuSans-32" x="95.410156"/>
       <use xlink:href="#DejaVuSans-32" x="159.033203"/>
      </g>
     </g>
    </g>
    <g id="ytick_15">
     <g id="line2d_69">
      <path d="M 86.4 369.676383 
L 777.6 369.676383 
" clip-path="url(#paff75db8b0)" style="fill: none; stroke: #b0b0b0; stroke-width: 0.8; stroke-linecap: square"/>
     </g>
     <g id="line2d_70">
      <g>
       <use xlink:href="#m298e9fbfb7" x="86.4" y="369.676383" style="stroke: #000000; stroke-width: 0.8"/>
      </g>
     </g>
     <g id="text_36">
      <!-- 0.23 -->
      <g transform="translate(57.134375 373.475602) scale(0.1 -0.1)">
       <use xlink:href="#DejaVuSans-30"/>
       <use xlink:href="#DejaVuSans-2e" x="63.623047"/>
       <use xlink:href="#DejaVuSans-32" x="95.410156"/>
       <use xlink:href="#DejaVuSans-33" x="159.033203"/>
      </g>
     </g>
    </g>
    <g id="ytick_16">
     <g id="line2d_71">
      <path d="M 86.4 341.565028 
L 777.6 341.565028 
" clip-path="url(#paff75db8b0)" style="fill: none; stroke: #b0b0b0; stroke-width: 0.8; stroke-linecap: square"/>
     </g>
     <g id="line2d_72">
      <g>
       <use xlink:href="#m298e9fbfb7" x="86.4" y="341.565028" style="stroke: #000000; stroke-width: 0.8"/>
      </g>
     </g>
     <g id="text_37">
      <!-- 0.24 -->
      <g transform="translate(57.134375 345.364247) scale(0.1 -0.1)">
       <use xlink:href="#DejaVuSans-30"/>
       <use xlink:href="#DejaVuSans-2e" x="63.623047"/>
       <use xlink:href="#DejaVuSans-32" x="95.410156"/>
       <use xlink:href="#DejaVuSans-34" x="159.033203"/>
      </g>
     </g>
    </g>
    <g id="ytick_17">
     <g id="line2d_73">
      <path d="M 86.4 313.453673 
L 777.6 313.453673 
" clip-path="url(#paff75db8b0)" style="fill: none; stroke: #b0b0b0; stroke-width: 0.8; stroke-linecap: square"/>
     </g>
     <g id="line2d_74">
      <g>
       <use xlink:href="#m298e9fbfb7" x="86.4" y="313.453673" style="stroke: #000000; stroke-width: 0.8"/>
      </g>
     </g>
     <g id="text_38">
      <!-- 0.25 -->
      <g transform="translate(57.134375 317.252892) scale(0.1 -0.1)">
       <use xlink:href="#DejaVuSans-30"/>
       <use xlink:href="#DejaVuSans-2e" x="63.623047"/>
       <use xlink:href="#DejaVuSans-32" x="95.410156"/>
       <use xlink:href="#DejaVuSans-35" x="159.033203"/>
      </g>
     </g>
    </g>
    <g id="ytick_18">
     <g id="line2d_75">
      <path d="M 86.4 285.342318 
L 777.6 285.342318 
" clip-path="url(#paff75db8b0)" style="fill: none; stroke: #b0b0b0; stroke-width: 0.8; stroke-linecap: square"/>
     </g>
     <g id="line2d_76">
      <g>
       <use xlink:href="#m298e9fbfb7" x="86.4" y="285.342318" style="stroke: #000000; stroke-width: 0.8"/>
      </g>
     </g>
     <g id="text_39">
      <!-- 0.26 -->
      <g transform="translate(57.134375 289.141537) scale(0.1 -0.1)">
       <use xlink:href="#DejaVuSans-30"/>
       <use xlink:href="#DejaVuSans-2e" x="63.623047"/>
       <use xlink:href="#DejaVuSans-32" x="95.410156"/>
       <use xlink:href="#DejaVuSans-36" x="159.033203"/>
      </g>
     </g>
    </g>
    <g id="ytick_19">
     <g id="line2d_77">
      <path d="M 86.4 257.230963 
L 777.6 257.230963 
" clip-path="url(#paff75db8b0)" style="fill: none; stroke: #b0b0b0; stroke-width: 0.8; stroke-linecap: square"/>
     </g>
     <g id="line2d_78">
      <g>
       <use xlink:href="#m298e9fbfb7" x="86.4" y="257.230963" style="stroke: #000000; stroke-width: 0.8"/>
      </g>
     </g>
     <g id="text_40">
      <!-- 0.27 -->
      <g transform="translate(57.134375 261.030182) scale(0.1 -0.1)">
       <use xlink:href="#DejaVuSans-30"/>
       <use xlink:href="#DejaVuSans-2e" x="63.623047"/>
       <use xlink:href="#DejaVuSans-32" x="95.410156"/>
       <use xlink:href="#DejaVuSans-37" x="159.033203"/>
      </g>
     </g>
    </g>
    <g id="ytick_20">
     <g id="line2d_79">
      <path d="M 86.4 229.119608 
L 777.6 229.119608 
" clip-path="url(#paff75db8b0)" style="fill: none; stroke: #b0b0b0; stroke-width: 0.8; stroke-linecap: square"/>
     </g>
     <g id="line2d_80">
      <g>
       <use xlink:href="#m298e9fbfb7" x="86.4" y="229.119608" style="stroke: #000000; stroke-width: 0.8"/>
      </g>
     </g>
     <g id="text_41">
      <!-- 0.28 -->
      <g transform="translate(57.134375 232.918827) scale(0.1 -0.1)">
       <use xlink:href="#DejaVuSans-30"/>
       <use xlink:href="#DejaVuSans-2e" x="63.623047"/>
       <use xlink:href="#DejaVuSans-32" x="95.410156"/>
       <use xlink:href="#DejaVuSans-38" x="159.033203"/>
      </g>
     </g>
    </g>
    <g id="ytick_21">
     <g id="line2d_81">
      <path d="M 86.4 201.008253 
L 777.6 201.008253 
" clip-path="url(#paff75db8b0)" style="fill: none; stroke: #b0b0b0; stroke-width: 0.8; stroke-linecap: square"/>
     </g>
     <g id="line2d_82">
      <g>
       <use xlink:href="#m298e9fbfb7" x="86.4" y="201.008253" style="stroke: #000000; stroke-width: 0.8"/>
      </g>
     </g>
     <g id="text_42">
      <!-- 0.29 -->
      <g transform="translate(57.134375 204.807472) scale(0.1 -0.1)">
       <use xlink:href="#DejaVuSans-30"/>
       <use xlink:href="#DejaVuSans-2e" x="63.623047"/>
       <use xlink:href="#DejaVuSans-32" x="95.410156"/>
       <use xlink:href="#DejaVuSans-39" x="159.033203"/>
      </g>
     </g>
    </g>
    <g id="ytick_22">
     <g id="line2d_83">
      <path d="M 86.4 172.896898 
L 777.6 172.896898 
" clip-path="url(#paff75db8b0)" style="fill: none; stroke: #b0b0b0; stroke-width: 0.8; stroke-linecap: square"/>
     </g>
     <g id="line2d_84">
      <g>
       <use xlink:href="#m298e9fbfb7" x="86.4" y="172.896898" style="stroke: #000000; stroke-width: 0.8"/>
      </g>
     </g>
     <g id="text_43">
      <!-- 0.30 -->
      <g transform="translate(57.134375 176.696117) scale(0.1 -0.1)">
       <use xlink:href="#DejaVuSans-30"/>
       <use xlink:href="#DejaVuSans-2e" x="63.623047"/>
       <use xlink:href="#DejaVuSans-33" x="95.410156"/>
       <use xlink:href="#DejaVuSans-30" x="159.033203"/>
      </g>
     </g>
    </g>
    <g id="ytick_23">
     <g id="line2d_85">
      <path d="M 86.4 144.785543 
L 777.6 144.785543 
" clip-path="url(#paff75db8b0)" style="fill: none; stroke: #b0b0b0; stroke-width: 0.8; stroke-linecap: square"/>
     </g>
     <g id="line2d_86">
      <g>
       <use xlink:href="#m298e9fbfb7" x="86.4" y="144.785543" style="stroke: #000000; stroke-width: 0.8"/>
      </g>
     </g>
     <g id="text_44">
      <!-- 0.31 -->
      <g transform="translate(57.134375 148.584762) scale(0.1 -0.1)">
       <use xlink:href="#DejaVuSans-30"/>
       <use xlink:href="#DejaVuSans-2e" x="63.623047"/>
       <use xlink:href="#DejaVuSans-33" x="95.410156"/>
       <use xlink:href="#DejaVuSans-31" x="159.033203"/>
      </g>
     </g>
    </g>
    <g id="ytick_24">
     <g id="line2d_87">
      <path d="M 86.4 116.674188 
L 777.6 116.674188 
" clip-path="url(#paff75db8b0)" style="fill: none; stroke: #b0b0b0; stroke-width: 0.8; stroke-linecap: square"/>
     </g>
     <g id="line2d_88">
      <g>
       <use xlink:href="#m298e9fbfb7" x="86.4" y="116.674188" style="stroke: #000000; stroke-width: 0.8"/>
      </g>
     </g>
     <g id="text_45">
      <!-- 0.32 -->
      <g transform="translate(57.134375 120.473407) scale(0.1 -0.1)">
       <use xlink:href="#DejaVuSans-30"/>
       <use xlink:href="#DejaVuSans-2e" x="63.623047"/>
       <use xlink:href="#DejaVuSans-33" x="95.410156"/>
       <use xlink:href="#DejaVuSans-32" x="159.033203"/>
      </g>
     </g>
    </g>
    <g id="ytick_25">
     <g id="line2d_89">
      <path d="M 86.4 88.562833 
L 777.6 88.562833 
" clip-path="url(#paff75db8b0)" style="fill: none; stroke: #b0b0b0; stroke-width: 0.8; stroke-linecap: square"/>
     </g>
     <g id="line2d_90">
      <g>
       <use xlink:href="#m298e9fbfb7" x="86.4" y="88.562833" style="stroke: #000000; stroke-width: 0.8"/>
      </g>
     </g>
     <g id="text_46">
      <!-- 0.33 -->
      <g transform="translate(57.134375 92.362052) scale(0.1 -0.1)">
       <use xlink:href="#DejaVuSans-30"/>
       <use xlink:href="#DejaVuSans-2e" x="63.623047"/>
       <use xlink:href="#DejaVuSans-33" x="95.410156"/>
       <use xlink:href="#DejaVuSans-33" x="159.033203"/>
      </g>
     </g>
    </g>
    <g id="text_47">
     <!-- RMSE-log -->
     <g transform="translate(51.054688 455.548437) rotate(-90) scale(0.1 -0.1)">
      <defs>
       <path id="DejaVuSans-52" d="M 2841 2188 
Q 3044 2119 3236 1894 
Q 3428 1669 3622 1275 
L 4263 0 
L 3584 0 
L 2988 1197 
Q 2756 1666 2539 1819 
Q 2322 1972 1947 1972 
L 1259 1972 
L 1259 0 
L 628 0 
L 628 4666 
L 2053 4666 
Q 2853 4666 3247 4331 
Q 3641 3997 3641 3322 
Q 3641 2881 3436 2590 
Q 3231 2300 2841 2188 
z
M 1259 4147 
L 1259 2491 
L 2053 2491 
Q 2509 2491 2742 2702 
Q 2975 2913 2975 3322 
Q 2975 3731 2742 3939 
Q 2509 4147 2053 4147 
L 1259 4147 
z
" transform="scale(0.015625)"/>
       <path id="DejaVuSans-4d" d="M 628 4666 
L 1569 4666 
L 2759 1491 
L 3956 4666 
L 4897 4666 
L 4897 0 
L 4281 0 
L 4281 4097 
L 3078 897 
L 2444 897 
L 1241 4097 
L 1241 0 
L 628 0 
L 628 4666 
z
" transform="scale(0.015625)"/>
       <path id="DejaVuSans-53" d="M 3425 4513 
L 3425 3897 
Q 3066 4069 2747 4153 
Q 2428 4238 2131 4238 
Q 1616 4238 1336 4038 
Q 1056 3838 1056 3469 
Q 1056 3159 1242 3001 
Q 1428 2844 1947 2747 
L 2328 2669 
Q 3034 2534 3370 2195 
Q 3706 1856 3706 1288 
Q 3706 609 3251 259 
Q 2797 -91 1919 -91 
Q 1588 -91 1214 -16 
Q 841 59 441 206 
L 441 856 
Q 825 641 1194 531 
Q 1563 422 1919 422 
Q 2459 422 2753 634 
Q 3047 847 3047 1241 
Q 3047 1584 2836 1778 
Q 2625 1972 2144 2069 
L 1759 2144 
Q 1053 2284 737 2584 
Q 422 2884 422 3419 
Q 422 4038 858 4394 
Q 1294 4750 2059 4750 
Q 2388 4750 2728 4690 
Q 3069 4631 3425 4513 
z
" transform="scale(0.015625)"/>
       <path id="DejaVuSans-45" d="M 628 4666 
L 3578 4666 
L 3578 4134 
L 1259 4134 
L 1259 2753 
L 3481 2753 
L 3481 2222 
L 1259 2222 
L 1259 531 
L 3634 531 
L 3634 0 
L 628 0 
L 628 4666 
z
" transform="scale(0.015625)"/>
       <path id="DejaVuSans-2d" d="M 313 2009 
L 1997 2009 
L 1997 1497 
L 313 1497 
L 313 2009 
z
" transform="scale(0.015625)"/>
       <path id="DejaVuSans-6c" d="M 603 4863 
L 1178 4863 
L 1178 0 
L 603 0 
L 603 4863 
z
" transform="scale(0.015625)"/>
       <path id="DejaVuSans-67" d="M 2906 1791 
Q 2906 2416 2648 2759 
Q 2391 3103 1925 3103 
Q 1463 3103 1205 2759 
Q 947 2416 947 1791 
Q 947 1169 1205 825 
Q 1463 481 1925 481 
Q 2391 481 2648 825 
Q 2906 1169 2906 1791 
z
M 3481 434 
Q 3481 -459 3084 -895 
Q 2688 -1331 1869 -1331 
Q 1566 -1331 1297 -1286 
Q 1028 -1241 775 -1147 
L 775 -588 
Q 1028 -725 1275 -790 
Q 1522 -856 1778 -856 
Q 2344 -856 2625 -561 
Q 2906 -266 2906 331 
L 2906 616 
Q 2728 306 2450 153 
Q 2172 0 1784 0 
Q 1141 0 747 490 
Q 353 981 353 1791 
Q 353 2603 747 3093 
Q 1141 3584 1784 3584 
Q 2172 3584 2450 3431 
Q 2728 3278 2906 2969 
L 2906 3500 
L 3481 3500 
L 3481 434 
z
" transform="scale(0.015625)"/>
      </defs>
      <use xlink:href="#DejaVuSans-52"/>
      <use xlink:href="#DejaVuSans-4d" x="69.482422"/>
      <use xlink:href="#DejaVuSans-53" x="155.761719"/>
      <use xlink:href="#DejaVuSans-45" x="219.238281"/>
      <use xlink:href="#DejaVuSans-2d" x="282.421875"/>
      <use xlink:href="#DejaVuSans-6c" x="318.505859"/>
      <use xlink:href="#DejaVuSans-6f" x="346.289062"/>
      <use xlink:href="#DejaVuSans-67" x="407.470703"/>
     </g>
    </g>
   </g>
   <g id="line2d_91">
    <path d="M 117.818182 150.290409 
L 126.309582 421.903235 
L 134.800983 462.626975 
L 143.292383 505.073006 
L 151.783784 526.8119 
L 160.275184 540.003028 
L 168.766585 543.966496 
L 177.257985 550.026573 
L 185.749386 565.413479 
L 194.240786 568.566518 
L 202.732187 568.49594 
L 211.223587 569.784488 
L 219.714988 570.707313 
L 228.206388 565.282769 
L 236.697789 571.711832 
L 245.189189 571.794453 
L 253.68059 569.633527 
L 262.17199 571.104566 
L 270.663391 571.019982 
L 279.154791 575.02389 
L 287.646192 571.957917 
L 296.137592 570.406664 
L 304.628993 572.521122 
L 313.120393 572.849774 
L 321.611794 574.034821 
L 330.103194 574.091175 
L 338.594595 591.91245 
L 347.085995 598.127823 
L 355.577396 601.743591 
L 364.068796 605.503078 
L 372.560197 605.416369 
L 381.051597 614.409083 
L 389.542998 614.850289 
L 398.034398 614.024364 
L 406.525799 614.003832 
L 415.017199 614.027182 
L 423.5086 613.974382 
L 432 606.171557 
L 440.4914 606.15968 
L 448.982801 598.710891 
L 457.474201 600.023042 
L 465.965602 600.018261 
L 474.457002 601.645408 
L 482.948403 592.814376 
L 491.439803 596.915362 
L 499.931204 597.299391 
L 508.422604 597.779504 
L 516.914005 605.103746 
L 525.405405 604.479262 
L 533.896806 604.831849 
L 542.388206 599.699347 
L 550.879607 609.869911 
L 559.371007 612.989193 
L 567.862408 613.336874 
L 576.353808 613.213173 
L 584.845209 616.85904 
L 593.336609 616.983735 
L 601.82801 617.309155 
L 610.31941 642.058457 
L 618.810811 647.123552 
L 627.302211 651.241233 
L 635.793612 651.827664 
L 644.285012 660.445475 
L 652.776413 661.478047 
L 661.267813 662.436687 
L 669.759214 662.438718 
L 678.250614 662.473684 
L 686.742015 663.636503 
L 695.233415 662.848163 
L 703.724816 662.869579 
L 712.216216 662.939499 
L 720.707617 662.854105 
L 729.199017 662.857311 
L 737.690418 662.879993 
L 746.181818 662.913044 
" clip-path="url(#paff75db8b0)" style="fill: none; stroke: #1f77b4; stroke-width: 1.5; stroke-linecap: square"/>
   </g>
   <g id="line2d_92">
    <path d="M 117.818182 117.818182 
L 126.309582 423.528071 
L 134.800983 466.665057 
L 143.292383 507.76826 
L 151.783784 528.755648 
L 160.275184 541.773854 
L 168.766585 546.063032 
L 177.257985 551.079891 
L 185.749386 567.557481 
L 194.240786 570.859308 
L 202.732187 570.845845 
L 211.223587 571.98763 
L 219.714988 572.266507 
L 228.206388 569.2125 
L 236.697789 574.424957 
L 245.189189 574.425264 
L 253.68059 574.133578 
L 262.17199 574.820995 
L 270.663391 574.929469 
L 279.154791 578.777669 
L 287.646192 575.967656 
L 296.137592 575.308901 
L 304.628993 577.170838 
L 313.120393 577.898385 
L 321.611794 579.341362 
L 330.103194 579.341379 
L 338.594595 597.179772 
L 347.085995 603.126145 
L 355.577396 606.39434 
L 364.068796 610.173058 
L 372.560197 610.130291 
L 381.051597 619.527436 
L 389.542998 620.549678 
L 398.034398 620.202261 
L 406.525799 620.184023 
L 415.017199 620.180991 
L 423.5086 620.182667 
L 432 618.68684 
L 440.4914 618.686875 
L 448.982801 615.392388 
L 457.474201 617.106485 
L 465.965602 617.106525 
L 474.457002 617.116061 
L 482.948403 613.333202 
L 491.439803 614.177051 
L 499.931204 614.177412 
L 508.422604 614.360997 
L 516.914005 618.436409 
L 525.405405 618.292447 
L 533.896806 618.395065 
L 542.388206 613.984254 
L 550.879607 621.422099 
L 559.371007 624.255243 
L 567.862408 624.255232 
L 576.353808 624.363738 
L 584.845209 626.489704 
L 593.336609 626.925276 
L 601.82801 626.925406 
L 610.31941 649.293871 
L 618.810811 652.943506 
L 627.302211 656.253714 
L 635.793612 656.823348 
L 644.285012 664.590353 
L 652.776413 665.483931 
L 661.267813 665.483894 
L 669.759214 665.423783 
L 678.250614 665.423783 
L 686.742015 665.680785 
L 695.233415 665.731884 
L 703.724816 665.731884 
L 712.216216 665.731884 
L 720.707617 665.731883 
L 729.199017 665.210283 
L 737.690418 665.200226 
L 746.181818 665.200232 
" clip-path="url(#paff75db8b0)" style="fill: none; stroke: #aec7e8; stroke-width: 1.5; stroke-linecap: square"/>
   </g>
   <g id="line2d_93">
    <path d="M 117.818182 160.836025 
L 126.309582 430.097924 
L 134.800983 476.34813 
L 143.292383 513.348042 
L 151.783784 532.374729 
L 160.275184 544.762647 
L 168.766585 548.559869 
L 177.257985 554.037204 
L 185.749386 572.199043 
L 194.240786 574.67767 
L 202.732187 574.689804 
L 211.223587 575.643293 
L 219.714988 576.37505 
L 228.206388 573.688331 
L 236.697789 578.42858 
L 245.189189 578.508068 
L 253.68059 577.316719 
L 262.17199 577.620864 
L 270.663391 577.864996 
L 279.154791 581.371116 
L 287.646192 578.345918 
L 296.137592 577.103728 
L 304.628993 578.951522 
L 313.120393 579.26545 
L 321.611794 580.515271 
L 330.103194 580.540453 
L 338.594595 598.387307 
L 347.085995 603.874329 
L 355.577396 607.770683 
L 364.068796 611.158885 
L 372.560197 610.772543 
L 381.051597 620.026568 
L 389.542998 620.824252 
L 398.034398 619.993269 
L 406.525799 619.934254 
L 415.017199 619.99886 
L 423.5086 619.75385 
L 432 615.066639 
L 440.4914 615.055339 
L 448.982801 608.897204 
L 457.474201 610.621956 
L 465.965602 610.787024 
L 474.457002 610.019751 
L 482.948403 602.414802 
L 491.439803 606.304778 
L 499.931204 606.844805 
L 508.422604 607.539515 
L 516.914005 613.295803 
L 525.405405 612.824931 
L 533.896806 613.004799 
L 542.388206 608.436273 
L 550.879607 617.543602 
L 559.371007 620.009963 
L 567.862408 620.505517 
L 576.353808 620.326718 
L 584.845209 623.39794 
L 593.336609 623.354703 
L 601.82801 623.40634 
L 610.31941 647.454788 
L 618.810811 652.441387 
L 627.302211 656.489794 
L 635.793612 657.205489 
L 644.285012 665.16926 
L 652.776413 666.200793 
L 661.267813 667.063728 
L 669.759214 666.775797 
L 678.250614 666.797346 
L 686.742015 667.811455 
L 695.233415 667.555126 
L 703.724816 667.544044 
L 712.216216 667.657104 
L 720.707617 667.584294 
L 729.199017 667.502161 
L 737.690418 667.490846 
L 746.181818 667.561364 
" clip-path="url(#paff75db8b0)" style="fill: none; stroke: #ff7f0e; stroke-width: 1.5; stroke-linecap: square"/>
   </g>
   <g id="line2d_94">
    <path d="M 117.818182 229.695152 
L 126.309582 433.517286 
L 134.800983 482.400859 
L 143.292383 517.11651 
L 151.783784 534.895451 
L 160.275184 546.870344 
L 168.766585 550.651907 
L 177.257985 555.715548 
L 185.749386 575.292626 
L 194.240786 577.458206 
L 202.732187 577.546103 
L 211.223587 578.357316 
L 219.714988 578.990159 
L 228.206388 577.254756 
L 236.697789 581.233878 
L 245.189189 581.284168 
L 253.68059 580.448419 
L 262.17199 580.075431 
L 270.663391 580.405753 
L 279.154791 583.707515 
L 287.646192 580.754815 
L 296.137592 579.646095 
L 304.628993 581.385705 
L 313.120393 581.718602 
L 321.611794 582.990821 
L 330.103194 582.999124 
L 338.594595 600.879625 
L 347.085995 606.094165 
L 355.577396 610.070832 
L 364.068796 613.319725 
L 372.560197 612.790718 
L 381.051597 622.046635 
L 389.542998 622.995613 
L 398.034398 622.159756 
L 406.525799 622.087302 
L 415.017199 622.163406 
L 423.5086 621.653767 
L 432 617.938883 
L 440.4914 617.908327 
L 448.982801 612.332613 
L 457.474201 614.170415 
L 465.965602 614.412426 
L 474.457002 613.736692 
L 482.948403 606.912959 
L 491.439803 610.458928 
L 499.931204 610.990907 
L 508.422604 611.718627 
L 516.914005 616.913151 
L 525.405405 616.49733 
L 533.896806 616.609152 
L 542.388206 612.252217 
L 550.879607 620.802731 
L 559.371007 622.994095 
L 567.862408 623.530427 
L 576.353808 623.304816 
L 584.845209 626.141024 
L 593.336609 626.03942 
L 601.82801 625.984166 
L 610.31941 649.525804 
L 618.810811 654.435519 
L 627.302211 658.421394 
L 635.793612 659.190616 
L 644.285012 666.7815 
L 652.776413 667.782078 
L 661.267813 668.588405 
L 669.759214 668.316749 
L 678.250614 668.337241 
L 686.742015 669.271588 
L 695.233415 669.139897 
L 703.724816 669.127751 
L 712.216216 669.249696 
L 720.707617 669.183834 
L 729.199017 669.086171 
L 737.690418 669.072639 
L 746.181818 669.148034 
" clip-path="url(#paff75db8b0)" style="fill: none; stroke: #ffbb78; stroke-width: 1.5; stroke-linecap: square"/>
   </g>
   <g id="line2d_95">
    <path d="M 117.818182 348.279222 
L 126.309582 473.791774 
L 134.800983 541.542034 
L 143.292383 570.337072 
L 151.783784 568.819459 
L 160.275184 587.956588 
L 168.766585 604.840954 
L 177.257985 608.133994 
L 185.749386 627.131976 
L 194.240786 635.480646 
L 202.732187 627.604575 
L 211.223587 628.902102 
L 219.714988 631.037143 
L 228.206388 629.192687 
L 236.697789 630.056065 
L 245.189189 621.521566 
L 253.68059 626.044004 
L 262.17199 628.153947 
L 270.663391 624.499968 
L 279.154791 620.09319 
L 287.646192 614.770386 
L 296.137592 614.811708 
L 304.628993 613.957368 
L 313.120393 611.999747 
L 321.611794 612.238937 
L 330.103194 607.976735 
L 338.594595 619.414147 
L 347.085995 622.461653 
L 355.577396 623.511968 
L 364.068796 627.110854 
L 372.560197 622.533095 
L 381.051597 624.587949 
L 389.542998 632.098346 
L 398.034398 628.77645 
L 406.525799 622.189257 
L 415.017199 608.420374 
L 423.5086 616.454695 
L 432 619.218611 
L 440.4914 617.588284 
L 448.982801 624.085788 
L 457.474201 629.365434 
L 465.965602 628.555964 
L 474.457002 638.710256 
L 482.948403 634.858716 
L 491.439803 631.717464 
L 499.931204 633.543641 
L 508.422604 632.372266 
L 516.914005 632.390779 
L 525.405405 632.276921 
L 533.896806 631.772667 
L 542.388206 632.837336 
L 550.879607 632.306901 
L 559.371007 631.414299 
L 567.862408 630.668585 
L 576.353808 632.77898 
L 584.845209 632.264944 
L 593.336609 632.525896 
L 601.82801 630.846716 
L 610.31941 634.952682 
L 618.810811 637.202973 
L 627.302211 639.021619 
L 635.793612 637.606935 
L 644.285012 638.975805 
L 652.776413 636.645928 
L 661.267813 637.310503 
L 669.759214 636.610675 
L 678.250614 635.155205 
L 686.742015 632.588646 
L 695.233415 631.969746 
L 703.724816 631.99281 
L 712.216216 632.133777 
L 720.707617 630.50259 
L 729.199017 628.622243 
L 737.690418 629.155223 
L 746.181818 628.743332 
" clip-path="url(#paff75db8b0)" style="fill: none; stroke: #2ca02c; stroke-width: 1.5; stroke-linecap: square"/>
   </g>
   <g id="line2d_96">
    <path d="M 117.818182 401.250047 
L 126.309582 498.910186 
L 134.800983 548.839202 
L 143.292383 549.043952 
L 151.783784 556.142319 
L 160.275184 560.227698 
L 168.766585 567.061271 
L 177.257985 558.697795 
L 185.749386 571.545749 
L 194.240786 568.437242 
L 202.732187 566.371732 
L 211.223587 569.532302 
L 219.714988 568.103275 
L 228.206388 567.596386 
L 236.697789 566.147866 
L 245.189189 568.84178 
L 253.68059 560.005697 
L 262.17199 560.120116 
L 270.663391 555.603682 
L 279.154791 555.108837 
L 287.646192 553.48921 
L 296.137592 550.447859 
L 304.628993 551.047248 
L 313.120393 550.859158 
L 321.611794 549.941739 
L 330.103194 550.73151 
L 338.594595 560.294481 
L 347.085995 559.28987 
L 355.577396 560.166715 
L 364.068796 559.579606 
L 372.560197 561.404302 
L 381.051597 566.371868 
L 389.542998 561.270314 
L 398.034398 562.258092 
L 406.525799 562.258092 
L 415.017199 563.102318 
L 423.5086 564.234195 
L 432 566.942815 
L 440.4914 565.082118 
L 448.982801 567.409822 
L 457.474201 566.733112 
L 465.965602 566.519348 
L 474.457002 564.579522 
L 482.948403 566.949097 
L 491.439803 566.949097 
L 499.931204 565.292777 
L 508.422604 567.334739 
L 516.914005 567.334739 
L 525.405405 579.340467 
L 533.896806 577.731874 
L 542.388206 577.731874 
L 550.879607 577.337096 
L 559.371007 577.731874 
L 567.862408 577.731874 
L 576.353808 577.731874 
L 584.845209 576.357562 
L 593.336609 575.964016 
L 601.82801 576.357562 
L 610.31941 561.525257 
L 618.810811 561.144537 
L 627.302211 561.525257 
L 635.793612 561.144537 
L 644.285012 558.237585 
L 652.776413 557.859596 
L 661.267813 558.237585 
L 669.759214 558.237585 
L 678.250614 558.237585 
L 686.742015 557.859596 
L 695.233415 558.237585 
L 703.724816 557.859596 
L 712.216216 558.237585 
L 720.707617 556.733444 
L 729.199017 556.733444 
L 737.690418 556.733444 
L 746.181818 557.781167 
" clip-path="url(#paff75db8b0)" style="fill: none; stroke: #d62728; stroke-width: 1.5; stroke-linecap: square"/>
   </g>
   <g id="line2d_97">
    <path d="M 117.818182 401.253711 
L 126.309582 501.808713 
L 134.800983 527.217715 
L 143.292383 559.21028 
L 151.783784 568.384937 
L 160.275184 576.672312 
L 168.766585 603.104475 
L 177.257985 621.234665 
L 185.749386 638.82584 
L 194.240786 633.614375 
L 202.732187 640.010843 
L 211.223587 641.635466 
L 219.714988 643.285562 
L 228.206388 644.720568 
L 236.697789 645.031833 
L 245.189189 648.731602 
L 253.68059 654.779128 
L 262.17199 653.859302 
L 270.663391 653.266868 
L 279.154791 651.990199 
L 287.646192 653.81818 
L 296.137592 658.747069 
L 304.628993 660.554315 
L 313.120393 660.231341 
L 321.611794 658.799356 
L 330.103194 658.498667 
L 338.594595 669.621142 
L 347.085995 672.801257 
L 355.577396 673.747182 
L 364.068796 675.460781 
L 372.560197 676.512226 
L 381.051597 679.412019 
L 389.542998 680.725743 
L 398.034398 680.676766 
L 406.525799 679.219 
L 415.017199 682.336196 
L 423.5086 679.432929 
L 432 684.47504 
L 440.4914 685.105931 
L 448.982801 686.545637 
L 457.474201 686.351882 
L 465.965602 684.493191 
L 474.457002 684.50139 
L 482.948403 683.416769 
L 491.439803 683.311078 
L 499.931204 687.717255 
L 508.422604 682.697261 
L 516.914005 684.189652 
L 525.405405 683.355489 
L 533.896806 683.940562 
L 542.388206 685.595489 
L 550.879607 683.364856 
L 559.371007 683.550608 
L 567.862408 684.866016 
L 576.353808 687.642117 
L 584.845209 685.198933 
L 593.336609 684.265753 
L 601.82801 684.697817 
L 610.31941 689.096218 
L 618.810811 691.803379 
L 627.302211 692.988682 
L 635.793612 693.219455 
L 644.285012 692.093921 
L 652.776413 690.913297 
L 661.267813 692.138501 
L 669.759214 691.574372 
L 678.250614 694.41629 
L 686.742015 693.171643 
L 695.233415 691.811382 
L 703.724816 691.971964 
L 712.216216 690.988512 
L 720.707617 691.963583 
L 729.199017 692.454795 
L 737.690418 692.851823 
L 746.181818 692.499026 
" clip-path="url(#paff75db8b0)" style="fill: none; stroke: #7f7f7f; stroke-width: 1.5; stroke-linecap: square"/>
   </g>
   <g id="line2d_98">
    <path d="M 117.818182 401.191456 
L 126.309582 503.141217 
L 134.800983 540.203106 
L 143.292383 570.007391 
L 151.783784 574.697968 
L 160.275184 576.506822 
L 168.766585 596.297391 
L 177.257985 619.051866 
L 185.749386 630.981521 
L 194.240786 625.449354 
L 202.732187 630.50581 
L 211.223587 633.599097 
L 219.714988 630.627469 
L 228.206388 631.765349 
L 236.697789 638.343469 
L 245.189189 639.820658 
L 253.68059 641.673855 
L 262.17199 642.426285 
L 270.663391 642.633252 
L 279.154791 641.090909 
L 287.646192 642.859799 
L 296.137592 645.158153 
L 304.628993 646.981351 
L 313.120393 648.365721 
L 321.611794 647.348111 
L 330.103194 648.686761 
L 338.594595 655.822766 
L 347.085995 656.708266 
L 355.577396 657.388162 
L 364.068796 658.250092 
L 372.560197 659.058738 
L 381.051597 663.414921 
L 389.542998 665.200148 
L 398.034398 663.132411 
L 406.525799 663.379844 
L 415.017199 665.184009 
L 423.5086 664.401057 
L 432 665.227273 
L 440.4914 666.294918 
L 448.982801 665.649458 
L 457.474201 666.064062 
L 465.965602 665.574415 
L 474.457002 666.475812 
L 482.948403 666.419 
L 491.439803 667.725619 
L 499.931204 668.02366 
L 508.422604 666.980976 
L 516.914005 668.031262 
L 525.405405 668.461419 
L 533.896806 667.484716 
L 542.388206 666.138737 
L 550.879607 666.980596 
L 559.371007 667.84569 
L 567.862408 668.169603 
L 576.353808 667.222684 
L 584.845209 667.557187 
L 593.336609 668.394064 
L 601.82801 667.760236 
L 610.31941 674.707097 
L 618.810811 676.439553 
L 627.302211 674.534391 
L 635.793612 675.118704 
L 644.285012 676.584154 
L 652.776413 675.430819 
L 661.267813 675.685697 
L 669.759214 675.973862 
L 678.250614 674.693008 
L 686.742015 675.39848 
L 695.233415 675.389867 
L 703.724816 676.079104 
L 712.216216 675.534358 
L 720.707617 675.443155 
L 729.199017 675.815903 
L 737.690418 675.612103 
L 746.181818 674.998528 
" clip-path="url(#paff75db8b0)" style="fill: none; stroke: #f46d43; stroke-width: 1.5; stroke-linecap: square"/>
   </g>
   <g id="line2d_99">
    <path d="M 117.818182 315.040816 
L 126.309582 344.53326 
L 134.800983 492.603482 
L 143.292383 487.321079 
L 151.783784 496.173499 
L 160.275184 523.31703 
L 168.766585 523.98501 
L 177.257985 522.379711 
L 185.749386 561.680095 
L 194.240786 558.512593 
L 202.732187 557.178131 
L 211.223587 558.499922 
L 219.714988 552.575859 
L 228.206388 558.586709 
L 236.697789 561.088671 
L 245.189189 560.385681 
L 253.68059 561.962321 
L 262.17199 562.22519 
L 270.663391 559.374085 
L 279.154791 565.178033 
L 287.646192 564.97858 
L 296.137592 564.303913 
L 304.628993 565.724239 
L 313.120393 570.962803 
L 321.611794 568.979796 
L 330.103194 566.894436 
L 338.594595 570.412488 
L 347.085995 572.501115 
L 355.577396 571.51877 
L 364.068796 567.322686 
L 372.560197 567.436397 
L 381.051597 572.516111 
L 389.542998 570.331099 
L 398.034398 570.810487 
L 406.525799 569.73662 
L 415.017199 569.539255 
L 423.5086 566.565166 
L 432 567.471644 
L 440.4914 566.405957 
L 448.982801 569.774886 
L 457.474201 568.730753 
L 465.965602 568.682952 
L 474.457002 569.67422 
L 482.948403 567.501907 
L 491.439803 569.02736 
L 499.931204 567.785258 
L 508.422604 568.15327 
L 516.914005 567.809393 
L 525.405405 563.5506 
L 533.896806 570.384718 
L 542.388206 567.088374 
L 550.879607 564.941928 
L 559.371007 568.218619 
L 567.862408 565.788594 
L 576.353808 564.196927 
L 584.845209 568.950598 
L 593.336609 568.779709 
L 601.82801 570.307143 
L 610.31941 561.181077 
L 618.810811 559.877246 
L 627.302211 562.641666 
L 635.793612 561.199819 
L 644.285012 563.922055 
L 652.776413 561.929415 
L 661.267813 556.99515 
L 669.759214 562.07899 
L 678.250614 557.919261 
L 686.742015 560.509916 
L 695.233415 561.848052 
L 703.724816 565.136728 
L 712.216216 560.629037 
L 720.707617 560.469512 
L 729.199017 557.542302 
L 737.690418 559.505311 
L 746.181818 558.838104 
" clip-path="url(#paff75db8b0)" style="fill: none; stroke: #9467bd; stroke-width: 1.5; stroke-linecap: square"/>
   </g>
   <g id="line2d_100">
    <path d="M 117.818182 401.250047 
L 126.309582 498.83103 
L 134.800983 584.60233 
L 143.292383 603.122575 
L 151.783784 600.384701 
L 160.275184 611.264085 
L 168.766585 618.352272 
L 177.257985 615.60295 
L 185.749386 643.140871 
L 194.240786 641.395823 
L 202.732187 652.526472 
L 211.223587 646.360291 
L 219.714988 650.300341 
L 228.206388 654.763338 
L 236.697789 654.841133 
L 245.189189 649.157671 
L 253.68059 659.112703 
L 262.17199 661.74278 
L 270.663391 662.052656 
L 279.154791 659.274573 
L 287.646192 665.329058 
L 296.137592 668.93873 
L 304.628993 677.236416 
L 313.120393 676.2887 
L 321.611794 675.532818 
L 330.103194 676.211139 
L 338.594595 680.70403 
L 347.085995 682.692574 
L 355.577396 685.262049 
L 364.068796 682.652358 
L 372.560197 683.451558 
L 381.051597 687.905157 
L 389.542998 687.582118 
L 398.034398 684.761388 
L 406.525799 686.512245 
L 415.017199 688.671287 
L 423.5086 689.96711 
L 432 689.975185 
L 440.4914 691.886362 
L 448.982801 690.046872 
L 457.474201 689.502815 
L 465.965602 695.037639 
L 474.457002 693.309819 
L 482.948403 691.541036 
L 491.439803 694.623901 
L 499.931204 696.187366 
L 508.422604 696.009867 
L 516.914005 702.422958 
L 525.405405 699.019251 
L 533.896806 698.903451 
L 542.388206 698.684932 
L 550.879607 699.008791 
L 559.371007 696.697828 
L 567.862408 705.316185 
L 576.353808 704.733246 
L 584.845209 706.170734 
L 593.336609 701.818629 
L 601.82801 702.879528 
L 610.31941 720.727743 
L 618.810811 724.430803 
L 627.302211 722.661555 
L 635.793612 722.408523 
L 644.285012 726.034161 
L 652.776413 725.735144 
L 661.267813 725.799972 
L 669.759214 724.111373 
L 678.250614 722.956073 
L 686.742015 724.921732 
L 695.233415 720.201812 
L 703.724816 719.48052 
L 712.216216 721.706754 
L 720.707617 723.791749 
L 729.199017 724.641388 
L 737.690418 723.081478 
L 746.181818 720.936857 
" clip-path="url(#paff75db8b0)" style="fill: none; stroke: #8c564b; stroke-width: 1.5; stroke-linecap: square"/>
   </g>
   <g id="line2d_101">
    <path d="M 117.818182 401.525902 
L 126.309582 489.098338 
L 134.800983 559.53288 
L 143.292383 600.939952 
L 151.783784 603.273178 
L 160.275184 610.880976 
L 168.766585 621.077198 
L 177.257985 626.193186 
L 185.749386 653.861557 
L 194.240786 657.426023 
L 202.732187 658.354778 
L 211.223587 660.252001 
L 219.714988 663.012466 
L 228.206388 660.250847 
L 236.697789 662.927053 
L 245.189189 662.84257 
L 253.68059 663.722484 
L 262.17199 664.071562 
L 270.663391 675.647324 
L 279.154791 668.076537 
L 287.646192 678.099399 
L 296.137592 674.361283 
L 304.628993 680.436151 
L 313.120393 678.951397 
L 321.611794 685.706985 
L 330.103194 686.286222 
L 338.594595 689.217368 
L 347.085995 690.451195 
L 355.577396 690.082075 
L 364.068796 695.593759 
L 372.560197 694.955076 
L 381.051597 699.421303 
L 389.542998 702.048775 
L 398.034398 701.859423 
L 406.525799 706.38885 
L 415.017199 703.164022 
L 423.5086 708.058644 
L 432 701.644172 
L 440.4914 700.714704 
L 448.982801 702.037062 
L 457.474201 698.484788 
L 465.965602 703.609634 
L 474.457002 701.546203 
L 482.948403 709.711254 
L 491.439803 707.535126 
L 499.931204 703.367372 
L 508.422604 708.869738 
L 516.914005 709.032596 
L 525.405405 704.763004 
L 533.896806 705.075322 
L 542.388206 710.406256 
L 550.879607 703.564366 
L 559.371007 706.176208 
L 567.862408 706.863511 
L 576.353808 712.006705 
L 584.845209 706.028813 
L 593.336609 711.33985 
L 601.82801 705.803832 
L 610.31941 732.842278 
L 618.810811 733.713951 
L 627.302211 736.041643 
L 635.793612 733.145564 
L 644.285012 744.150803 
L 652.776413 727.542974 
L 661.267813 737.263986 
L 669.759214 741.992776 
L 678.250614 734.800927 
L 686.742015 733.962229 
L 695.233415 731.652898 
L 703.724816 737.00138 
L 712.216216 737.620154 
L 720.707617 737.569347 
L 729.199017 733.688084 
L 737.690418 739.619019 
L 746.181818 735.62553 
" clip-path="url(#paff75db8b0)" style="fill: none; stroke: #e377c2; stroke-width: 1.5; stroke-linecap: square"/>
   </g>
   <g id="line2d_102">
    <path d="M 117.818182 401.250048 
L 126.309582 503.283675 
L 134.800983 576.989031 
L 143.292383 594.145585 
L 151.783784 594.910705 
L 160.275184 602.960545 
L 168.766585 615.343366 
L 177.257985 621.152199 
L 185.749386 634.204426 
L 194.240786 637.625972 
L 202.732187 648.609835 
L 211.223587 650.112777 
L 219.714988 650.235954 
L 228.206388 653.423626 
L 236.697789 653.011848 
L 245.189189 648.850861 
L 253.68059 655.470195 
L 262.17199 654.115689 
L 270.663391 653.121559 
L 279.154791 652.540536 
L 287.646192 653.700907 
L 296.137592 662.188107 
L 304.628993 665.397997 
L 313.120393 667.987663 
L 321.611794 666.329022 
L 330.103194 670.736756 
L 338.594595 674.073587 
L 347.085995 673.400968 
L 355.577396 675.944665 
L 364.068796 676.620758 
L 372.560197 674.494988 
L 381.051597 692.45513 
L 389.542998 688.993044 
L 398.034398 686.631352 
L 406.525799 690.257196 
L 415.017199 693.672855 
L 423.5086 691.313071 
L 432 692.732951 
L 440.4914 692.344212 
L 448.982801 694.038341 
L 457.474201 694.856569 
L 465.965602 696.384118 
L 474.457002 690.893327 
L 482.948403 696.613126 
L 491.439803 697.160897 
L 499.931204 694.915093 
L 508.422604 694.303569 
L 516.914005 698.582221 
L 525.405405 697.610831 
L 533.896806 696.732423 
L 542.388206 696.317869 
L 550.879607 696.144221 
L 559.371007 697.602546 
L 567.862408 697.380972 
L 576.353808 696.702039 
L 584.845209 699.252019 
L 593.336609 701.4722 
L 601.82801 706.454815 
L 610.31941 724.744786 
L 618.810811 723.485076 
L 627.302211 727.73228 
L 635.793612 725.27595 
L 644.285012 725.301076 
L 652.776413 729.00957 
L 661.267813 726.525558 
L 669.759214 727.044769 
L 678.250614 726.981651 
L 686.742015 726.564116 
L 695.233415 726.055331 
L 703.724816 726.055331 
L 712.216216 727.511233 
L 720.707617 724.435705 
L 729.199017 724.857723 
L 737.690418 725.37378 
L 746.181818 723.493623 
" clip-path="url(#paff75db8b0)" style="fill: none; stroke: #17becf; stroke-width: 1.5; stroke-linecap: square"/>
   </g>
   <g id="line2d_103">
    <path d="M 117.818182 401.253762 
L 126.309582 501.906885 
L 134.800983 581.489224 
L 143.292383 599.276855 
L 151.783784 603.165843 
L 160.275184 609.501887 
L 168.766585 623.57691 
L 177.257985 624.647248 
L 185.749386 649.703301 
L 194.240786 648.680314 
L 202.732187 657.759811 
L 211.223587 653.339836 
L 219.714988 653.829294 
L 228.206388 661.638289 
L 236.697789 660.373581 
L 245.189189 662.279783 
L 253.68059 664.070836 
L 262.17199 667.578349 
L 270.663391 667.143692 
L 279.154791 666.449891 
L 287.646192 672.341261 
L 296.137592 684.078485 
L 304.628993 681.720197 
L 313.120393 683.337082 
L 321.611794 679.125404 
L 330.103194 681.064444 
L 338.594595 687.170652 
L 347.085995 688.025094 
L 355.577396 683.353751 
L 364.068796 688.293085 
L 372.560197 691.472053 
L 381.051597 693.09113 
L 389.542998 693.579099 
L 398.034398 700.058932 
L 406.525799 697.747061 
L 415.017199 695.653435 
L 423.5086 699.073506 
L 432 695.591292 
L 440.4914 700.458328 
L 448.982801 701.52589 
L 457.474201 695.287358 
L 465.965602 699.720801 
L 474.457002 695.288567 
L 482.948403 699.931784 
L 491.439803 700.549919 
L 499.931204 701.024491 
L 508.422604 699.154713 
L 516.914005 704.854748 
L 525.405405 707.205618 
L 533.896806 708.068527 
L 542.388206 706.54247 
L 550.879607 708.006704 
L 559.371007 708.734028 
L 567.862408 702.982209 
L 576.353808 703.408385 
L 584.845209 706.348297 
L 593.336609 707.770289 
L 601.82801 707.931569 
L 610.31941 735.031555 
L 618.810811 740.107828 
L 627.302211 742.217033 
L 635.793612 743.948998 
L 644.285012 740.016393 
L 652.776413 742.55214 
L 661.267813 741.359547 
L 669.759214 742.876581 
L 678.250614 743.619574 
L 686.742015 742.292879 
L 695.233415 738.314838 
L 703.724816 744.842614 
L 712.216216 746.181818 
L 720.707617 735.994665 
L 729.199017 742.364163 
L 737.690418 744.975358 
L 746.181818 737.710489 
" clip-path="url(#paff75db8b0)" style="fill: none; stroke: #bcbd22; stroke-width: 1.5; stroke-linecap: square"/>
   </g>
   <g id="patch_3">
    <path d="M 86.4 777.6 
L 86.4 86.4 
" style="fill: none; stroke: #000000; stroke-width: 0.8; stroke-linejoin: miter; stroke-linecap: square"/>
   </g>
   <g id="patch_4">
    <path d="M 777.6 777.6 
L 777.6 86.4 
" style="fill: none; stroke: #000000; stroke-width: 0.8; stroke-linejoin: miter; stroke-linecap: square"/>
   </g>
   <g id="patch_5">
    <path d="M 86.4 777.6 
L 777.6 777.6 
" style="fill: none; stroke: #000000; stroke-width: 0.8; stroke-linejoin: miter; stroke-linecap: square"/>
   </g>
   <g id="patch_6">
    <path d="M 86.4 86.4 
L 777.6 86.4 
" style="fill: none; stroke: #000000; stroke-width: 0.8; stroke-linejoin: miter; stroke-linecap: square"/>
   </g>
   <g id="legend_1">
    <g id="patch_7">
     <path d="M 602.170313 285.215625 
L 770.6 285.215625 
Q 772.6 285.215625 772.6 283.215625 
L 772.6 93.4 
Q 772.6 91.4 770.6 91.4 
L 602.170313 91.4 
Q 600.170313 91.4 600.170313 93.4 
L 600.170313 283.215625 
Q 600.170313 285.215625 602.170313 285.215625 
z
" style="fill: #ffffff; opacity: 0.8; stroke: #cccccc; stroke-linejoin: miter"/>
    </g>
    <g id="line2d_104">
     <path d="M 604.170313 99.498437 
L 614.170313 99.498437 
L 624.170313 99.498437 
" style="fill: none; stroke: #1f77b4; stroke-width: 1.5; stroke-linecap: square"/>
    </g>
    <g id="text_48">
     <!-- Linear Regression -->
     <g transform="translate(632.170313 102.998437) scale(0.1 -0.1)">
      <defs>
       <path id="DejaVuSans-4c" d="M 628 4666 
L 1259 4666 
L 1259 531 
L 3531 531 
L 3531 0 
L 628 0 
L 628 4666 
z
" transform="scale(0.015625)"/>
       <path id="DejaVuSans-6e" d="M 3513 2113 
L 3513 0 
L 2938 0 
L 2938 2094 
Q 2938 2591 2744 2837 
Q 2550 3084 2163 3084 
Q 1697 3084 1428 2787 
Q 1159 2491 1159 1978 
L 1159 0 
L 581 0 
L 581 3500 
L 1159 3500 
L 1159 2956 
Q 1366 3272 1645 3428 
Q 1925 3584 2291 3584 
Q 2894 3584 3203 3211 
Q 3513 2838 3513 2113 
z
" transform="scale(0.015625)"/>
      </defs>
      <use xlink:href="#DejaVuSans-4c"/>
      <use xlink:href="#DejaVuSans-69" x="55.712891"/>
      <use xlink:href="#DejaVuSans-6e" x="83.496094"/>
      <use xlink:href="#DejaVuSans-65" x="146.875"/>
      <use xlink:href="#DejaVuSans-61" x="208.398438"/>
      <use xlink:href="#DejaVuSans-72" x="269.677734"/>
      <use xlink:href="#DejaVuSans-20" x="310.791016"/>
      <use xlink:href="#DejaVuSans-52" x="342.578125"/>
      <use xlink:href="#DejaVuSans-65" x="407.560547"/>
      <use xlink:href="#DejaVuSans-67" x="469.083984"/>
      <use xlink:href="#DejaVuSans-72" x="532.560547"/>
      <use xlink:href="#DejaVuSans-65" x="571.423828"/>
      <use xlink:href="#DejaVuSans-73" x="632.947266"/>
      <use xlink:href="#DejaVuSans-73" x="685.046875"/>
      <use xlink:href="#DejaVuSans-69" x="737.146484"/>
      <use xlink:href="#DejaVuSans-6f" x="764.929688"/>
      <use xlink:href="#DejaVuSans-6e" x="826.111328"/>
     </g>
    </g>
    <g id="line2d_105">
     <path d="M 604.170313 114.176562 
L 614.170313 114.176562 
L 624.170313 114.176562 
" style="fill: none; stroke: #aec7e8; stroke-width: 1.5; stroke-linecap: square"/>
    </g>
    <g id="text_49">
     <!-- LASSO -->
     <g transform="translate(632.170313 117.676562) scale(0.1 -0.1)">
      <defs>
       <path id="DejaVuSans-4f" d="M 2522 4238 
Q 1834 4238 1429 3725 
Q 1025 3213 1025 2328 
Q 1025 1447 1429 934 
Q 1834 422 2522 422 
Q 3209 422 3611 934 
Q 4013 1447 4013 2328 
Q 4013 3213 3611 3725 
Q 3209 4238 2522 4238 
z
M 2522 4750 
Q 3503 4750 4090 4092 
Q 4678 3434 4678 2328 
Q 4678 1225 4090 567 
Q 3503 -91 2522 -91 
Q 1538 -91 948 565 
Q 359 1222 359 2328 
Q 359 3434 948 4092 
Q 1538 4750 2522 4750 
z
" transform="scale(0.015625)"/>
      </defs>
      <use xlink:href="#DejaVuSans-4c"/>
      <use xlink:href="#DejaVuSans-41" x="57.962891"/>
      <use xlink:href="#DejaVuSans-53" x="126.371094"/>
      <use xlink:href="#DejaVuSans-53" x="189.847656"/>
      <use xlink:href="#DejaVuSans-4f" x="253.324219"/>
     </g>
    </g>
    <g id="line2d_106">
     <path d="M 604.170313 128.854687 
L 614.170313 128.854687 
L 624.170313 128.854687 
" style="fill: none; stroke: #ff7f0e; stroke-width: 1.5; stroke-linecap: square"/>
    </g>
    <g id="text_50">
     <!-- Ridge -->
     <g transform="translate(632.170313 132.354687) scale(0.1 -0.1)">
      <use xlink:href="#DejaVuSans-52"/>
      <use xlink:href="#DejaVuSans-69" x="69.482422"/>
      <use xlink:href="#DejaVuSans-64" x="97.265625"/>
      <use xlink:href="#DejaVuSans-67" x="160.742188"/>
      <use xlink:href="#DejaVuSans-65" x="224.21875"/>
     </g>
    </g>
    <g id="line2d_107">
     <path d="M 604.170313 143.532812 
L 614.170313 143.532812 
L 624.170313 143.532812 
" style="fill: none; stroke: #ffbb78; stroke-width: 1.5; stroke-linecap: square"/>
    </g>
    <g id="text_51">
     <!-- Elastic Net -->
     <g transform="translate(632.170313 147.032812) scale(0.1 -0.1)">
      <defs>
       <path id="DejaVuSans-63" d="M 3122 3366 
L 3122 2828 
Q 2878 2963 2633 3030 
Q 2388 3097 2138 3097 
Q 1578 3097 1268 2742 
Q 959 2388 959 1747 
Q 959 1106 1268 751 
Q 1578 397 2138 397 
Q 2388 397 2633 464 
Q 2878 531 3122 666 
L 3122 134 
Q 2881 22 2623 -34 
Q 2366 -91 2075 -91 
Q 1284 -91 818 406 
Q 353 903 353 1747 
Q 353 2603 823 3093 
Q 1294 3584 2113 3584 
Q 2378 3584 2631 3529 
Q 2884 3475 3122 3366 
z
" transform="scale(0.015625)"/>
      </defs>
      <use xlink:href="#DejaVuSans-45"/>
      <use xlink:href="#DejaVuSans-6c" x="63.183594"/>
      <use xlink:href="#DejaVuSans-61" x="90.966797"/>
      <use xlink:href="#DejaVuSans-73" x="152.246094"/>
      <use xlink:href="#DejaVuSans-74" x="204.345703"/>
      <use xlink:href="#DejaVuSans-69" x="243.554688"/>
      <use xlink:href="#DejaVuSans-63" x="271.337891"/>
      <use xlink:href="#DejaVuSans-20" x="326.318359"/>
      <use xlink:href="#DejaVuSans-4e" x="358.105469"/>
      <use xlink:href="#DejaVuSans-65" x="432.910156"/>
      <use xlink:href="#DejaVuSans-74" x="494.433594"/>
     </g>
    </g>
    <g id="line2d_108">
     <path d="M 604.170313 158.210937 
L 614.170313 158.210937 
L 624.170313 158.210937 
" style="fill: none; stroke: #2ca02c; stroke-width: 1.5; stroke-linecap: square"/>
    </g>
    <g id="text_52">
     <!-- K-Nearest Neighbors -->
     <g transform="translate(632.170313 161.710937) scale(0.1 -0.1)">
      <defs>
       <path id="DejaVuSans-4b" d="M 628 4666 
L 1259 4666 
L 1259 2694 
L 3353 4666 
L 4166 4666 
L 1850 2491 
L 4331 0 
L 3500 0 
L 1259 2247 
L 1259 0 
L 628 0 
L 628 4666 
z
" transform="scale(0.015625)"/>
       <path id="DejaVuSans-68" d="M 3513 2113 
L 3513 0 
L 2938 0 
L 2938 2094 
Q 2938 2591 2744 2837 
Q 2550 3084 2163 3084 
Q 1697 3084 1428 2787 
Q 1159 2491 1159 1978 
L 1159 0 
L 581 0 
L 581 4863 
L 1159 4863 
L 1159 2956 
Q 1366 3272 1645 3428 
Q 1925 3584 2291 3584 
Q 2894 3584 3203 3211 
Q 3513 2838 3513 2113 
z
" transform="scale(0.015625)"/>
      </defs>
      <use xlink:href="#DejaVuSans-4b"/>
      <use xlink:href="#DejaVuSans-2d" x="55.076172"/>
      <use xlink:href="#DejaVuSans-4e" x="91.160156"/>
      <use xlink:href="#DejaVuSans-65" x="165.964844"/>
      <use xlink:href="#DejaVuSans-61" x="227.488281"/>
      <use xlink:href="#DejaVuSans-72" x="288.767578"/>
      <use xlink:href="#DejaVuSans-65" x="327.630859"/>
      <use xlink:href="#DejaVuSans-73" x="389.154297"/>
      <use xlink:href="#DejaVuSans-74" x="441.253906"/>
      <use xlink:href="#DejaVuSans-20" x="480.462891"/>
      <use xlink:href="#DejaVuSans-4e" x="512.25"/>
      <use xlink:href="#DejaVuSans-65" x="587.054688"/>
      <use xlink:href="#DejaVuSans-69" x="648.578125"/>
      <use xlink:href="#DejaVuSans-67" x="676.361328"/>
      <use xlink:href="#DejaVuSans-68" x="739.837891"/>
      <use xlink:href="#DejaVuSans-62" x="803.216797"/>
      <use xlink:href="#DejaVuSans-6f" x="866.693359"/>
      <use xlink:href="#DejaVuSans-72" x="927.875"/>
      <use xlink:href="#DejaVuSans-73" x="968.988281"/>
     </g>
    </g>
    <g id="line2d_109">
     <path d="M 604.170313 172.889062 
L 614.170313 172.889062 
L 624.170313 172.889062 
" style="fill: none; stroke: #d62728; stroke-width: 1.5; stroke-linecap: square"/>
    </g>
    <g id="text_53">
     <!-- Decision Tree -->
     <g transform="translate(632.170313 176.389062) scale(0.1 -0.1)">
      <defs>
       <path id="DejaVuSans-44" d="M 1259 4147 
L 1259 519 
L 2022 519 
Q 2988 519 3436 956 
Q 3884 1394 3884 2338 
Q 3884 3275 3436 3711 
Q 2988 4147 2022 4147 
L 1259 4147 
z
M 628 4666 
L 1925 4666 
Q 3281 4666 3915 4102 
Q 4550 3538 4550 2338 
Q 4550 1131 3912 565 
Q 3275 0 1925 0 
L 628 0 
L 628 4666 
z
" transform="scale(0.015625)"/>
       <path id="DejaVuSans-54" d="M -19 4666 
L 3928 4666 
L 3928 4134 
L 2272 4134 
L 2272 0 
L 1638 0 
L 1638 4134 
L -19 4134 
L -19 4666 
z
" transform="scale(0.015625)"/>
      </defs>
      <use xlink:href="#DejaVuSans-44"/>
      <use xlink:href="#DejaVuSans-65" x="77.001953"/>
      <use xlink:href="#DejaVuSans-63" x="138.525391"/>
      <use xlink:href="#DejaVuSans-69" x="193.505859"/>
      <use xlink:href="#DejaVuSans-73" x="221.289062"/>
      <use xlink:href="#DejaVuSans-69" x="273.388672"/>
      <use xlink:href="#DejaVuSans-6f" x="301.171875"/>
      <use xlink:href="#DejaVuSans-6e" x="362.353516"/>
      <use xlink:href="#DejaVuSans-20" x="425.732422"/>
      <use xlink:href="#DejaVuSans-54" x="457.519531"/>
      <use xlink:href="#DejaVuSans-72" x="503.853516"/>
      <use xlink:href="#DejaVuSans-65" x="542.716797"/>
      <use xlink:href="#DejaVuSans-65" x="604.240234"/>
     </g>
    </g>
    <g id="line2d_110">
     <path d="M 604.170313 187.567187 
L 614.170313 187.567187 
L 624.170313 187.567187 
" style="fill: none; stroke: #7f7f7f; stroke-width: 1.5; stroke-linecap: square"/>
    </g>
    <g id="text_54">
     <!-- Extra Trees -->
     <g transform="translate(632.170313 191.067187) scale(0.1 -0.1)">
      <defs>
       <path id="DejaVuSans-78" d="M 3513 3500 
L 2247 1797 
L 3578 0 
L 2900 0 
L 1881 1375 
L 863 0 
L 184 0 
L 1544 1831 
L 300 3500 
L 978 3500 
L 1906 2253 
L 2834 3500 
L 3513 3500 
z
" transform="scale(0.015625)"/>
      </defs>
      <use xlink:href="#DejaVuSans-45"/>
      <use xlink:href="#DejaVuSans-78" x="63.183594"/>
      <use xlink:href="#DejaVuSans-74" x="122.363281"/>
      <use xlink:href="#DejaVuSans-72" x="161.572266"/>
      <use xlink:href="#DejaVuSans-61" x="202.685547"/>
      <use xlink:href="#DejaVuSans-20" x="263.964844"/>
      <use xlink:href="#DejaVuSans-54" x="295.751953"/>
      <use xlink:href="#DejaVuSans-72" x="342.085938"/>
      <use xlink:href="#DejaVuSans-65" x="380.949219"/>
      <use xlink:href="#DejaVuSans-65" x="442.472656"/>
      <use xlink:href="#DejaVuSans-73" x="503.996094"/>
     </g>
    </g>
    <g id="line2d_111">
     <path d="M 604.170313 202.245312 
L 614.170313 202.245312 
L 624.170313 202.245312 
" style="fill: none; stroke: #f46d43; stroke-width: 1.5; stroke-linecap: square"/>
    </g>
    <g id="text_55">
     <!-- Random Forest -->
     <g transform="translate(632.170313 205.745312) scale(0.1 -0.1)">
      <defs>
       <path id="DejaVuSans-46" d="M 628 4666 
L 3309 4666 
L 3309 4134 
L 1259 4134 
L 1259 2759 
L 3109 2759 
L 3109 2228 
L 1259 2228 
L 1259 0 
L 628 0 
L 628 4666 
z
" transform="scale(0.015625)"/>
      </defs>
      <use xlink:href="#DejaVuSans-52"/>
      <use xlink:href="#DejaVuSans-61" x="67.232422"/>
      <use xlink:href="#DejaVuSans-6e" x="128.511719"/>
      <use xlink:href="#DejaVuSans-64" x="191.890625"/>
      <use xlink:href="#DejaVuSans-6f" x="255.367188"/>
      <use xlink:href="#DejaVuSans-6d" x="316.548828"/>
      <use xlink:href="#DejaVuSans-20" x="413.960938"/>
      <use xlink:href="#DejaVuSans-46" x="445.748047"/>
      <use xlink:href="#DejaVuSans-6f" x="499.642578"/>
      <use xlink:href="#DejaVuSans-72" x="560.824219"/>
      <use xlink:href="#DejaVuSans-65" x="599.6875"/>
      <use xlink:href="#DejaVuSans-73" x="661.210938"/>
      <use xlink:href="#DejaVuSans-74" x="713.310547"/>
     </g>
    </g>
    <g id="line2d_112">
     <path d="M 604.170313 216.923437 
L 614.170313 216.923437 
L 624.170313 216.923437 
" style="fill: none; stroke: #9467bd; stroke-width: 1.5; stroke-linecap: square"/>
    </g>
    <g id="text_56">
     <!-- Ada Boost -->
     <g transform="translate(632.170313 220.423437) scale(0.1 -0.1)">
      <defs>
       <path id="DejaVuSans-42" d="M 1259 2228 
L 1259 519 
L 2272 519 
Q 2781 519 3026 730 
Q 3272 941 3272 1375 
Q 3272 1813 3026 2020 
Q 2781 2228 2272 2228 
L 1259 2228 
z
M 1259 4147 
L 1259 2741 
L 2194 2741 
Q 2656 2741 2882 2914 
Q 3109 3088 3109 3444 
Q 3109 3797 2882 3972 
Q 2656 4147 2194 4147 
L 1259 4147 
z
M 628 4666 
L 2241 4666 
Q 2963 4666 3353 4366 
Q 3744 4066 3744 3513 
Q 3744 3084 3544 2831 
Q 3344 2578 2956 2516 
Q 3422 2416 3680 2098 
Q 3938 1781 3938 1306 
Q 3938 681 3513 340 
Q 3088 0 2303 0 
L 628 0 
L 628 4666 
z
" transform="scale(0.015625)"/>
      </defs>
      <use xlink:href="#DejaVuSans-41"/>
      <use xlink:href="#DejaVuSans-64" x="66.658203"/>
      <use xlink:href="#DejaVuSans-61" x="130.134766"/>
      <use xlink:href="#DejaVuSans-20" x="191.414062"/>
      <use xlink:href="#DejaVuSans-42" x="223.201172"/>
      <use xlink:href="#DejaVuSans-6f" x="291.804688"/>
      <use xlink:href="#DejaVuSans-6f" x="352.986328"/>
      <use xlink:href="#DejaVuSans-73" x="414.167969"/>
      <use xlink:href="#DejaVuSans-74" x="466.267578"/>
     </g>
    </g>
    <g id="line2d_113">
     <path d="M 604.170313 231.601562 
L 614.170313 231.601562 
L 624.170313 231.601562 
" style="fill: none; stroke: #8c564b; stroke-width: 1.5; stroke-linecap: square"/>
    </g>
    <g id="text_57">
     <!-- Gradient Boosting -->
     <g transform="translate(632.170313 235.101562) scale(0.1 -0.1)">
      <defs>
       <path id="DejaVuSans-47" d="M 3809 666 
L 3809 1919 
L 2778 1919 
L 2778 2438 
L 4434 2438 
L 4434 434 
Q 4069 175 3628 42 
Q 3188 -91 2688 -91 
Q 1594 -91 976 548 
Q 359 1188 359 2328 
Q 359 3472 976 4111 
Q 1594 4750 2688 4750 
Q 3144 4750 3555 4637 
Q 3966 4525 4313 4306 
L 4313 3634 
Q 3963 3931 3569 4081 
Q 3175 4231 2741 4231 
Q 1884 4231 1454 3753 
Q 1025 3275 1025 2328 
Q 1025 1384 1454 906 
Q 1884 428 2741 428 
Q 3075 428 3337 486 
Q 3600 544 3809 666 
z
" transform="scale(0.015625)"/>
      </defs>
      <use xlink:href="#DejaVuSans-47"/>
      <use xlink:href="#DejaVuSans-72" x="77.490234"/>
      <use xlink:href="#DejaVuSans-61" x="118.603516"/>
      <use xlink:href="#DejaVuSans-64" x="179.882812"/>
      <use xlink:href="#DejaVuSans-69" x="243.359375"/>
      <use xlink:href="#DejaVuSans-65" x="271.142578"/>
      <use xlink:href="#DejaVuSans-6e" x="332.666016"/>
      <use xlink:href="#DejaVuSans-74" x="396.044922"/>
      <use xlink:href="#DejaVuSans-20" x="435.253906"/>
      <use xlink:href="#DejaVuSans-42" x="467.041016"/>
      <use xlink:href="#DejaVuSans-6f" x="535.644531"/>
      <use xlink:href="#DejaVuSans-6f" x="596.826172"/>
      <use xlink:href="#DejaVuSans-73" x="658.007812"/>
      <use xlink:href="#DejaVuSans-74" x="710.107422"/>
      <use xlink:href="#DejaVuSans-69" x="749.316406"/>
      <use xlink:href="#DejaVuSans-6e" x="777.099609"/>
      <use xlink:href="#DejaVuSans-67" x="840.478516"/>
     </g>
    </g>
    <g id="line2d_114">
     <path d="M 604.170313 246.279687 
L 614.170313 246.279687 
L 624.170313 246.279687 
" style="fill: none; stroke: #e377c2; stroke-width: 1.5; stroke-linecap: square"/>
    </g>
    <g id="text_58">
     <!-- eXtreme Gradient Boosting -->
     <g transform="translate(632.170313 249.779687) scale(0.1 -0.1)">
      <defs>
       <path id="DejaVuSans-58" d="M 403 4666 
L 1081 4666 
L 2241 2931 
L 3406 4666 
L 4084 4666 
L 2584 2425 
L 4184 0 
L 3506 0 
L 2194 1984 
L 872 0 
L 191 0 
L 1856 2491 
L 403 4666 
z
" transform="scale(0.015625)"/>
      </defs>
      <use xlink:href="#DejaVuSans-65"/>
      <use xlink:href="#DejaVuSans-58" x="61.523438"/>
      <use xlink:href="#DejaVuSans-74" x="130.029297"/>
      <use xlink:href="#DejaVuSans-72" x="169.238281"/>
      <use xlink:href="#DejaVuSans-65" x="208.101562"/>
      <use xlink:href="#DejaVuSans-6d" x="269.625"/>
      <use xlink:href="#DejaVuSans-65" x="367.037109"/>
      <use xlink:href="#DejaVuSans-20" x="428.560547"/>
      <use xlink:href="#DejaVuSans-47" x="460.347656"/>
      <use xlink:href="#DejaVuSans-72" x="537.837891"/>
      <use xlink:href="#DejaVuSans-61" x="578.951172"/>
      <use xlink:href="#DejaVuSans-64" x="640.230469"/>
      <use xlink:href="#DejaVuSans-69" x="703.707031"/>
      <use xlink:href="#DejaVuSans-65" x="731.490234"/>
      <use xlink:href="#DejaVuSans-6e" x="793.013672"/>
      <use xlink:href="#DejaVuSans-74" x="856.392578"/>
      <use xlink:href="#DejaVuSans-20" x="895.601562"/>
      <use xlink:href="#DejaVuSans-42" x="927.388672"/>
      <use xlink:href="#DejaVuSans-6f" x="995.992188"/>
      <use xlink:href="#DejaVuSans-6f" x="1057.173828"/>
      <use xlink:href="#DejaVuSans-73" x="1118.355469"/>
      <use xlink:href="#DejaVuSans-74" x="1170.455078"/>
      <use xlink:href="#DejaVuSans-69" x="1209.664062"/>
      <use xlink:href="#DejaVuSans-6e" x="1237.447266"/>
      <use xlink:href="#DejaVuSans-67" x="1300.826172"/>
     </g>
    </g>
    <g id="line2d_115">
     <path d="M 604.170313 260.957812 
L 614.170313 260.957812 
L 624.170313 260.957812 
" style="fill: none; stroke: #17becf; stroke-width: 1.5; stroke-linecap: square"/>
    </g>
    <g id="text_59">
     <!-- Light GBM -->
     <g transform="translate(632.170313 264.457812) scale(0.1 -0.1)">
      <use xlink:href="#DejaVuSans-4c"/>
      <use xlink:href="#DejaVuSans-69" x="55.712891"/>
      <use xlink:href="#DejaVuSans-67" x="83.496094"/>
      <use xlink:href="#DejaVuSans-68" x="146.972656"/>
      <use xlink:href="#DejaVuSans-74" x="210.351562"/>
      <use xlink:href="#DejaVuSans-20" x="249.560547"/>
      <use xlink:href="#DejaVuSans-47" x="281.347656"/>
      <use xlink:href="#DejaVuSans-42" x="358.837891"/>
      <use xlink:href="#DejaVuSans-4d" x="427.441406"/>
     </g>
    </g>
    <g id="line2d_116">
     <path d="M 604.170313 275.635937 
L 614.170313 275.635937 
L 624.170313 275.635937 
" style="fill: none; stroke: #bcbd22; stroke-width: 1.5; stroke-linecap: square"/>
    </g>
    <g id="text_60">
     <!-- Cat Boost -->
     <g transform="translate(632.170313 279.135937) scale(0.1 -0.1)">
      <defs>
       <path id="DejaVuSans-43" d="M 4122 4306 
L 4122 3641 
Q 3803 3938 3442 4084 
Q 3081 4231 2675 4231 
Q 1875 4231 1450 3742 
Q 1025 3253 1025 2328 
Q 1025 1406 1450 917 
Q 1875 428 2675 428 
Q 3081 428 3442 575 
Q 3803 722 4122 1019 
L 4122 359 
Q 3791 134 3420 21 
Q 3050 -91 2638 -91 
Q 1578 -91 968 557 
Q 359 1206 359 2328 
Q 359 3453 968 4101 
Q 1578 4750 2638 4750 
Q 3056 4750 3426 4639 
Q 3797 4528 4122 4306 
z
" transform="scale(0.015625)"/>
      </defs>
      <use xlink:href="#DejaVuSans-43"/>
      <use xlink:href="#DejaVuSans-61" x="69.824219"/>
      <use xlink:href="#DejaVuSans-74" x="131.103516"/>
      <use xlink:href="#DejaVuSans-20" x="170.3125"/>
      <use xlink:href="#DejaVuSans-42" x="202.099609"/>
      <use xlink:href="#DejaVuSans-6f" x="270.703125"/>
      <use xlink:href="#DejaVuSans-6f" x="331.884766"/>
      <use xlink:href="#DejaVuSans-73" x="393.066406"/>
      <use xlink:href="#DejaVuSans-74" x="445.166016"/>
     </g>
    </g>
   </g>
  </g>
 </g>
 <defs>
  <clipPath id="paff75db8b0">
   <rect x="86.4" y="86.4" width="691.2" height="691.2"/>
  </clipPath>
 </defs>
</svg>
